SplineFontDB: 3.2
FontName: Zain-Bold
FullName: Zain Bold
FamilyName: Zain
Weight: Bold
Copyright: Copyright 2024 The Zain Project Authors (https://github.com/googlefonts/zain)
Version: 1.51; ttfautohint (v1.8.4)
ItalicAngle: 0
UnderlinePosition: -100
UnderlineWidth: 50
Ascent: 800
Descent: 200
InvalidEm: 0
sfntRevision: 0x0001828f
LayerCount: 2
Layer: 0 1 "Back" 1
Layer: 1 1 "Fore" 0
XUID: [1021 736 -289526145 25908]
StyleMap: 0x0020
FSType: 0
OS2Version: 4
OS2_WeightWidthSlopeOnly: 0
OS2_UseTypoMetrics: 1
CreationTime: 1722724811
ModificationTime: 1728037139
PfmFamily: 81
TTFWeight: 700
TTFWidth: 5
LineGap: 0
VLineGap: 0
Panose: 0 0 9 0 0 0 0 0 0 0
OS2TypoAscent: 900
OS2TypoAOffset: 0
OS2TypoDescent: -500
OS2TypoDOffset: 0
OS2TypoLinegap: 0
OS2WinAscent: 881
OS2WinAOffset: 0
OS2WinDescent: 501
OS2WinDOffset: 0
HheadAscent: 900
HheadAOffset: 0
HheadDescent: -500
HheadDOffset: 0
OS2SubXSize: 650
OS2SubYSize: 600
OS2SubXOff: 0
OS2SubYOff: 75
OS2SupXSize: 650
OS2SupYSize: 600
OS2SupXOff: 0
OS2SupYOff: 350
OS2StrikeYSize: 45
OS2StrikeYPos: 267
OS2CapHeight: 556
OS2XHeight: 376
OS2Vendor: '1BOU'
OS2CodePages: 00000041.00000000
OS2UnicodeRanges: 800020af.d000204a.00000008.00000000
Lookup: 1 0 0 "'aalt' Access All Alternates lookup 0" { "'aalt' Access All Alternates lookup 0 subtable"  } ['aalt' ('DFLT' <'dflt' > 'arab' <'URD ' 'dflt' > 'latn' <'dflt' > ) ]
Lookup: 3 0 0 "'aalt' Access All Alternates lookup 1" { "'aalt' Access All Alternates lookup 1 subtable"  } ['aalt' ('DFLT' <'dflt' > 'arab' <'URD ' 'dflt' > 'latn' <'dflt' > ) ]
Lookup: 1 0 0 "Single Substitution lookup 2" { "Single Substitution lookup 2 subtable"  } []
Lookup: 1 0 0 "'sups' Superscript lookup 3" { "'sups' Superscript lookup 3 subtable" ("superior") } ['sups' ('DFLT' <'dflt' > 'arab' <'URD ' 'dflt' > 'latn' <'dflt' > ) ]
Lookup: 4 0 0 "'frac' Diagonal Fractions lookup 4" { "'frac' Diagonal Fractions lookup 4 subtable"  } ['frac' ('DFLT' <'dflt' > 'arab' <'URD ' 'dflt' > 'latn' <'dflt' > ) ]

StartChar: .notdef
Encoding: 65536 -1 0
Width: 524
GlyphClass: 1
Flags: W
LayerCount: 2
Fore
SplineSet
18 559 m 1,0,-1
 506 559 l 1,1,-1
 506 -268 l 1,2,-1
 18 -268 l 1,3,-1
 18 559 l 1,0,-1
79 497 m 1,4,-1
 79 -206 l 1,5,-1
 445 -206 l 1,6,-1
 445 497 l 1,7,-1
 79 497 l 1,4,-1
208 49 m 2,8,-1
 208 77 l 2,9,10
 208 108 208 108 225.5 129 c 128,-1,11
 243 150 243 150 266 167 c 128,-1,12
 289 184 289 184 306.5 203.5 c 128,-1,13
 324 223 324 223 324 252 c 256,14,15
 324 281 324 281 304.5 297.5 c 128,-1,16
 285 314 285 314 250 314 c 0,17,18
 219 314 219 314 194 306.5 c 128,-1,19
 169 299 169 299 140 283 c 0,20,21
 132 279 132 279 129 279 c 0,22,23
 123 279 123 279 120 286 c 2,24,-1
 114 305 l 2,25,26
 107 328 107 328 114.5 342.5 c 128,-1,27
 122 357 122 357 148 368 c 0,28,29
 171 378 171 378 195 384 c 128,-1,30
 219 390 219 390 251 390 c 0,31,32
 321 390 321 390 365 358 c 128,-1,33
 409 326 409 326 409 264 c 0,34,35
 409 209 409 209 376 173 c 128,-1,36
 343 137 343 137 293 99 c 0,37,38
 283 91 283 91 279.5 84.5 c 128,-1,39
 276 78 276 78 276 67 c 2,40,-1
 276 49 l 2,41,42
 276 40 276 40 268 40 c 2,43,-1
 217 40 l 2,44,45
 208 40 208 40 208 49 c 2,8,-1
243 -100 m 0,46,47
 221 -100 221 -100 206.5 -85 c 128,-1,48
 192 -70 192 -70 192 -48 c 0,49,50
 192 -25 192 -25 206.5 -11 c 128,-1,51
 221 3 221 3 243 3 c 0,52,53
 264 3 264 3 278.5 -11 c 128,-1,54
 293 -25 293 -25 293 -48 c 0,55,56
 293 -70 293 -70 278.5 -85 c 128,-1,57
 264 -100 264 -100 243 -100 c 0,46,47
EndSplineSet
EndChar

StartChar: exclam
Encoding: 33 33 3
Width: 175
GlyphClass: 1
Flags: W
LayerCount: 2
Fore
SplineSet
47 166 m 2,0,-1
 37 544 l 2,1,2
 37 556 37 556 47 556 c 2,3,-1
 56 556 l 2,4,5
 94 556 94 556 114.5 535.5 c 128,-1,6
 135 515 135 515 134 468 c 2,7,-1
 126 166 l 2,8,9
 126 155 126 155 116 155 c 2,10,-1
 58 155 l 2,11,12
 47 155 47 155 47 166 c 2,0,-1
86 -10 m 0,13,14
 62 -10 62 -10 44.5 7.5 c 128,-1,15
 27 25 27 25 27 51 c 256,16,17
 27 77 27 77 44.5 94 c 128,-1,18
 62 111 62 111 86 111 c 0,19,20
 112 111 112 111 128.5 94 c 128,-1,21
 145 77 145 77 145 51 c 0,22,23
 145 24 145 24 128.5 7 c 128,-1,24
 112 -10 112 -10 86 -10 c 0,13,14
EndSplineSet
Substitution2: "'locl' Localized Forms in Arabic lookup 15 subtable" exclam.ar
EndChar

StartChar: quotedbl
Encoding: 34 34 4
Width: 289
GlyphClass: 1
Flags: W
LayerCount: 2
Fore
SplineSet
44 372 m 2,0,-1
 27 544 l 2,1,2
 26 556 26 556 38 556 c 2,3,-1
 55 556 l 2,4,5
 94 556 94 556 109 539.5 c 128,-1,6
 124 523 124 523 119 473 c 2,7,-1
 110 372 l 2,8,9
 109 362 109 362 99 362 c 2,10,-1
 54 362 l 2,11,12
 45 362 45 362 44 372 c 2,0,-1
186 372 m 2,13,-1
 170 544 l 2,14,15
 169 556 169 556 180 556 c 2,16,-1
 197 556 l 2,17,18
 238 556 238 556 253 539.5 c 128,-1,19
 268 523 268 523 263 473 c 2,20,-1
 254 372 l 2,21,22
 253 362 253 362 243 362 c 2,23,-1
 197 362 l 2,24,25
 187 362 187 362 186 372 c 2,13,-1
EndSplineSet
EndChar

StartChar: numbersign
Encoding: 35 35 5
Width: 564
GlyphClass: 1
Flags: W
LayerCount: 2
Fore
SplineSet
94 143 m 1,0,-1
 32 143 l 2,1,2
 20 143 20 143 23 154 c 2,3,-1
 35 199 l 2,4,5
 38 210 38 210 48 210 c 2,6,-1
 111 210 l 1,7,-1
 144 342 l 1,8,-1
 81 342 l 2,9,10
 71 342 71 342 73 353 c 2,11,-1
 84 398 l 2,12,13
 87 408 87 408 97 408 c 2,14,-1
 160 408 l 1,15,-1
 194 544 l 2,16,17
 197 556 197 556 207 556 c 2,18,-1
 230 556 l 2,19,20
 259 556 259 556 268.5 539 c 128,-1,21
 278 522 278 522 272 493 c 2,22,-1
 250 408 l 1,23,-1
 382 408 l 1,24,-1
 414 544 l 2,25,26
 419 556 419 556 429 556 c 2,27,-1
 450 556 l 2,28,29
 479 556 479 556 489 539 c 128,-1,30
 499 522 499 522 492 493 c 2,31,-1
 470 408 l 1,32,-1
 534 408 l 2,33,34
 546 408 546 408 543 398 c 2,35,-1
 532 353 l 2,36,37
 528 342 528 342 518 342 c 2,38,-1
 455 342 l 1,39,-1
 422 210 l 1,40,-1
 484 210 l 2,41,42
 496 210 496 210 493 199 c 2,43,-1
 482 154 l 2,44,45
 477 143 477 143 468 143 c 2,46,-1
 405 143 l 1,47,-1
 374 11 l 2,48,49
 371 0 371 0 363 0 c 2,50,-1
 292 0 l 2,51,52
 282 0 282 0 284 11 c 2,53,-1
 315 143 l 1,54,-1
 185 143 l 1,55,-1
 152 11 l 2,56,57
 149 0 149 0 141 0 c 2,58,-1
 71 0 l 2,59,60
 59 0 59 0 63 11 c 2,61,-1
 94 143 l 1,0,-1
201 210 m 1,62,-1
 332 210 l 1,63,-1
 365 342 l 1,64,-1
 235 342 l 1,65,-1
 201 210 l 1,62,-1
EndSplineSet
EndChar

StartChar: dollar
Encoding: 36 36 6
Width: 462
GlyphClass: 1
Flags: W
LayerCount: 2
Fore
SplineSet
212 76 m 1,0,-1
 212 244 l 1,1,2
 172 258 172 258 132.5 275.5 c 128,-1,3
 93 293 93 293 67.5 324.5 c 128,-1,4
 42 356 42 356 42 408 c 0,5,6
 42 454 42 454 64.5 487.5 c 128,-1,7
 87 521 87 521 125.5 541.5 c 128,-1,8
 164 562 164 562 212 566 c 1,9,-1
 212 611 l 2,10,11
 212 621 212 621 223 621 c 2,12,-1
 255 621 l 2,13,14
 266 621 266 621 266 611 c 2,15,-1
 266 566 l 1,16,17
 295 564 295 564 321.5 557.5 c 128,-1,18
 348 551 348 551 370 543 c 0,19,20
 401 532 401 532 409.5 514.5 c 128,-1,21
 418 497 418 497 411 469 c 2,22,-1
 406 449 l 2,23,24
 404 444 404 444 402.5 441 c 128,-1,25
 401 438 401 438 396 438 c 0,26,27
 392 438 392 438 388.5 440 c 128,-1,28
 385 442 385 442 380 443 c 0,29,30
 329 470 329 470 266 478 c 1,31,-1
 266 321 l 1,32,33
 306 308 306 308 344 290.5 c 128,-1,34
 382 273 382 273 407.5 243.5 c 128,-1,35
 433 214 433 214 433 163 c 0,36,37
 433 96 433 96 388 49.5 c 128,-1,38
 343 3 343 3 266 -8 c 1,39,-1
 266 -54 l 2,40,41
 266 -65 266 -65 255 -65 c 2,42,-1
 223 -65 l 2,43,44
 212 -65 212 -65 212 -54 c 2,45,-1
 212 -10 l 1,46,47
 148 -8 148 -8 106 14 c 128,-1,48
 64 36 64 36 44 68 c 128,-1,49
 24 100 24 100 24 131 c 0,50,51
 24 141 24 141 28.5 146.5 c 128,-1,52
 33 152 33 152 38 152 c 0,53,54
 45 152 45 152 50 147 c 0,55,56
 81 116 81 116 119 96.5 c 128,-1,57
 157 77 157 77 212 76 c 1,0,-1
212 339 m 1,58,-1
 212 479 l 1,59,60
 176 475 176 475 155.5 458.5 c 128,-1,61
 135 442 135 442 135 413 c 0,62,63
 135 385 135 385 157 368.5 c 128,-1,64
 179 352 179 352 212 339 c 1,58,-1
266 225 m 1,65,-1
 266 79 l 1,66,67
 338 94 338 94 338 152 c 0,68,69
 338 180 338 180 317.5 196 c 128,-1,70
 297 212 297 212 266 225 c 1,65,-1
EndSplineSet
EndChar

StartChar: percent
Encoding: 37 37 7
Width: 797
GlyphClass: 1
Flags: W
LayerCount: 2
Fore
SplineSet
175 223 m 0,0,1
 110 223 110 223 70.5 270.5 c 128,-1,2
 31 318 31 318 31 396 c 0,3,4
 31 472 31 472 70.5 519 c 128,-1,5
 110 566 110 566 175 566 c 0,6,7
 242 566 242 566 282 519 c 128,-1,8
 322 472 322 472 322 396 c 0,9,10
 322 318 322 318 282 270.5 c 128,-1,11
 242 223 242 223 175 223 c 0,0,1
208 0 m 2,12,13
 202 0 202 0 201.5 3.5 c 128,-1,14
 201 7 201 7 203 11 c 2,15,-1
 495 544 l 2,16,17
 503 556 503 556 512 556 c 2,18,-1
 530 556 l 2,19,20
 559 556 559 556 567.5 536.5 c 128,-1,21
 576 517 576 517 561 489 c 2,22,-1
 298 11 l 2,23,24
 293 0 293 0 282 0 c 2,25,-1
 208 0 l 2,12,13
175 289 m 0,26,27
 193 289 193 289 209.5 297.5 c 128,-1,28
 226 306 226 306 237 328.5 c 128,-1,29
 248 351 248 351 248 393 c 256,30,31
 248 435 248 435 237 458 c 128,-1,32
 226 481 226 481 209.5 489.5 c 128,-1,33
 193 498 193 498 175 498 c 0,34,35
 158 498 158 498 142 489.5 c 128,-1,36
 126 481 126 481 115.5 458 c 128,-1,37
 105 435 105 435 105 393 c 256,38,39
 105 351 105 351 115.5 328.5 c 128,-1,40
 126 306 126 306 142 297.5 c 128,-1,41
 158 289 158 289 175 289 c 0,26,27
620 -9 m 0,42,43
 554 -9 554 -9 513.5 39 c 128,-1,44
 473 87 473 87 473 163 c 0,45,46
 473 241 473 241 513.5 287.5 c 128,-1,47
 554 334 554 334 620 334 c 0,48,49
 685 334 685 334 725.5 287.5 c 128,-1,50
 766 241 766 241 766 163 c 0,51,52
 766 87 766 87 725.5 39 c 128,-1,53
 685 -9 685 -9 620 -9 c 0,42,43
620 59 m 0,54,55
 637 59 637 59 653.5 67.5 c 128,-1,56
 670 76 670 76 680.5 98.5 c 128,-1,57
 691 121 691 121 691 162 c 0,58,59
 691 204 691 204 680.5 227 c 128,-1,60
 670 250 670 250 653.5 259 c 128,-1,61
 637 268 637 268 620 268 c 0,62,63
 593 268 593 268 570.5 246.5 c 128,-1,64
 548 225 548 225 548 162 c 0,65,66
 548 121 548 121 558.5 98.5 c 128,-1,67
 569 76 569 76 585.5 67.5 c 128,-1,68
 602 59 602 59 620 59 c 0,54,55
EndSplineSet
EndChar

StartChar: ampersand
Encoding: 38 38 8
Width: 543
GlyphClass: 1
Flags: W
LayerCount: 2
Fore
SplineSet
290 284 m 1,0,-1
 367 198 l 1,1,-1
 423 278 l 2,2,3
 429 289 429 289 444 289 c 2,4,-1
 512 289 l 2,5,6
 517 289 517 289 519 286 c 128,-1,7
 521 283 521 283 517 279 c 2,8,-1
 418 138 l 1,9,-1
 522 12 l 2,10,11
 524 8 524 8 522.5 4 c 128,-1,12
 521 0 521 0 517 0 c 2,13,-1
 460 0 l 2,14,15
 432 0 432 0 415.5 8 c 128,-1,16
 399 16 399 16 387 32 c 2,17,-1
 360 64 l 1,18,19
 334 32 334 32 296.5 12.5 c 128,-1,20
 259 -7 259 -7 209 -7 c 0,21,22
 130 -7 130 -7 83 38 c 128,-1,23
 36 83 36 83 36 150 c 0,24,25
 36 210 36 210 71.5 245 c 128,-1,26
 107 280 107 280 155 304 c 1,27,28
 128 334 128 334 110.5 364 c 128,-1,29
 93 394 93 394 93 433 c 0,30,31
 93 493 93 493 138.5 529.5 c 128,-1,32
 184 566 184 566 257 566 c 0,33,34
 333 566 333 566 376.5 531.5 c 128,-1,35
 420 497 420 497 420 438 c 0,36,37
 420 389 420 389 381.5 351 c 128,-1,38
 343 313 343 313 290 284 c 1,0,-1
245 342 m 1,39,40
 278 359 278 359 302.5 380.5 c 128,-1,41
 327 402 327 402 327 433 c 0,42,43
 327 459 327 459 308 475.5 c 128,-1,44
 289 492 289 492 259 492 c 0,45,46
 230 492 230 492 211 475.5 c 128,-1,47
 192 459 192 459 192 433 c 0,48,49
 192 411 192 411 208 386.5 c 128,-1,50
 224 362 224 362 245 342 c 1,39,40
312 123 m 1,51,-1
 208 246 l 1,52,53
 177 229 177 229 155.5 208 c 128,-1,54
 134 187 134 187 134 152 c 0,55,56
 134 114 134 114 158 93 c 128,-1,57
 182 72 182 72 218 72 c 0,58,59
 252 72 252 72 272 86.5 c 128,-1,60
 292 101 292 101 312 123 c 1,51,-1
EndSplineSet
EndChar

StartChar: quotesingle
Encoding: 39 39 9
Width: 147
GlyphClass: 1
Flags: W
LayerCount: 2
Fore
SplineSet
44 372 m 2,0,-1
 27 544 l 2,1,2
 26 556 26 556 38 556 c 2,3,-1
 55 556 l 2,4,5
 94 556 94 556 109 539.5 c 128,-1,6
 124 523 124 523 119 473 c 2,7,-1
 110 372 l 2,8,9
 109 362 109 362 99 362 c 2,10,-1
 54 362 l 2,11,12
 45 362 45 362 44 372 c 2,0,-1
EndSplineSet
EndChar

StartChar: parenleft
Encoding: 40 40 10
Width: 330
GlyphClass: 1
Flags: W
LayerCount: 2
Fore
SplineSet
49 276 m 256,0,1
 49 371 49 371 69.5 444.5 c 128,-1,2
 90 518 90 518 124 570.5 c 128,-1,3
 158 623 158 623 198 654.5 c 128,-1,4
 238 686 238 686 275 697 c 0,5,6
 280 698 280 698 282.5 697.5 c 128,-1,7
 285 697 285 697 285 691 c 0,8,9
 285 687 285 687 285.5 680.5 c 128,-1,10
 286 674 286 674 285 669 c 0,11,12
 285 644 285 644 279.5 631 c 128,-1,13
 274 618 274 618 266.5 611.5 c 128,-1,14
 259 605 259 605 251 597 c 0,15,16
 191 536 191 536 163.5 459.5 c 128,-1,17
 136 383 136 383 136 276 c 0,18,19
 136 170 136 170 163.5 93 c 128,-1,20
 191 16 191 16 251 -44 c 0,21,22
 259 -51 259 -51 266.5 -58 c 128,-1,23
 274 -65 274 -65 279.5 -78 c 128,-1,24
 285 -91 285 -91 285 -117 c 0,25,26
 286 -122 286 -122 285.5 -128 c 128,-1,27
 285 -134 285 -134 285 -138 c 0,28,29
 285 -145 285 -145 282.5 -145 c 128,-1,30
 280 -145 280 -145 275 -144 c 0,31,32
 238 -133 238 -133 198 -101.5 c 128,-1,33
 158 -70 158 -70 124 -18 c 128,-1,34
 90 34 90 34 69.5 107.5 c 128,-1,35
 49 181 49 181 49 276 c 256,0,1
EndSplineSet
PairPos2: "'kern' Horizontal Kerning lookup 2 per glyph data 1" uni0632 dx=11 dy=0 dh=11 dv=0 dx=0 dy=0 dh=0 dv=0
PairPos2: "'kern' Horizontal Kerning lookup 2 per glyph data 1" uni0631 dx=11 dy=0 dh=11 dv=0 dx=0 dy=0 dh=0 dv=0
EndChar

StartChar: parenright
Encoding: 41 41 11
Width: 330
GlyphClass: 1
Flags: W
LayerCount: 2
Fore
SplineSet
281 276 m 256,0,1
 281 181 281 181 260.5 107.5 c 128,-1,2
 240 34 240 34 206 -18 c 128,-1,3
 172 -70 172 -70 132.5 -101.5 c 128,-1,4
 93 -133 93 -133 55 -144 c 0,5,6
 50 -145 50 -145 47.5 -145 c 128,-1,7
 45 -145 45 -145 45 -138 c 0,8,9
 45 -134 45 -134 44.5 -128 c 128,-1,10
 44 -122 44 -122 45 -117 c 0,11,12
 46 -91 46 -91 51 -78 c 128,-1,13
 56 -65 56 -65 63.5 -58 c 128,-1,14
 71 -51 71 -51 78 -44 c 0,15,16
 139 16 139 16 166.5 93 c 128,-1,17
 194 170 194 170 193 276 c 0,18,19
 194 383 194 383 166.5 459.5 c 128,-1,20
 139 536 139 536 78 597 c 0,21,22
 71 605 71 605 63.5 611.5 c 128,-1,23
 56 618 56 618 51 631 c 128,-1,24
 46 644 46 644 45 669 c 0,25,26
 44 674 44 674 44.5 680.5 c 128,-1,27
 45 687 45 687 45 691 c 0,28,29
 45 697 45 697 47.5 697.5 c 128,-1,30
 50 698 50 698 55 697 c 0,31,32
 93 686 93 686 132.5 654.5 c 128,-1,33
 172 623 172 623 206 570.5 c 128,-1,34
 240 518 240 518 260.5 444.5 c 128,-1,35
 281 371 281 371 281 276 c 256,0,1
EndSplineSet
PairPos2: "'kern' Horizontal Kerning lookup 2 per glyph data 1" uni0698 dx=-22 dy=0 dh=-22 dv=0 dx=0 dy=0 dh=0 dv=0
PairPos2: "'kern' Horizontal Kerning lookup 2 per glyph data 1" uni0695 dx=-33 dy=0 dh=-33 dv=0 dx=0 dy=0 dh=0 dv=0
PairPos2: "'kern' Horizontal Kerning lookup 2 per glyph data 1" uni0694 dx=-33 dy=0 dh=-33 dv=0 dx=0 dy=0 dh=0 dv=0
PairPos2: "'kern' Horizontal Kerning lookup 2 per glyph data 1" uni0691 dx=-4 dy=0 dh=-4 dv=0 dx=0 dy=0 dh=0 dv=0
PairPos2: "'kern' Horizontal Kerning lookup 2 per glyph data 1" uni0671 dx=11 dy=0 dh=11 dv=0 dx=0 dy=0 dh=0 dv=0
PairPos2: "'kern' Horizontal Kerning lookup 2 per glyph data 1" uni0632 dx=-33 dy=0 dh=-33 dv=0 dx=0 dy=0 dh=0 dv=0
PairPos2: "'kern' Horizontal Kerning lookup 2 per glyph data 1" uni0631 dx=-33 dy=0 dh=-33 dv=0 dx=0 dy=0 dh=0 dv=0
PairPos2: "'kern' Horizontal Kerning lookup 2 per glyph data 1" uni0625 dx=7 dy=0 dh=7 dv=0 dx=0 dy=0 dh=0 dv=0
PairPos2: "'kern' Horizontal Kerning lookup 2 per glyph data 1" uni0623 dx=9 dy=0 dh=9 dv=0 dx=0 dy=0 dh=0 dv=0
PairPos2: "'kern' Horizontal Kerning lookup 2 per glyph data 1" uni0622 dx=18 dy=0 dh=18 dv=0 dx=0 dy=0 dh=0 dv=0
EndChar

StartChar: asterisk
Encoding: 42 42 12
Width: 368
GlyphClass: 1
Flags: W
LayerCount: 2
Fore
SplineSet
131 368 m 1,0,-1
 37 392 l 2,1,2
 27 393 27 393 30 406 c 2,3,-1
 49 461 l 2,4,5
 53 472 53 472 62 467 c 2,6,-1
 151 431 l 1,7,-1
 144 527 l 2,8,9
 142 538 142 538 155 538 c 2,10,-1
 216 538 l 2,11,12
 227 538 227 538 226 527 c 2,13,-1
 220 431 l 1,14,-1
 309 467 l 2,15,16
 319 470 319 470 321 461 c 2,17,-1
 340 406 l 2,18,19
 342 393 342 393 334 392 c 2,20,-1
 241 368 l 1,21,-1
 301 292 l 2,22,23
 307 284 307 284 300 278 c 2,24,-1
 252 245 l 2,25,26
 243 239 243 239 237 247 c 2,27,-1
 185 331 l 1,28,-1
 134 247 l 2,29,30
 128 238 128 238 119 245 c 2,31,-1
 72 278 l 2,32,33
 63 284 63 284 69 292 c 2,34,-1
 131 368 l 1,0,-1
EndSplineSet
EndChar

StartChar: plus
Encoding: 43 43 13
Width: 418
GlyphClass: 1
Flags: W
LayerCount: 2
Fore
SplineSet
166 231 m 1,0,-1
 44 231 l 2,1,2
 33 231 33 231 33 242 c 2,3,-1
 33 299 l 2,4,5
 33 311 33 311 44 311 c 2,6,-1
 166 311 l 1,7,-1
 166 446 l 2,8,9
 166 457 166 457 177 457 c 0,10,11
 218 457 218 457 235 440.5 c 128,-1,12
 252 424 252 424 252 383 c 2,13,-1
 252 311 l 1,14,-1
 374 311 l 2,15,16
 385 311 385 311 385 299 c 2,17,-1
 385 242 l 2,18,19
 385 231 385 231 374 231 c 2,20,-1
 252 231 l 1,21,-1
 252 96 l 2,22,23
 252 86 252 86 241 86 c 2,24,-1
 177 86 l 2,25,26
 166 86 166 86 166 96 c 2,27,-1
 166 231 l 1,0,-1
EndSplineSet
EndChar

StartChar: comma
Encoding: 44 44 14
Width: 162
GlyphClass: 1
Flags: W
LayerCount: 2
Fore
SplineSet
71 -9 m 1,0,1
 50 -5 50 -5 36 11.5 c 128,-1,2
 22 28 22 28 22 51 c 0,3,4
 22 77 22 77 39 94 c 128,-1,5
 56 111 56 111 81 111 c 0,6,7
 107 111 107 111 123.5 95 c 128,-1,8
 140 79 140 79 140 50 c 0,9,10
 140 3 140 3 117 -32 c 128,-1,11
 94 -67 94 -67 58 -96 c 0,12,13
 54 -99 54 -99 51 -98 c 128,-1,14
 48 -97 48 -97 46 -96 c 0,15,16
 25 -75 25 -75 45 -53 c 0,17,18
 53 -45 53 -45 61 -33.5 c 128,-1,19
 69 -22 69 -22 71 -9 c 1,0,1
EndSplineSet
EndChar

StartChar: hyphen
Encoding: 45 45 15
Width: 297
GlyphClass: 1
Flags: W
LayerCount: 2
Fore
SplineSet
44 158 m 2,0,1
 33 158 33 158 33 169 c 2,2,-1
 33 238 l 2,3,4
 33 249 33 249 44 249 c 2,5,-1
 254 249 l 2,6,7
 265 249 265 249 265 238 c 2,8,-1
 265 169 l 2,9,10
 265 158 265 158 254 158 c 2,11,-1
 44 158 l 2,0,1
EndSplineSet
EndChar

StartChar: period
Encoding: 46 46 16
Width: 192
GlyphClass: 1
Flags: W
LayerCount: 2
Fore
SplineSet
96 112 m 256,0,1
 121 112 121 112 139 93.5 c 128,-1,2
 157 75 157 75 157 49 c 0,3,4
 157 24 157 24 139 5.5 c 128,-1,5
 121 -13 121 -13 96 -13 c 256,6,7
 71 -13 71 -13 53 5.5 c 128,-1,8
 35 24 35 24 35 49 c 0,9,10
 35 75 35 75 53 93.5 c 128,-1,11
 71 112 71 112 96 112 c 256,0,1
EndSplineSet
PairPos2: "'kern' Horizontal Kerning lookup 1 subtable" quotedblright dx=0 dy=0 dh=-3 dv=0 dx=0 dy=0 dh=0 dv=0
PairPos2: "'kern' Horizontal Kerning lookup 1 subtable" quoteright dx=0 dy=0 dh=-3 dv=0 dx=0 dy=0 dh=0 dv=0
EndChar

StartChar: slash
Encoding: 47 47 17
Width: 299
GlyphClass: 1
Flags: W
LayerCount: 2
Fore
SplineSet
9 0 m 2,0,1
 3 0 3 0 2 3.5 c 128,-1,2
 1 7 1 7 2 11 c 2,3,-1
 228 544 l 2,4,5
 233 556 233 556 245 556 c 2,6,-1
 257 556 l 2,7,8
 286 556 286 556 296 534.5 c 128,-1,9
 306 513 306 513 292 482 c 2,10,-1
 93 11 l 2,11,12
 90 0 90 0 77 0 c 2,13,-1
 9 0 l 2,0,1
EndSplineSet
EndChar

StartChar: zero
Encoding: 48 48 18
Width: 502
GlyphClass: 1
Flags: W
LayerCount: 2
Fore
SplineSet
251 -10 m 0,0,1
 149 -10 149 -10 95.5 64.5 c 128,-1,2
 42 139 42 139 42 278 c 256,3,4
 42 417 42 417 96.5 491.5 c 128,-1,5
 151 566 151 566 251 566 c 0,6,7
 350 566 350 566 405 491.5 c 128,-1,8
 460 417 460 417 460 278 c 256,9,10
 460 139 460 139 406 64.5 c 128,-1,11
 352 -10 352 -10 251 -10 c 0,0,1
251 82 m 0,12,13
 305 82 305 82 334 125.5 c 128,-1,14
 363 169 363 169 363 278 c 256,15,16
 363 387 363 387 333.5 430.5 c 128,-1,17
 304 474 304 474 251 474 c 256,18,19
 198 474 198 474 169 430.5 c 128,-1,20
 140 387 140 387 140 278 c 256,21,22
 140 169 140 169 169 125.5 c 128,-1,23
 198 82 198 82 251 82 c 0,12,13
EndSplineSet
Substitution2: "'lnum' Lining Figures lookup 7 subtable" zero.tab
Substitution2: "'aalt' Access All Alternates lookup 0 subtable" zero.tab
EndChar

StartChar: one
Encoding: 49 49 19
Width: 363
GlyphClass: 1
Flags: W
LayerCount: 2
Fore
SplineSet
136 89 m 1,0,-1
 136 461 l 1,1,-1
 44 428 l 2,2,3
 32 424 32 424 32 436 c 2,4,-1
 32 507 l 2,5,6
 32 520 32 520 45 526 c 2,7,-1
 102 546 l 2,8,9
 114 550 114 550 127 553 c 128,-1,10
 140 556 140 556 153 556 c 2,11,-1
 173 556 l 2,12,13
 203 556 203 556 218 539.5 c 128,-1,14
 233 523 233 523 233 494 c 2,15,-1
 233 89 l 1,16,-1
 285 89 l 2,17,18
 344 89 344 89 344 34 c 2,19,-1
 344 14 l 2,20,21
 344 0 344 0 330 0 c 2,22,-1
 42 0 l 2,23,24
 31 0 31 0 31 11 c 2,25,-1
 31 78 l 2,26,27
 31 89 31 89 42 89 c 2,28,-1
 136 89 l 1,0,-1
EndSplineSet
Substitution2: "'lnum' Lining Figures lookup 7 subtable" one.tab
Substitution2: "'sups' Superscript lookup 3 subtable" onesuperior
AlternateSubs2: "'aalt' Access All Alternates lookup 1 subtable" onesuperior one.tab
EndChar

StartChar: two
Encoding: 50 50 20
Width: 456
GlyphClass: 1
Flags: W
LayerCount: 2
Fore
SplineSet
150 89 m 1,0,-1
 355 89 l 2,1,2
 413 89 413 89 413 35 c 2,3,-1
 413 14 l 2,4,5
 413 0 413 0 400 0 c 2,6,-1
 43 0 l 2,7,8
 32 0 32 0 32 11 c 0,9,10
 32 76 32 76 52 120.5 c 128,-1,11
 72 165 72 165 103.5 195.5 c 128,-1,12
 135 226 135 226 170.5 248.5 c 128,-1,13
 206 271 206 271 237.5 292 c 128,-1,14
 269 313 269 313 289 339 c 128,-1,15
 309 365 309 365 309 403 c 0,16,17
 309 440 309 440 284 459.5 c 128,-1,18
 259 479 259 479 215 479 c 0,19,20
 178 479 178 479 145.5 468.5 c 128,-1,21
 113 458 113 458 81 441 c 0,22,23
 74 437 74 437 69 437 c 0,24,25
 61 437 61 437 60 444 c 2,26,-1
 51 467 l 2,27,28
 44 494 44 494 52.5 512.5 c 128,-1,29
 61 531 61 531 91 542 c 0,30,31
 120 553 120 553 152 559.5 c 128,-1,32
 184 566 184 566 224 566 c 0,33,34
 304 566 304 566 356 526.5 c 128,-1,35
 408 487 408 487 408 408 c 0,36,37
 408 362 408 362 390.5 327.5 c 128,-1,38
 373 293 373 293 344.5 266.5 c 128,-1,39
 316 240 316 240 284 218.5 c 128,-1,40
 252 197 252 197 223 177 c 128,-1,41
 194 157 194 157 174 136 c 128,-1,42
 154 115 154 115 150 89 c 1,0,-1
EndSplineSet
Substitution2: "'lnum' Lining Figures lookup 7 subtable" two.tab
Substitution2: "'sups' Superscript lookup 3 subtable" twosuperior
AlternateSubs2: "'aalt' Access All Alternates lookup 1 subtable" twosuperior two.tab
EndChar

StartChar: three
Encoding: 51 51 21
Width: 447
GlyphClass: 1
Flags: W
LayerCount: 2
Fore
SplineSet
309 291 m 1,0,1
 354 278 354 278 382 246.5 c 128,-1,2
 410 215 410 215 410 162 c 0,3,4
 410 87 410 87 356 38.5 c 128,-1,5
 302 -10 302 -10 210 -10 c 0,6,7
 145 -10 145 -10 103 12.5 c 128,-1,8
 61 35 61 35 41 67 c 128,-1,9
 21 99 21 99 21 126 c 0,10,11
 21 150 21 150 37 150 c 0,12,13
 42 150 42 150 45.5 148.5 c 128,-1,14
 49 147 49 147 54 141 c 0,15,16
 80 115 80 115 115 96 c 128,-1,17
 150 77 150 77 202 77 c 0,18,19
 253 77 253 77 283 100.5 c 128,-1,20
 313 124 313 124 313 165 c 256,21,22
 313 206 313 206 284.5 224 c 128,-1,23
 256 242 256 242 215 242 c 2,24,-1
 155 242 l 2,25,26
 127 242 127 242 113.5 252.5 c 128,-1,27
 100 263 100 263 100 289 c 2,28,-1
 100 314 l 2,29,30
 100 329 100 329 114 329 c 2,31,-1
 207 329 l 2,32,33
 253 329 253 329 273.5 350 c 128,-1,34
 294 371 294 371 294 407 c 0,35,36
 294 444 294 444 269.5 462.5 c 128,-1,37
 245 481 245 481 203 481 c 0,38,39
 163 481 163 481 131.5 470.5 c 128,-1,40
 100 460 100 460 71 443 c 0,41,42
 64 437 64 437 57 437 c 0,43,44
 51 437 51 437 48 446 c 2,45,-1
 40 467 l 2,46,47
 22 520 22 520 80 542 c 0,48,49
 106 553 106 553 138.5 559.5 c 128,-1,50
 171 566 171 566 209 566 c 0,51,52
 261 566 261 566 302.5 549.5 c 128,-1,53
 344 533 344 533 368.5 500 c 128,-1,54
 393 467 393 467 393 417 c 0,55,56
 393 375 393 375 370 341.5 c 128,-1,57
 347 308 347 308 309 291 c 1,0,1
EndSplineSet
Substitution2: "'lnum' Lining Figures lookup 7 subtable" three.tab
Substitution2: "'sups' Superscript lookup 3 subtable" threesuperior
AlternateSubs2: "'aalt' Access All Alternates lookup 1 subtable" threesuperior three.tab
EndChar

StartChar: four
Encoding: 52 52 22
Width: 481
GlyphClass: 1
Flags: W
LayerCount: 2
Fore
SplineSet
276 118 m 1,0,-1
 24 118 l 2,1,2
 13 118 13 118 13 129 c 2,3,-1
 13 182 l 2,4,5
 13 192 13 192 15 197.5 c 128,-1,6
 17 203 17 203 23 213 c 2,7,-1
 230 533 l 2,8,9
 236 543 236 543 245 549.5 c 128,-1,10
 254 556 254 556 270 556 c 2,11,-1
 313 556 l 2,12,13
 372 556 372 556 372 497 c 2,14,-1
 372 207 l 1,15,-1
 404 207 l 2,16,17
 461 207 461 207 461 151 c 2,18,-1
 461 132 l 2,19,20
 461 118 461 118 448 118 c 2,21,-1
 372 118 l 1,22,-1
 372 11 l 2,23,24
 372 0 372 0 362 0 c 2,25,-1
 286 0 l 2,26,27
 276 0 276 0 276 11 c 2,28,-1
 276 118 l 1,0,-1
117 207 m 1,29,-1
 276 207 l 1,30,-1
 276 448 l 1,31,-1
 117 207 l 1,29,-1
EndSplineSet
Substitution2: "'lnum' Lining Figures lookup 7 subtable" four.tab
Substitution2: "'aalt' Access All Alternates lookup 0 subtable" four.tab
EndChar

StartChar: five
Encoding: 53 53 23
Width: 456
GlyphClass: 1
Flags: W
LayerCount: 2
Fore
SplineSet
144 467 m 1,0,-1
 144 349 l 1,1,2
 160 353 160 353 181.5 357 c 128,-1,3
 203 361 203 361 232 361 c 0,4,5
 320 361 320 361 369.5 313.5 c 128,-1,6
 419 266 419 266 419 185 c 0,7,8
 419 125 419 125 391.5 81.5 c 128,-1,9
 364 38 364 38 318 14 c 128,-1,10
 272 -10 272 -10 215 -10 c 0,11,12
 156 -10 156 -10 113.5 10 c 128,-1,13
 71 30 71 30 48.5 60.5 c 128,-1,14
 26 91 26 91 26 123 c 0,15,16
 26 148 26 148 42 148 c 0,17,18
 50 148 50 148 59 138 c 0,19,20
 84 113 84 113 119.5 95 c 128,-1,21
 155 77 155 77 205 77 c 0,22,23
 261 77 261 77 291.5 104.5 c 128,-1,24
 322 132 322 132 322 181 c 0,25,26
 322 228 322 228 291 252 c 128,-1,27
 260 276 260 276 209 276 c 0,28,29
 165 276 165 276 128.5 268.5 c 128,-1,30
 92 261 92 261 65 252 c 0,31,32
 51 247 51 247 51 261 c 2,33,-1
 51 544 l 2,34,35
 51 556 51 556 61 556 c 2,36,-1
 329 556 l 2,37,38
 388 556 388 556 388 499 c 2,39,-1
 388 481 l 2,40,41
 388 467 388 467 373 467 c 2,42,-1
 144 467 l 1,0,-1
EndSplineSet
Substitution2: "'lnum' Lining Figures lookup 7 subtable" five.tab
Substitution2: "'aalt' Access All Alternates lookup 0 subtable" five.tab
EndChar

StartChar: six
Encoding: 54 54 24
Width: 474
GlyphClass: 1
Flags: W
LayerCount: 2
Fore
SplineSet
215 367 m 1,0,1
 226 370 226 370 236 372 c 128,-1,2
 246 374 246 374 260 374 c 0,3,4
 317 374 317 374 358 348 c 128,-1,5
 399 322 399 322 421.5 280.5 c 128,-1,6
 444 239 444 239 444 192 c 0,7,8
 444 133 444 133 419 87 c 128,-1,9
 394 41 394 41 349 15.5 c 128,-1,10
 304 -10 304 -10 244 -10 c 256,11,12
 184 -10 184 -10 137 14.5 c 128,-1,13
 90 39 90 39 63.5 82 c 128,-1,14
 37 125 37 125 37 180 c 0,15,16
 37 223 37 223 54 264 c 128,-1,17
 71 305 71 305 105 363 c 2,18,-1
 223 556 l 2,19,20
 230 566 230 566 240 566 c 0,21,22
 273 566 273 566 285.5 534.5 c 128,-1,23
 298 503 298 503 274 462 c 2,24,-1
 215 367 l 1,0,1
134 183 m 256,25,26
 134 136 134 136 163.5 106.5 c 128,-1,27
 193 77 193 77 243 77 c 0,28,29
 290 77 290 77 319 107 c 128,-1,30
 348 137 348 137 348 183 c 0,31,32
 348 230 348 230 318.5 261 c 128,-1,33
 289 292 289 292 241 292 c 0,34,35
 194 292 194 292 164 261 c 128,-1,36
 134 230 134 230 134 183 c 256,25,26
EndSplineSet
Substitution2: "'lnum' Lining Figures lookup 7 subtable" six.tab
Substitution2: "'aalt' Access All Alternates lookup 0 subtable" six.tab
EndChar

StartChar: seven
Encoding: 55 55 25
Width: 421
GlyphClass: 1
Flags: W
LayerCount: 2
Fore
SplineSet
285 467 m 1,0,-1
 34 467 l 2,1,2
 23 467 23 467 23 477 c 2,3,-1
 23 544 l 2,4,5
 23 556 23 556 34 556 c 2,6,-1
 329 556 l 2,7,8
 387 556 387 556 387 499 c 2,9,-1
 387 487 l 2,10,11
 387 472 387 472 384.5 462 c 128,-1,12
 382 452 382 452 375 437 c 2,13,-1
 183 12 l 2,14,15
 178 0 178 0 165 0 c 2,16,-1
 85 0 l 2,17,18
 81 0 81 0 79.5 3.5 c 128,-1,19
 78 7 78 7 79 11 c 2,20,-1
 285 467 l 1,0,-1
EndSplineSet
Substitution2: "'lnum' Lining Figures lookup 7 subtable" seven.tab
Substitution2: "'aalt' Access All Alternates lookup 0 subtable" seven.tab
EndChar

StartChar: eight
Encoding: 56 56 26
Width: 476
GlyphClass: 1
Flags: W
LayerCount: 2
Fore
SplineSet
131 292 m 1,0,1
 95 309 95 309 70.5 339.5 c 128,-1,2
 46 370 46 370 46 419 c 0,3,4
 46 488 46 488 100.5 527 c 128,-1,5
 155 566 155 566 239 566 c 0,6,7
 294 566 294 566 337 548.5 c 128,-1,8
 380 531 380 531 405 498 c 128,-1,9
 430 465 430 465 430 419 c 0,10,11
 430 370 430 370 405.5 339.5 c 128,-1,12
 381 309 381 309 344 292 c 1,13,14
 397 274 397 274 421 237.5 c 128,-1,15
 445 201 445 201 445 157 c 0,16,17
 445 86 445 86 391 38 c 128,-1,18
 337 -10 337 -10 239 -10 c 0,19,20
 139 -10 139 -10 85 38 c 128,-1,21
 31 86 31 86 31 157 c 0,22,23
 31 201 31 201 55 237.5 c 128,-1,24
 79 274 79 274 131 292 c 1,0,1
140 408 m 0,25,26
 140 374 140 374 165.5 351.5 c 128,-1,27
 191 329 191 329 239 329 c 0,28,29
 284 329 284 329 309.5 351.5 c 128,-1,30
 335 374 335 374 335 408 c 0,31,32
 335 445 335 445 309 466 c 128,-1,33
 283 487 283 487 239 487 c 0,34,35
 194 487 194 487 167 466 c 128,-1,36
 140 445 140 445 140 408 c 0,25,26
128 158 m 0,37,38
 128 120 128 120 157.5 95 c 128,-1,39
 187 70 187 70 239 70 c 0,40,41
 290 70 290 70 319 95 c 128,-1,42
 348 120 348 120 348 158 c 0,43,44
 348 202 348 202 317.5 226 c 128,-1,45
 287 250 287 250 239 250 c 0,46,47
 190 250 190 250 159 226 c 128,-1,48
 128 202 128 202 128 158 c 0,37,38
EndSplineSet
Substitution2: "'lnum' Lining Figures lookup 7 subtable" eight.tab
Substitution2: "'aalt' Access All Alternates lookup 0 subtable" eight.tab
EndChar

StartChar: nine
Encoding: 57 57 27
Width: 474
GlyphClass: 1
Flags: W
LayerCount: 2
Fore
SplineSet
262 191 m 1,0,1
 249 187 249 187 237.5 184 c 128,-1,2
 226 181 226 181 213 181 c 0,3,4
 157 181 157 181 116 206.5 c 128,-1,5
 75 232 75 232 53 273.5 c 128,-1,6
 31 315 31 315 31 362 c 0,7,8
 31 423 31 423 57 468.5 c 128,-1,9
 83 514 83 514 129.5 540 c 128,-1,10
 176 566 176 566 235 566 c 0,11,12
 295 566 295 566 340.5 542 c 128,-1,13
 386 518 386 518 412 475 c 128,-1,14
 438 432 438 432 438 376 c 0,15,16
 438 333 438 333 422 292.5 c 128,-1,17
 406 252 406 252 369 193 c 2,18,-1
 254 2 l 2,19,20
 247 -10 247 -10 235 -10 c 0,21,22
 212 -10 212 -10 199 5 c 128,-1,23
 186 20 186 20 186 43.5 c 128,-1,24
 186 67 186 67 202 92 c 2,25,-1
 262 191 l 1,0,1
234 264 m 0,26,27
 281 264 281 264 310.5 294.5 c 128,-1,28
 340 325 340 325 340 373 c 0,29,30
 340 420 340 420 311.5 449 c 128,-1,31
 283 478 283 478 234 478 c 0,32,33
 186 478 186 478 156.5 448.5 c 128,-1,34
 127 419 127 419 127 373 c 0,35,36
 127 324 127 324 156 294 c 128,-1,37
 185 264 185 264 234 264 c 0,26,27
EndSplineSet
Substitution2: "'lnum' Lining Figures lookup 7 subtable" nine.tab
Substitution2: "'aalt' Access All Alternates lookup 0 subtable" nine.tab
EndChar

StartChar: colon
Encoding: 58 58 28
Width: 198
GlyphClass: 1
Flags: W
LayerCount: 2
Fore
SplineSet
99 329 m 0,0,1
 125 329 125 329 142.5 311 c 128,-1,2
 160 293 160 293 160 267 c 0,3,4
 160 242 160 242 142.5 223.5 c 128,-1,5
 125 205 125 205 99 205 c 0,6,7
 74 205 74 205 56 223.5 c 128,-1,8
 38 242 38 242 38 267 c 0,9,10
 38 293 38 293 56 311 c 128,-1,11
 74 329 74 329 99 329 c 0,0,1
99 112 m 0,12,13
 125 112 125 112 142.5 93.5 c 128,-1,14
 160 75 160 75 160 49 c 0,15,16
 160 24 160 24 142.5 5.5 c 128,-1,17
 125 -13 125 -13 99 -13 c 0,18,19
 74 -13 74 -13 56 5.5 c 128,-1,20
 38 24 38 24 38 49 c 0,21,22
 38 75 38 75 56 93.5 c 128,-1,23
 74 112 74 112 99 112 c 0,12,13
EndSplineSet
EndChar

StartChar: semicolon
Encoding: 59 59 29
Width: 182
GlyphClass: 1
Flags: W
LayerCount: 2
Fore
SplineSet
91 219 m 0,0,1
 66 219 66 219 49 236.5 c 128,-1,2
 32 254 32 254 32 279 c 0,3,4
 32 305 32 305 49 322 c 128,-1,5
 66 339 66 339 91 339 c 0,6,7
 117 339 117 339 133.5 322 c 128,-1,8
 150 305 150 305 150 279 c 0,9,10
 150 254 150 254 133.5 236.5 c 128,-1,11
 117 219 117 219 91 219 c 0,0,1
81 -9 m 1,12,13
 60 -5 60 -5 46 11.5 c 128,-1,14
 32 28 32 28 32 51 c 0,15,16
 32 77 32 77 49 94 c 128,-1,17
 66 111 66 111 91 111 c 0,18,19
 117 111 117 111 133.5 95 c 128,-1,20
 150 79 150 79 150 50 c 0,21,22
 150 3 150 3 127 -32 c 128,-1,23
 104 -67 104 -67 68 -96 c 0,24,25
 64 -99 64 -99 61 -98 c 128,-1,26
 58 -97 58 -97 56 -96 c 0,27,28
 35 -75 35 -75 55 -53 c 0,29,30
 63 -45 63 -45 71 -33.5 c 128,-1,31
 79 -22 79 -22 81 -9 c 1,12,13
EndSplineSet
EndChar

StartChar: less
Encoding: 60 60 30
Width: 452
GlyphClass: 1
Flags: W
LayerCount: 2
Fore
SplineSet
150 271 m 1,0,-1
 345 189 l 2,1,2
 385 173 385 173 399 149 c 128,-1,3
 413 125 413 125 413 86 c 2,4,-1
 413 83 l 2,5,6
 413 71 413 71 402 76 c 2,7,-1
 44 230 l 2,8,9
 33 236 33 236 33 248 c 2,10,-1
 33 293 l 2,11,12
 33 305 33 305 44 309 c 2,13,-1
 400 462 l 2,14,15
 413 466 413 466 413 457 c 2,16,-1
 413 393 l 2,17,18
 413 380 413 380 398 373 c 2,19,-1
 150 271 l 1,0,-1
EndSplineSet
EndChar

StartChar: equal
Encoding: 61 61 31
Width: 418
GlyphClass: 1
Flags: W
LayerCount: 2
Fore
SplineSet
44 319 m 2,0,1
 33 319 33 319 33 329 c 2,2,-1
 33 389 l 2,3,4
 33 399 33 399 44 399 c 2,5,-1
 324 399 l 2,6,7
 354 399 354 399 369.5 384 c 128,-1,8
 385 369 385 369 385 343 c 2,9,-1
 385 329 l 2,10,11
 385 319 385 319 374 319 c 2,12,-1
 44 319 l 2,0,1
44 140 m 2,13,14
 33 140 33 140 33 151 c 2,15,-1
 33 210 l 2,16,17
 33 221 33 221 44 221 c 2,18,-1
 324 221 l 2,19,20
 354 221 354 221 369.5 205.5 c 128,-1,21
 385 190 385 190 385 163 c 2,22,-1
 385 151 l 2,23,24
 385 140 385 140 374 140 c 2,25,-1
 44 140 l 2,13,14
EndSplineSet
EndChar

StartChar: greater
Encoding: 62 62 32
Width: 452
GlyphClass: 1
Flags: W
LayerCount: 2
Fore
SplineSet
301 271 m 1,0,-1
 54 373 l 2,1,2
 39 380 39 380 39 393 c 2,3,-1
 39 457 l 2,4,5
 39 465 39 465 51 462 c 2,6,-1
 408 309 l 2,7,8
 418 305 418 305 418 293 c 2,9,-1
 418 248 l 2,10,11
 418 234 418 234 408 230 c 2,12,-1
 49 76 l 2,13,14
 39 71 39 71 39 83 c 2,15,-1
 39 86 l 2,16,17
 39 125 39 125 53 149 c 128,-1,18
 67 173 67 173 106 189 c 2,19,-1
 301 271 l 1,0,-1
EndSplineSet
EndChar

StartChar: question
Encoding: 63 63 33
Width: 398
GlyphClass: 1
Flags: W
LayerCount: 2
Fore
SplineSet
135 166 m 2,0,-1
 135 199 l 2,1,2
 135 228 135 228 149 249 c 128,-1,3
 163 270 163 270 183.5 287 c 128,-1,4
 204 304 204 304 224 320.5 c 128,-1,5
 244 337 244 337 258 357 c 128,-1,6
 272 377 272 377 272 404 c 0,7,8
 272 439 272 439 249 458 c 128,-1,9
 226 477 226 477 185 477 c 0,10,11
 148 477 148 477 118.5 468.5 c 128,-1,12
 89 460 89 460 55 441 c 0,13,14
 48 436 48 436 42 436 c 0,15,16
 35 436 35 436 32 444 c 2,17,-1
 25 467 l 2,18,19
 17 493 17 493 25.5 510.5 c 128,-1,20
 34 528 34 528 65 541 c 0,21,22
 91 552 91 552 120 559 c 128,-1,23
 149 566 149 566 187 566 c 0,24,25
 268 566 268 566 320 529 c 128,-1,26
 372 492 372 492 372 418 c 0,27,28
 372 376 372 376 354 343 c 128,-1,29
 336 310 336 310 305.5 282 c 128,-1,30
 275 254 275 254 235 224 c 0,31,32
 223 215 223 215 219.5 207 c 128,-1,33
 216 199 216 199 216 187 c 2,34,-1
 216 166 l 2,35,36
 216 155 216 155 206 155 c 2,37,-1
 146 155 l 2,38,39
 135 155 135 155 135 166 c 2,0,-1
177 -10 m 256,40,41
 152 -10 152 -10 134.5 7.5 c 128,-1,42
 117 25 117 25 117 51 c 256,43,44
 117 77 117 77 134.5 94 c 128,-1,45
 152 111 152 111 177 111 c 256,46,47
 202 111 202 111 219 94 c 128,-1,48
 236 77 236 77 236 51 c 256,49,50
 236 25 236 25 219 7.5 c 128,-1,51
 202 -10 202 -10 177 -10 c 256,40,41
EndSplineSet
EndChar

StartChar: at
Encoding: 64 64 34
Width: 763
GlyphClass: 1
Flags: W
LayerCount: 2
Fore
SplineSet
461 98 m 1,0,1
 448 76 448 76 419.5 53.5 c 128,-1,2
 391 31 391 31 341 31 c 0,3,4
 300 31 300 31 265.5 53 c 128,-1,5
 231 75 231 75 211 116.5 c 128,-1,6
 191 158 191 158 191 214 c 0,7,8
 191 267 191 267 214 311 c 128,-1,9
 237 355 237 355 277.5 381.5 c 128,-1,10
 318 408 318 408 368 408 c 0,11,12
 409 408 409 408 436.5 390.5 c 128,-1,13
 464 373 464 373 477 349 c 1,14,15
 485 377 485 377 503.5 389 c 128,-1,16
 522 401 522 401 550 401 c 2,17,-1
 553 401 l 2,18,19
 564 401 564 401 562 389 c 2,20,-1
 541 163 l 2,21,22
 540 155 540 155 539 146.5 c 128,-1,23
 538 138 538 138 538 132 c 0,24,25
 538 107 538 107 561 107 c 0,26,27
 592 107 592 107 617 144.5 c 128,-1,28
 642 182 642 182 642 262 c 0,29,30
 642 338 642 338 610.5 389 c 128,-1,31
 579 440 579 440 523 466.5 c 128,-1,32
 467 493 467 493 393 493 c 0,33,34
 315 493 315 493 254 457 c 128,-1,35
 193 421 193 421 158.5 359.5 c 128,-1,36
 124 298 124 298 124 221 c 0,37,38
 124 131 124 131 160 67.5 c 128,-1,39
 196 4 196 4 260 -29 c 128,-1,40
 324 -62 324 -62 406 -62 c 0,41,42
 486 -62 486 -62 536.5 -42.5 c 128,-1,43
 587 -23 587 -23 620 1 c 0,44,45
 630 9 630 9 636 9 c 0,46,47
 645 9 645 9 645 -3 c 0,48,49
 645 -19 645 -19 629 -41.5 c 128,-1,50
 613 -64 613 -64 582 -86 c 128,-1,51
 551 -108 551 -108 505 -122.5 c 128,-1,52
 459 -137 459 -137 398 -137 c 0,53,54
 290 -137 290 -137 209.5 -92.5 c 128,-1,55
 129 -48 129 -48 84 32 c 128,-1,56
 39 112 39 112 39 220 c 0,57,58
 39 294 39 294 66.5 357 c 128,-1,59
 94 420 94 420 143 467.5 c 128,-1,60
 192 515 192 515 256.5 541.5 c 128,-1,61
 321 568 321 568 395 568 c 0,62,63
 461 568 461 568 520 548 c 128,-1,64
 579 528 579 528 625.5 489 c 128,-1,65
 672 450 672 450 698.5 394.5 c 128,-1,66
 725 339 725 339 725 267 c 0,67,68
 725 201 725 201 701 148 c 128,-1,69
 677 95 677 95 635 63.5 c 128,-1,70
 593 32 593 32 540 32 c 0,71,72
 501 32 501 32 481.5 55 c 128,-1,73
 462 78 462 78 461 98 c 1,0,1
363 114 m 0,74,75
 410 114 410 114 435 149 c 128,-1,76
 460 184 460 184 460 239 c 0,77,78
 460 277 460 277 439.5 300.5 c 128,-1,79
 419 324 419 324 381 324 c 0,80,81
 336 324 336 324 309.5 291 c 128,-1,82
 283 258 283 258 283 208 c 0,83,84
 283 169 283 169 303.5 141.5 c 128,-1,85
 324 114 324 114 363 114 c 0,74,75
EndSplineSet
EndChar

StartChar: A
Encoding: 65 65 35
Width: 521
GlyphClass: 1
Flags: W
LayerCount: 2
Fore
SplineSet
154 140 m 1,0,-1
 109 13 l 2,1,2
 105 0 105 0 94 0 c 2,3,-1
 17 0 l 2,4,5
 12 0 12 0 10 3.5 c 128,-1,6
 8 7 8 7 9 11 c 2,7,-1
 203 546 l 2,8,9
 206 556 206 556 215 556 c 2,10,-1
 248 556 l 2,11,12
 284 556 284 556 304 541 c 128,-1,13
 324 526 324 526 340 482 c 2,14,-1
 511 11 l 2,15,16
 513 7 513 7 511 3.5 c 128,-1,17
 509 0 509 0 504 0 c 2,18,-1
 425 0 l 2,19,20
 410 0 410 0 406 13 c 2,21,-1
 361 140 l 1,22,-1
 154 140 l 1,0,-1
184 223 m 1,23,-1
 333 223 l 1,24,-1
 258 438 l 1,25,-1
 184 223 l 1,23,-1
EndSplineSet
Substitution2: "Single Substitution lookup 2 subtable" ordfeminine
EndChar

StartChar: B
Encoding: 66 66 36
Width: 486
GlyphClass: 1
Flags: W
LayerCount: 2
Fore
SplineSet
352 289 m 1,0,1
 399 278 399 278 429 242.5 c 128,-1,2
 459 207 459 207 459 157 c 0,3,4
 459 83 459 83 413 41.5 c 128,-1,5
 367 0 367 0 276 0 c 2,6,-1
 68 0 l 2,7,8
 57 0 57 0 57 11 c 2,9,-1
 57 544 l 2,10,11
 57 556 57 556 68 556 c 2,12,-1
 259 556 l 2,13,14
 345 556 345 556 391.5 518 c 128,-1,15
 438 480 438 480 438 412 c 0,16,17
 438 359 438 359 411 331 c 128,-1,18
 384 303 384 303 352 289 c 1,0,1
155 332 m 1,19,-1
 268 332 l 2,20,21
 307 332 307 332 323.5 353 c 128,-1,22
 340 374 340 374 340 403 c 0,23,24
 340 433 340 433 321.5 451 c 128,-1,25
 303 469 303 469 263 469 c 2,26,-1
 155 469 l 1,27,-1
 155 332 l 1,19,-1
155 86 m 1,28,-1
 265 86 l 2,29,30
 284 86 284 86 305.5 90.5 c 128,-1,31
 327 95 327 95 342.5 112 c 128,-1,32
 358 129 358 129 358 167 c 0,33,34
 358 201 358 201 336 225 c 128,-1,35
 314 249 314 249 266 249 c 2,36,-1
 155 249 l 1,37,-1
 155 86 l 1,28,-1
EndSplineSet
EndChar

StartChar: C
Encoding: 67 67 37
Width: 511
GlyphClass: 1
Flags: W
LayerCount: 2
Fore
SplineSet
301 -10 m 0,0,1
 224 -10 224 -10 166 24.5 c 128,-1,2
 108 59 108 59 76 123 c 128,-1,3
 44 187 44 187 44 276 c 0,4,5
 44 367 44 367 78 431.5 c 128,-1,6
 112 496 112 496 171.5 531 c 128,-1,7
 231 566 231 566 308 566 c 0,8,9
 349 566 349 566 380 559 c 128,-1,10
 411 552 411 552 437 541 c 0,11,12
 466 527 466 527 473.5 510 c 128,-1,13
 481 493 481 493 476 467 c 2,14,-1
 470 442 l 2,15,16
 466 431 466 431 460 431 c 0,17,18
 455 431 455 431 445 436 c 0,19,20
 414 453 414 453 383.5 462.5 c 128,-1,21
 353 472 353 472 310 472 c 0,22,23
 236 472 236 472 190 423.5 c 128,-1,24
 144 375 144 375 144 276 c 0,25,26
 144 180 144 180 191 132 c 128,-1,27
 238 84 238 84 313 84 c 0,28,29
 366 84 366 84 404 105 c 128,-1,30
 442 126 442 126 461 148 c 0,31,32
 466 154 466 154 469.5 155.5 c 128,-1,33
 473 157 473 157 477 157 c 0,34,35
 492 157 492 157 492 133 c 0,36,37
 492 116 492 116 482 92 c 128,-1,38
 472 68 472 68 449.5 44.5 c 128,-1,39
 427 21 427 21 390.5 5.5 c 128,-1,40
 354 -10 354 -10 301 -10 c 0,0,1
EndSplineSet
EndChar

StartChar: D
Encoding: 68 68 38
Width: 557
GlyphClass: 1
Flags: W
LayerCount: 2
Fore
SplineSet
68 0 m 2,0,1
 57 0 57 0 57 11 c 2,2,-1
 57 544 l 2,3,4
 57 556 57 556 68 556 c 2,5,-1
 230 556 l 2,6,7
 287 556 287 556 338 542 c 128,-1,8
 389 528 389 528 429 496.5 c 128,-1,9
 469 465 469 465 491.5 413 c 128,-1,10
 514 361 514 361 514 286 c 0,11,12
 514 186 514 186 478.5 123 c 128,-1,13
 443 60 443 60 377.5 30 c 128,-1,14
 312 0 312 0 222 0 c 2,15,-1
 68 0 l 2,0,1
155 91 m 1,16,-1
 232 91 l 2,17,18
 318 91 318 91 365.5 138.5 c 128,-1,19
 413 186 413 186 413 283 c 0,20,21
 413 384 413 384 365 424 c 128,-1,22
 317 464 317 464 228 464 c 2,23,-1
 155 464 l 1,24,-1
 155 91 l 1,16,-1
EndSplineSet
EndChar

StartChar: E
Encoding: 69 69 39
Width: 418
GlyphClass: 1
Flags: W
LayerCount: 2
Fore
SplineSet
155 91 m 1,0,-1
 334 91 l 2,1,2
 392 91 392 91 392 35 c 2,3,-1
 392 14 l 2,4,5
 392 0 392 0 379 0 c 2,6,-1
 68 0 l 2,7,8
 57 0 57 0 57 11 c 2,9,-1
 57 544 l 2,10,11
 57 556 57 556 68 556 c 2,12,-1
 326 556 l 2,13,14
 384 556 384 556 384 500 c 2,15,-1
 384 479 l 2,16,17
 384 465 384 465 370 465 c 2,18,-1
 155 465 l 1,19,-1
 155 323 l 1,20,-1
 306 323 l 2,21,22
 364 323 364 323 364 268 c 2,23,-1
 364 246 l 2,24,25
 364 232 364 232 351 232 c 2,26,-1
 155 232 l 1,27,-1
 155 91 l 1,0,-1
EndSplineSet
EndChar

StartChar: F
Encoding: 70 70 40
Width: 404
GlyphClass: 1
Flags: W
LayerCount: 2
Fore
SplineSet
155 230 m 1,0,-1
 155 11 l 2,1,2
 155 0 155 0 144 0 c 2,3,-1
 68 0 l 2,4,5
 57 0 57 0 57 11 c 2,6,-1
 57 544 l 2,7,8
 57 556 57 556 68 556 c 2,9,-1
 326 556 l 2,10,11
 384 556 384 556 384 499 c 2,12,-1
 384 478 l 2,13,14
 384 473 384 473 380.5 468.5 c 128,-1,15
 377 464 377 464 370 464 c 2,16,-1
 155 464 l 1,17,-1
 155 319 l 1,18,-1
 303 319 l 2,19,20
 362 319 362 319 362 264 c 2,21,-1
 362 244 l 2,22,23
 362 230 362 230 348 230 c 2,24,-1
 155 230 l 1,0,-1
EndSplineSet
EndChar

StartChar: G
Encoding: 71 71 41
Width: 561
GlyphClass: 1
Flags: W
LayerCount: 2
Fore
SplineSet
425 117 m 1,0,-1
 425 215 l 1,1,-1
 348 215 l 2,2,3
 290 215 290 215 290 271 c 2,4,-1
 290 289 l 2,5,6
 290 304 290 304 303 304 c 2,7,-1
 506 304 l 2,8,9
 517 304 517 304 517 291 c 2,10,-1
 517 95 l 2,11,12
 517 81 517 81 513 72.5 c 128,-1,13
 509 64 509 64 497 54 c 0,14,15
 455 21 455 21 411 5.5 c 128,-1,16
 367 -10 367 -10 312 -10 c 0,17,18
 238 -10 238 -10 177 20 c 128,-1,19
 116 50 116 50 80 114 c 128,-1,20
 44 178 44 178 44 279 c 0,21,22
 44 368 44 368 77 432.5 c 128,-1,23
 110 497 110 497 171.5 531.5 c 128,-1,24
 233 566 233 566 317 566 c 0,25,26
 359 566 359 566 391.5 559.5 c 128,-1,27
 424 553 424 553 452 542 c 0,28,29
 482 531 482 531 491 514 c 128,-1,30
 500 497 500 497 492 469 c 2,31,-1
 487 446 l 2,32,33
 484 433 484 433 476 433 c 0,34,35
 473 433 473 433 469 435.5 c 128,-1,36
 465 438 465 438 460 439 c 0,37,38
 398 473 398 473 324 473 c 0,39,40
 242 473 242 473 194.5 425.5 c 128,-1,41
 147 378 147 378 147 274 c 0,42,43
 147 183 147 183 190 132.5 c 128,-1,44
 233 82 233 82 311 82 c 0,45,46
 343 82 343 82 370 90 c 128,-1,47
 397 98 397 98 425 117 c 1,0,-1
EndSplineSet
EndChar

StartChar: H
Encoding: 72 72 42
Width: 529
GlyphClass: 1
Flags: W
LayerCount: 2
Fore
SplineSet
155 230 m 1,0,-1
 155 11 l 2,1,2
 155 0 155 0 144 0 c 2,3,-1
 68 0 l 2,4,5
 57 0 57 0 57 11 c 2,6,-1
 57 544 l 2,7,8
 57 556 57 556 68 556 c 2,9,-1
 77 556 l 2,10,11
 115 556 115 556 135 535.5 c 128,-1,12
 155 515 155 515 155 468 c 2,13,-1
 155 319 l 1,14,-1
 374 319 l 1,15,-1
 374 544 l 2,16,17
 374 556 374 556 385 556 c 2,18,-1
 394 556 l 2,19,20
 433 556 433 556 452.5 535.5 c 128,-1,21
 472 515 472 515 472 468 c 2,22,-1
 472 11 l 2,23,24
 472 0 472 0 462 0 c 2,25,-1
 385 0 l 2,26,27
 374 0 374 0 374 11 c 2,28,-1
 374 230 l 1,29,-1
 155 230 l 1,0,-1
EndSplineSet
EndChar

StartChar: I
Encoding: 73 73 43
Width: 212
GlyphClass: 1
Flags: W
LayerCount: 2
Fore
SplineSet
68 0 m 2,0,1
 57 0 57 0 57 11 c 2,2,-1
 57 544 l 2,3,4
 57 556 57 556 68 556 c 2,5,-1
 77 556 l 2,6,7
 116 556 116 556 135.5 536 c 128,-1,8
 155 516 155 516 155 469 c 2,9,-1
 155 11 l 2,10,11
 155 0 155 0 144 0 c 2,12,-1
 68 0 l 2,0,1
EndSplineSet
EndChar

StartChar: J
Encoding: 74 74 44
Width: 306
GlyphClass: 1
Flags: W
LayerCount: 2
Fore
SplineSet
26 101 m 0,0,1
 42 88 42 88 57 80 c 128,-1,2
 72 72 72 72 92 72 c 0,3,4
 153 72 153 72 153 135 c 2,5,-1
 153 544 l 2,6,7
 153 556 153 556 164 556 c 2,8,-1
 173 556 l 2,9,10
 212 556 212 556 232 535.5 c 128,-1,11
 252 515 252 515 252 468 c 2,12,-1
 252 131 l 2,13,14
 252 65 252 65 217 27.5 c 128,-1,15
 182 -10 182 -10 117 -10 c 0,16,17
 69 -10 69 -10 37 18 c 128,-1,18
 5 46 5 46 5 87 c 0,19,20
 5 104 5 104 17 104 c 0,21,22
 22 104 22 104 26 101 c 0,0,1
EndSplineSet
EndChar

StartChar: K
Encoding: 75 75 45
Width: 502
GlyphClass: 1
Flags: W
LayerCount: 2
Fore
SplineSet
155 179 m 1,0,-1
 155 11 l 2,1,2
 155 0 155 0 144 0 c 2,3,-1
 68 0 l 2,4,5
 57 0 57 0 57 11 c 2,6,-1
 57 544 l 2,7,8
 57 556 57 556 68 556 c 2,9,-1
 77 556 l 2,10,11
 115 556 115 556 135 535.5 c 128,-1,12
 155 515 155 515 155 468 c 2,13,-1
 155 304 l 1,14,-1
 356 543 l 2,15,16
 366 556 366 556 377 556 c 2,17,-1
 459 556 l 2,18,19
 464 556 464 556 465 551.5 c 128,-1,20
 466 547 466 547 463 544 c 2,21,-1
 291 339 l 1,22,-1
 489 12 l 2,23,24
 495 0 495 0 483 0 c 2,25,-1
 396 0 l 2,26,27
 383 0 383 0 376 12 c 2,28,-1
 225 262 l 1,29,-1
 155 179 l 1,0,-1
EndSplineSet
EndChar

StartChar: L
Encoding: 76 76 46
Width: 378
GlyphClass: 1
Flags: W
LayerCount: 2
Fore
SplineSet
155 91 m 1,0,-1
 303 91 l 2,1,2
 361 91 361 91 361 35 c 2,3,-1
 361 14 l 2,4,5
 361 0 361 0 348 0 c 2,6,-1
 68 0 l 2,7,8
 57 0 57 0 57 11 c 2,9,-1
 57 544 l 2,10,11
 57 556 57 556 68 556 c 2,12,-1
 77 556 l 2,13,14
 115 556 115 556 135 535.5 c 128,-1,15
 155 515 155 515 155 468 c 2,16,-1
 155 91 l 1,0,-1
EndSplineSet
EndChar

StartChar: M
Encoding: 77 77 47
Width: 643
GlyphClass: 1
Flags: W
LayerCount: 2
Fore
SplineSet
321 145 m 1,0,-1
 438 544 l 2,1,2
 440 549 440 549 443 552.5 c 128,-1,3
 446 556 446 556 452 556 c 2,4,-1
 508 556 l 2,5,6
 537 556 537 556 556.5 539 c 128,-1,7
 576 522 576 522 577 493 c 2,8,-1
 603 11 l 2,9,10
 603 0 603 0 596 0 c 2,11,-1
 517 0 l 2,12,13
 507 0 507 0 507 11 c 2,14,-1
 486 401 l 1,15,-1
 369 11 l 2,16,17
 367 0 367 0 356 0 c 2,18,-1
 282 0 l 2,19,20
 275 0 275 0 269 11 c 2,21,-1
 157 398 l 1,22,-1
 136 11 l 2,23,24
 136 0 136 0 127 0 c 2,25,-1
 49 0 l 2,26,27
 40 0 40 0 40 11 c 2,28,-1
 70 544 l 2,29,30
 70 556 70 556 80 556 c 2,31,-1
 137 556 l 2,32,33
 169 556 169 556 188 546 c 128,-1,34
 207 536 207 536 215 507 c 2,35,-1
 321 145 l 1,0,-1
EndSplineSet
EndChar

StartChar: N
Encoding: 78 78 48
Width: 533
GlyphClass: 1
Flags: W
LayerCount: 2
Fore
SplineSet
378 180 m 1,0,-1
 378 544 l 2,1,2
 378 556 378 556 389 556 c 2,3,-1
 397 556 l 2,4,5
 436 556 436 556 456 536 c 128,-1,6
 476 516 476 516 476 469 c 2,7,-1
 476 11 l 2,8,9
 476 0 476 0 465 0 c 2,10,-1
 394 0 l 2,11,12
 380 0 380 0 372 13 c 2,13,-1
 154 368 l 1,14,-1
 154 11 l 2,15,16
 154 0 154 0 143 0 c 2,17,-1
 67 0 l 2,18,19
 56 0 56 0 56 11 c 2,20,-1
 56 544 l 2,21,22
 56 556 56 556 67 556 c 2,23,-1
 97 556 l 2,24,25
 128 556 128 556 145 544.5 c 128,-1,26
 162 533 162 533 178 507 c 2,27,-1
 378 180 l 1,0,-1
EndSplineSet
EndChar

StartChar: O
Encoding: 79 79 49
Width: 607
GlyphClass: 1
Flags: W
LayerCount: 2
Fore
SplineSet
304 -10 m 256,0,1
 180 -10 180 -10 112 67.5 c 128,-1,2
 44 145 44 145 44 277 c 0,3,4
 44 365 44 365 75 430 c 128,-1,5
 106 495 106 495 164.5 530.5 c 128,-1,6
 223 566 223 566 304 566 c 0,7,8
 386 566 386 566 443.5 530.5 c 128,-1,9
 501 495 501 495 532 430 c 128,-1,10
 563 365 563 365 563 277 c 0,11,12
 563 145 563 145 495.5 67.5 c 128,-1,13
 428 -10 428 -10 304 -10 c 256,0,1
304 83 m 256,14,15
 347 83 347 83 383 100.5 c 128,-1,16
 419 118 419 118 441 160.5 c 128,-1,17
 463 203 463 203 463 277 c 256,18,19
 463 351 463 351 441 394 c 128,-1,20
 419 437 419 437 382.5 455 c 128,-1,21
 346 473 346 473 304 473 c 0,22,23
 261 473 261 473 224.5 455 c 128,-1,24
 188 437 188 437 166 394 c 128,-1,25
 144 351 144 351 144 277 c 256,26,27
 144 203 144 203 166 160.5 c 128,-1,28
 188 118 188 118 224.5 100.5 c 128,-1,29
 261 83 261 83 304 83 c 256,14,15
EndSplineSet
Substitution2: "Single Substitution lookup 2 subtable" ordmasculine
EndChar

StartChar: P
Encoding: 80 80 50
Width: 492
GlyphClass: 1
Flags: W
LayerCount: 2
Fore
SplineSet
155 193 m 1,0,-1
 155 11 l 2,1,2
 155 0 155 0 144 0 c 2,3,-1
 68 0 l 2,4,5
 57 0 57 0 57 11 c 2,6,-1
 57 544 l 2,7,8
 57 556 57 556 68 556 c 2,9,-1
 261 556 l 2,10,11
 365 556 365 556 414 506.5 c 128,-1,12
 463 457 463 457 463 377 c 0,13,14
 463 296 463 296 412.5 244.5 c 128,-1,15
 362 193 362 193 273 193 c 2,16,-1
 155 193 l 1,0,-1
155 283 m 1,17,-1
 268 283 l 2,18,19
 290 283 290 283 312.5 290 c 128,-1,20
 335 297 335 297 350 317.5 c 128,-1,21
 365 338 365 338 365 377 c 0,22,23
 365 420 365 420 338 442 c 128,-1,24
 311 464 311 464 269 464 c 2,25,-1
 155 464 l 1,26,-1
 155 283 l 1,17,-1
EndSplineSet
EndChar

StartChar: Q
Encoding: 81 81 51
Width: 607
GlyphClass: 1
Flags: W
LayerCount: 2
Fore
SplineSet
268 -8 m 1,0,1
 161 4 161 4 102.5 79.5 c 128,-1,2
 44 155 44 155 44 277 c 0,3,4
 44 365 44 365 75 430 c 128,-1,5
 106 495 106 495 164.5 530.5 c 128,-1,6
 223 566 223 566 304 566 c 0,7,8
 386 566 386 566 443.5 530.5 c 128,-1,9
 501 495 501 495 532 430 c 128,-1,10
 563 365 563 365 563 277 c 0,11,12
 563 168 563 168 517.5 96.5 c 128,-1,13
 472 25 472 25 386 3 c 1,14,15
 397 -13 397 -13 414 -22.5 c 128,-1,16
 431 -32 431 -32 456 -32 c 0,17,18
 492 -32 492 -32 527 -4 c 0,19,20
 532 0 532 0 537 0 c 0,21,22
 548 0 548 0 548 -18 c 0,23,24
 548 -39 548 -39 533.5 -61 c 128,-1,25
 519 -83 519 -83 492 -98.5 c 128,-1,26
 465 -114 465 -114 427 -114 c 0,27,28
 366 -114 366 -114 328 -85 c 128,-1,29
 290 -56 290 -56 268 -8 c 1,0,1
304 83 m 0,30,31
 347 83 347 83 383 100.5 c 128,-1,32
 419 118 419 118 440.5 160.5 c 128,-1,33
 462 203 462 203 462 277 c 0,34,35
 462 352 462 352 440 394.5 c 128,-1,36
 418 437 418 437 382 454.5 c 128,-1,37
 346 472 346 472 304 472 c 256,38,39
 262 472 262 472 225.5 454.5 c 128,-1,40
 189 437 189 437 166.5 394.5 c 128,-1,41
 144 352 144 352 144 277 c 0,42,43
 144 203 144 203 166.5 160.5 c 128,-1,44
 189 118 189 118 225.5 100.5 c 128,-1,45
 262 83 262 83 304 83 c 0,30,31
EndSplineSet
EndChar

StartChar: R
Encoding: 82 82 52
Width: 499
GlyphClass: 1
Flags: W
LayerCount: 2
Fore
SplineSet
155 193 m 1,0,-1
 155 11 l 2,1,2
 155 0 155 0 144 0 c 2,3,-1
 68 0 l 2,4,5
 57 0 57 0 57 11 c 2,6,-1
 57 544 l 2,7,8
 57 556 57 556 68 556 c 2,9,-1
 260 556 l 2,10,11
 365 556 365 556 414 506.5 c 128,-1,12
 463 457 463 457 463 377 c 0,13,14
 463 314 463 314 432.5 270 c 128,-1,15
 402 226 402 226 351 206 c 1,16,-1
 467 11 l 2,17,18
 469 7 469 7 467.5 3.5 c 128,-1,19
 466 0 466 0 461 0 c 2,20,-1
 377 0 l 2,21,22
 361 0 361 0 354 12 c 2,23,-1
 254 193 l 1,24,-1
 155 193 l 1,0,-1
155 283 m 1,25,-1
 268 283 l 2,26,27
 308 283 308 283 337 303.5 c 128,-1,28
 366 324 366 324 366 377 c 0,29,30
 366 420 366 420 339 442 c 128,-1,31
 312 464 312 464 269 464 c 2,32,-1
 155 464 l 1,33,-1
 155 283 l 1,25,-1
EndSplineSet
EndChar

StartChar: S
Encoding: 83 83 53
Width: 452
GlyphClass: 1
Flags: W
LayerCount: 2
Fore
SplineSet
43 152 m 0,0,1
 75 119 75 119 114.5 99 c 128,-1,2
 154 79 154 79 212 79 c 0,3,4
 268 79 268 79 297.5 99.5 c 128,-1,5
 327 120 327 120 327 154 c 0,6,7
 327 180 327 180 306 195.5 c 128,-1,8
 285 211 285 211 251.5 222.5 c 128,-1,9
 218 234 218 234 181 246.5 c 128,-1,10
 144 259 144 259 110.5 278 c 128,-1,11
 77 297 77 297 56 328 c 128,-1,12
 35 359 35 359 35 408 c 0,13,14
 35 459 35 459 61 494 c 128,-1,15
 87 529 87 529 131.5 547.5 c 128,-1,16
 176 566 176 566 230 566 c 0,17,18
 268 566 268 566 302 560 c 128,-1,19
 336 554 336 554 364 543 c 0,20,21
 395 532 395 532 402.5 514.5 c 128,-1,22
 410 497 410 497 405 470 c 2,23,-1
 400 448 l 2,24,25
 398 442 398 442 396 439 c 128,-1,26
 394 436 394 436 389 436 c 256,27,28
 384 436 384 436 374 441 c 0,29,30
 343 458 343 458 307 468 c 128,-1,31
 271 478 271 478 231 478 c 0,32,33
 190 478 190 478 162.5 462 c 128,-1,34
 135 446 135 446 135 413 c 0,35,36
 135 386 135 386 156 369.5 c 128,-1,37
 177 353 177 353 210.5 342 c 128,-1,38
 244 331 244 331 281 319 c 128,-1,39
 318 307 318 307 351.5 289 c 128,-1,40
 385 271 385 271 406 241 c 128,-1,41
 427 211 427 211 427 163 c 0,42,43
 427 85 427 85 373.5 37.5 c 128,-1,44
 320 -10 320 -10 223 -10 c 0,45,46
 152 -10 152 -10 106.5 12.5 c 128,-1,47
 61 35 61 35 39.5 69 c 128,-1,48
 18 103 18 103 18 136 c 0,49,50
 18 157 18 157 32 157 c 0,51,52
 39 157 39 157 43 152 c 0,0,1
EndSplineSet
EndChar

StartChar: T
Encoding: 84 84 54
Width: 444
GlyphClass: 1
Flags: W
LayerCount: 2
Fore
SplineSet
171 464 m 1,0,-1
 23 464 l 2,1,2
 12 464 12 464 12 476 c 2,3,-1
 12 544 l 2,4,5
 12 556 12 556 23 556 c 2,6,-1
 374 556 l 2,7,8
 433 556 433 556 433 499 c 2,9,-1
 433 478 l 2,10,11
 433 473 433 473 429.5 468.5 c 128,-1,12
 426 464 426 464 419 464 c 2,13,-1
 270 464 l 1,14,-1
 270 11 l 2,15,16
 270 0 270 0 260 0 c 2,17,-1
 183 0 l 2,18,19
 171 0 171 0 171 11 c 2,20,-1
 171 464 l 1,0,-1
EndSplineSet
EndChar

StartChar: U
Encoding: 85 85 55
Width: 526
GlyphClass: 1
Flags: W
LayerCount: 2
Fore
SplineSet
261 -10 m 0,0,1
 196 -10 196 -10 155 11 c 128,-1,2
 114 32 114 32 92 65 c 128,-1,3
 70 98 70 98 62 135 c 128,-1,4
 54 172 54 172 54 203 c 2,5,-1
 54 544 l 2,6,7
 54 556 54 556 65 556 c 2,8,-1
 73 556 l 2,9,10
 113 556 113 556 132.5 536 c 128,-1,11
 152 516 152 516 152 469 c 2,12,-1
 152 222 l 2,13,14
 152 160 152 160 176 121 c 128,-1,15
 200 82 200 82 261 82 c 0,16,17
 323 82 323 82 348 121.5 c 128,-1,18
 373 161 373 161 373 222 c 2,19,-1
 373 544 l 2,20,21
 373 556 373 556 385 556 c 2,22,-1
 393 556 l 2,23,24
 432 556 432 556 452 536 c 128,-1,25
 472 516 472 516 472 469 c 2,26,-1
 472 204 l 2,27,28
 472 175 472 175 464 138.5 c 128,-1,29
 456 102 456 102 434 68 c 128,-1,30
 412 34 412 34 370.5 12 c 128,-1,31
 329 -10 329 -10 261 -10 c 0,0,1
EndSplineSet
EndChar

StartChar: V
Encoding: 86 86 56
Width: 497
GlyphClass: 1
Flags: W
LayerCount: 2
Fore
SplineSet
254 116 m 1,0,-1
 389 542 l 2,1,2
 394 556 394 556 408 556 c 2,3,-1
 480 556 l 2,4,5
 491 556 491 556 488 544 c 2,6,-1
 309 11 l 2,7,8
 305 0 305 0 296 0 c 2,9,-1
 205 0 l 2,10,11
 193 0 193 0 190 11 c 2,12,-1
 11 543 l 2,13,14
 10 548 10 548 11.5 552 c 128,-1,15
 13 556 13 556 18 556 c 2,16,-1
 51 556 l 2,17,18
 85 556 85 556 104.5 541.5 c 128,-1,19
 124 527 124 527 138 482 c 2,20,-1
 254 116 l 1,0,-1
EndSplineSet
EndChar

StartChar: W
Encoding: 87 87 57
Width: 754
GlyphClass: 1
Flags: W
LayerCount: 2
Fore
SplineSet
217 125 m 1,0,-1
 320 542 l 2,1,2
 323 556 323 556 335 556 c 2,3,-1
 363 556 l 2,4,5
 398 556 398 556 418 542 c 128,-1,6
 438 528 438 528 449 482 c 2,7,-1
 538 125 l 1,8,-1
 634 542 l 2,9,10
 639 556 639 556 649 556 c 2,11,-1
 727 556 l 2,12,13
 737 556 737 556 734 544 c 2,14,-1
 599 11 l 2,15,16
 596 0 596 0 587 0 c 2,17,-1
 498 0 l 2,18,19
 489 0 489 0 484 11 c 2,20,-1
 374 418 l 1,21,-1
 268 11 l 2,22,23
 263 0 263 0 254 0 c 2,24,-1
 166 0 l 2,25,26
 155 0 155 0 152 11 c 2,27,-1
 22 543 l 2,28,29
 21 548 21 548 22.5 552 c 128,-1,30
 24 556 24 556 30 556 c 2,31,-1
 50 556 l 2,32,33
 84 556 84 556 105.5 542 c 128,-1,34
 127 528 127 528 137 482 c 2,35,-1
 217 125 l 1,0,-1
EndSplineSet
EndChar

StartChar: X
Encoding: 88 88 58
Width: 498
GlyphClass: 1
Flags: W
LayerCount: 2
Fore
SplineSet
249 227 m 1,0,-1
 119 13 l 2,1,2
 112 0 112 0 100 0 c 2,3,-1
 19 0 l 2,4,5
 13 0 13 0 11.5 3.5 c 128,-1,6
 10 7 10 7 12 11 c 2,7,-1
 179 289 l 1,8,-1
 26 543 l 2,9,10
 24 547 24 547 25.5 551.5 c 128,-1,11
 27 556 27 556 32 556 c 2,12,-1
 71 556 l 2,13,14
 94 556 94 556 108 552.5 c 128,-1,15
 122 549 122 549 134.5 536.5 c 128,-1,16
 147 524 147 524 163 496 c 2,17,-1
 247 358 l 1,18,-1
 358 542 l 2,19,20
 366 556 366 556 378 556 c 2,21,-1
 458 556 l 2,22,23
 463 556 463 556 465 552.5 c 128,-1,24
 467 549 467 549 463 544 c 2,25,-1
 316 294 l 1,26,-1
 488 11 l 2,27,28
 491 7 491 7 489 3.5 c 128,-1,29
 487 0 487 0 482 0 c 2,30,-1
 400 0 l 2,31,32
 386 0 386 0 379 13 c 2,33,-1
 249 227 l 1,0,-1
EndSplineSet
EndChar

StartChar: Y
Encoding: 89 89 59
Width: 466
GlyphClass: 1
Flags: W
LayerCount: 2
Fore
SplineSet
184 208 m 1,0,-1
 5 544 l 2,1,2
 3 548 3 548 4.5 552 c 128,-1,3
 6 556 6 556 11 556 c 2,4,-1
 50 556 l 2,5,6
 82 556 82 556 101.5 543.5 c 128,-1,7
 121 531 121 531 137 500 c 2,8,-1
 238 308 l 1,9,-1
 360 542 l 2,10,11
 367 556 367 556 379 556 c 2,12,-1
 456 556 l 2,13,14
 462 556 462 556 463.5 552 c 128,-1,15
 465 548 465 548 463 543 c 2,16,-1
 282 206 l 1,17,-1
 282 11 l 2,18,19
 282 0 282 0 271 0 c 2,20,-1
 194 0 l 2,21,22
 184 0 184 0 184 11 c 2,23,-1
 184 208 l 1,0,-1
EndSplineSet
EndChar

StartChar: Z
Encoding: 90 90 60
Width: 452
GlyphClass: 1
Flags: W
LayerCount: 2
Fore
SplineSet
148 91 m 1,0,-1
 361 91 l 2,1,2
 419 91 419 91 419 35 c 2,3,-1
 419 14 l 2,4,5
 419 0 419 0 405 0 c 2,6,-1
 39 0 l 2,7,8
 29 0 29 0 29 11 c 2,9,-1
 29 69 l 2,10,11
 29 88 29 88 43 108 c 2,12,-1
 300 465 l 1,13,-1
 46 465 l 2,14,15
 35 465 35 465 35 476 c 2,16,-1
 35 544 l 2,17,18
 35 556 35 556 46 556 c 2,19,-1
 356 556 l 2,20,21
 385 556 385 556 401.5 541.5 c 128,-1,22
 418 527 418 527 418 496 c 2,23,-1
 418 482 l 2,24,25
 418 463 418 463 405 445 c 2,26,-1
 148 91 l 1,0,-1
EndSplineSet
EndChar

StartChar: bracketleft
Encoding: 91 91 61
Width: 299
GlyphClass: 1
Flags: W
LayerCount: 2
Fore
SplineSet
237 -144 m 2,0,-1
 125 -144 l 2,1,2
 93 -144 93 -144 74.5 -126 c 128,-1,3
 56 -108 56 -108 56 -77 c 2,4,-1
 56 628 l 2,5,6
 56 660 56 660 74.5 678 c 128,-1,7
 93 696 93 696 125 696 c 2,8,-1
 237 696 l 2,9,10
 254 696 254 696 254 678 c 2,11,-1
 254 672 l 2,12,13
 254 645 254 645 238 629.5 c 128,-1,14
 222 614 222 614 193 614 c 2,15,-1
 156 614 l 2,16,17
 143 614 143 614 143 601 c 2,18,-1
 143 -49 l 2,19,20
 143 -63 143 -63 156 -63 c 2,21,-1
 193 -63 l 2,22,23
 254 -63 254 -63 254 -120 c 2,24,-1
 254 -127 l 2,25,26
 254 -144 254 -144 237 -144 c 2,0,-1
EndSplineSet
PairPos2: "'kern' Horizontal Kerning lookup 2 per glyph data 1" uni0632 dx=11 dy=0 dh=11 dv=0 dx=0 dy=0 dh=0 dv=0
EndChar

StartChar: backslash
Encoding: 92 92 62
Width: 318
GlyphClass: 1
Flags: W
LayerCount: 2
Fore
SplineSet
228 11 m 2,0,-1
 2 544 l 2,1,2
 1 548 1 548 2 552 c 128,-1,3
 3 556 3 556 9 556 c 2,4,-1
 26 556 l 2,5,6
 67 556 67 556 84 540 c 128,-1,7
 101 524 101 524 114 492 c 2,8,-1
 318 11 l 2,9,10
 320 7 320 7 318.5 3.5 c 128,-1,11
 317 0 317 0 312 0 c 2,12,-1
 244 0 l 2,13,14
 232 0 232 0 228 11 c 2,0,-1
EndSplineSet
EndChar

StartChar: bracketright
Encoding: 93 93 63
Width: 299
GlyphClass: 1
Flags: W
LayerCount: 2
Fore
SplineSet
174 -144 m 2,0,-1
 63 -144 l 2,1,2
 45 -144 45 -144 45 -127 c 2,3,-1
 45 -120 l 2,4,5
 45 -93 45 -93 61.5 -78 c 128,-1,6
 78 -63 78 -63 107 -63 c 2,7,-1
 143 -63 l 2,8,9
 156 -63 156 -63 156 -49 c 2,10,-1
 156 601 l 2,11,12
 156 614 156 614 143 614 c 2,13,-1
 107 614 l 2,14,15
 78 614 78 614 61.5 629.5 c 128,-1,16
 45 645 45 645 45 672 c 2,17,-1
 45 678 l 2,18,19
 45 696 45 696 63 696 c 2,20,-1
 174 696 l 2,21,22
 206 696 206 696 224.5 678 c 128,-1,23
 243 660 243 660 243 628 c 2,24,-1
 243 -77 l 2,25,26
 243 -108 243 -108 224.5 -126 c 128,-1,27
 206 -144 206 -144 174 -144 c 2,0,-1
EndSplineSet
PairPos2: "'kern' Horizontal Kerning lookup 2 per glyph data 1" uni0698 dx=-33 dy=0 dh=-33 dv=0 dx=0 dy=0 dh=0 dv=0
PairPos2: "'kern' Horizontal Kerning lookup 2 per glyph data 1" uni0695 dx=-33 dy=0 dh=-33 dv=0 dx=0 dy=0 dh=0 dv=0
PairPos2: "'kern' Horizontal Kerning lookup 2 per glyph data 1" uni0694 dx=-33 dy=0 dh=-33 dv=0 dx=0 dy=0 dh=0 dv=0
PairPos2: "'kern' Horizontal Kerning lookup 2 per glyph data 1" uni0691 dx=-15 dy=0 dh=-15 dv=0 dx=0 dy=0 dh=0 dv=0
PairPos2: "'kern' Horizontal Kerning lookup 2 per glyph data 1" uni0671 dx=11 dy=0 dh=11 dv=0 dx=0 dy=0 dh=0 dv=0
PairPos2: "'kern' Horizontal Kerning lookup 2 per glyph data 1" uni0632 dx=-33 dy=0 dh=-33 dv=0 dx=0 dy=0 dh=0 dv=0
PairPos2: "'kern' Horizontal Kerning lookup 2 per glyph data 1" uni0631 dx=-33 dy=0 dh=-33 dv=0 dx=0 dy=0 dh=0 dv=0
PairPos2: "'kern' Horizontal Kerning lookup 2 per glyph data 1" uni0625 dx=7 dy=0 dh=7 dv=0 dx=0 dy=0 dh=0 dv=0
PairPos2: "'kern' Horizontal Kerning lookup 2 per glyph data 1" uni0623 dx=9 dy=0 dh=9 dv=0 dx=0 dy=0 dh=0 dv=0
PairPos2: "'kern' Horizontal Kerning lookup 2 per glyph data 1" uni0622 dx=18 dy=0 dh=18 dv=0 dx=0 dy=0 dh=0 dv=0
EndChar

StartChar: asciicircum
Encoding: 94 94 64
Width: 411
GlyphClass: 1
Flags: W
LayerCount: 2
Fore
SplineSet
207 453 m 1,0,-1
 118 281 l 2,1,2
 111 269 111 269 99 269 c 2,3,-1
 34 269 l 2,4,5
 29 269 29 269 26.5 272 c 128,-1,6
 24 275 24 275 26 279 c 2,7,-1
 167 543 l 2,8,9
 174 556 174 556 187 556 c 0,10,11
 242 556 242 556 266 508 c 2,12,-1
 389 279 l 2,13,14
 391 275 391 275 388.5 272 c 128,-1,15
 386 269 386 269 381 269 c 2,16,-1
 316 269 l 2,17,18
 303 269 303 269 296 281 c 2,19,-1
 207 453 l 1,0,-1
EndSplineSet
EndChar

StartChar: underscore
Encoding: 95 95 65
Width: 451
GlyphClass: 1
Flags: W
LayerCount: 2
Fore
SplineSet
4 -197 m 2,0,1
 -7 -197 -7 -197 -7 -186 c 2,2,-1
 -7 -123 l 2,3,4
 -7 -113 -7 -113 4 -113 c 2,5,-1
 447 -113 l 2,6,7
 457 -113 457 -113 457 -123 c 2,8,-1
 457 -186 l 2,9,10
 457 -197 457 -197 447 -197 c 2,11,-1
 4 -197 l 2,0,1
EndSplineSet
EndChar

StartChar: grave
Encoding: 96 96 66
Width: 200
GlyphClass: 1
Flags: W
LayerCount: 2
Fore
SplineSet
7 516 m 2,0,1
 3 520 3 520 4.5 524 c 128,-1,2
 6 528 6 528 10 528 c 2,3,-1
 90 528 l 2,4,5
 106 528 106 528 117 518 c 2,6,-1
 200 442 l 2,7,8
 203 439 203 439 202 434.5 c 128,-1,9
 201 430 201 430 194 430 c 2,10,-1
 129 430 l 2,11,12
 110 430 110 430 96 441 c 2,13,-1
 7 516 l 2,0,1
EndSplineSet
EndChar

StartChar: a
Encoding: 97 97 67
Width: 463
GlyphClass: 1
Flags: W
LayerCount: 2
Fore
SplineSet
322 47 m 1,0,1
 302 20 302 20 271 5.5 c 128,-1,2
 240 -9 240 -9 205 -9 c 0,3,4
 149 -9 149 -9 110.5 18 c 128,-1,5
 72 45 72 45 52.5 90 c 128,-1,6
 33 135 33 135 33 189 c 0,7,8
 33 245 33 245 54 289.5 c 128,-1,9
 75 334 75 334 114.5 360 c 128,-1,10
 154 386 154 386 207 386 c 0,11,12
 251 386 251 386 281.5 370 c 128,-1,13
 312 354 312 354 330 332 c 1,14,15
 338 355 338 355 356.5 365.5 c 128,-1,16
 375 376 375 376 401 376 c 2,17,-1
 406 376 l 2,18,19
 417 376 417 376 417 364 c 2,20,-1
 417 11 l 2,21,22
 417 0 417 0 406 0 c 2,23,-1
 332 0 l 2,24,25
 322 0 322 0 322 11 c 2,26,-1
 322 47 l 1,0,1
226 81 m 0,27,28
 245 81 245 81 267.5 89.5 c 128,-1,29
 290 98 290 98 306 121 c 128,-1,30
 322 144 322 144 322 189 c 256,31,32
 322 234 322 234 306 256.5 c 128,-1,33
 290 279 290 279 268 286.5 c 128,-1,34
 246 294 246 294 227 294 c 0,35,36
 207 294 207 294 184.5 285 c 128,-1,37
 162 276 162 276 146.5 253 c 128,-1,38
 131 230 131 230 131 189 c 0,39,40
 131 146 131 146 147.5 122.5 c 128,-1,41
 164 99 164 99 186 90 c 128,-1,42
 208 81 208 81 226 81 c 0,27,28
EndSplineSet
Substitution2: "Single Substitution lookup 2 subtable" ordfeminine
EndChar

StartChar: b
Encoding: 98 98 68
Width: 462
GlyphClass: 1
Flags: W
LayerCount: 2
Fore
SplineSet
141 46 m 1,0,-1
 141 11 l 2,1,2
 141 0 141 0 131 0 c 2,3,-1
 56 0 l 2,4,5
 47 0 47 0 47 11 c 2,6,-1
 47 544 l 2,7,8
 47 556 47 556 56 556 c 2,9,-1
 61 556 l 2,10,11
 100 556 100 556 120.5 536.5 c 128,-1,12
 141 517 141 517 141 472 c 2,13,-1
 141 328 l 1,14,15
 158 353 158 353 187.5 369.5 c 128,-1,16
 217 386 217 386 259 386 c 0,17,18
 338 386 338 386 384 332.5 c 128,-1,19
 430 279 430 279 430 189 c 0,20,21
 430 135 430 135 410.5 90 c 128,-1,22
 391 45 391 45 353 18 c 128,-1,23
 315 -9 315 -9 259 -9 c 0,24,25
 183 -9 183 -9 141 46 c 1,0,-1
236 81 m 0,26,27
 255 81 255 81 277 90 c 128,-1,28
 299 99 299 99 315 122.5 c 128,-1,29
 331 146 331 146 331 189 c 0,30,31
 331 231 331 231 315.5 253.5 c 128,-1,32
 300 276 300 276 278 285 c 128,-1,33
 256 294 256 294 236 294 c 0,34,35
 218 294 218 294 196 286.5 c 128,-1,36
 174 279 174 279 157.5 256.5 c 128,-1,37
 141 234 141 234 141 189 c 0,38,39
 141 145 141 145 157.5 121.5 c 128,-1,40
 174 98 174 98 196.5 89.5 c 128,-1,41
 219 81 219 81 236 81 c 0,26,27
EndSplineSet
EndChar

StartChar: c
Encoding: 99 99 69
Width: 363
GlyphClass: 1
Flags: W
LayerCount: 2
Fore
SplineSet
325 104 m 0,0,1
 332 111 332 111 337 111 c 0,2,3
 348 111 348 111 348 95 c 0,4,5
 348 75 348 75 336 50 c 128,-1,6
 324 25 324 25 295.5 7.5 c 128,-1,7
 267 -10 267 -10 217 -10 c 0,8,9
 133 -10 133 -10 83 42.5 c 128,-1,10
 33 95 33 95 33 188 c 0,11,12
 33 279 33 279 85.5 331.5 c 128,-1,13
 138 384 138 384 223 384 c 0,14,15
 245 384 245 384 264.5 381.5 c 128,-1,16
 284 379 284 379 301 372 c 0,17,18
 327 362 327 362 335 345.5 c 128,-1,19
 343 329 343 329 335 301 c 2,20,-1
 329 279 l 2,21,22
 326 271 326 271 321 271 c 0,23,24
 317 271 317 271 312 274 c 0,25,26
 289 285 289 285 271 289.5 c 128,-1,27
 253 294 253 294 227 294 c 0,28,29
 187 294 187 294 159 267.5 c 128,-1,30
 131 241 131 241 131 186 c 0,31,32
 131 134 131 134 158 104 c 128,-1,33
 185 74 185 74 238 74 c 0,34,35
 270 74 270 74 291 84.5 c 128,-1,36
 312 95 312 95 325 104 c 0,0,1
EndSplineSet
EndChar

StartChar: d
Encoding: 100 100 70
Width: 463
GlyphClass: 1
Flags: W
LayerCount: 2
Fore
SplineSet
322 333 m 1,0,-1
 322 544 l 2,1,2
 322 556 322 556 333 556 c 2,3,-1
 338 556 l 2,4,5
 377 556 377 556 397.5 536.5 c 128,-1,6
 418 517 418 517 418 472 c 2,7,-1
 418 11 l 2,8,9
 418 0 418 0 408 0 c 2,10,-1
 333 0 l 2,11,12
 322 0 322 0 322 11 c 2,13,-1
 322 47 l 1,14,15
 280 -9 280 -9 205 -9 c 0,16,17
 149 -9 149 -9 110.5 18 c 128,-1,18
 72 45 72 45 52.5 90 c 128,-1,19
 33 135 33 135 33 189 c 0,20,21
 33 245 33 245 54 289.5 c 128,-1,22
 75 334 75 334 115 360 c 128,-1,23
 155 386 155 386 211 386 c 0,24,25
 249 386 249 386 277.5 372 c 128,-1,26
 306 358 306 358 322 333 c 1,0,-1
227 81 m 0,27,28
 246 81 246 81 268 89.5 c 128,-1,29
 290 98 290 98 306 121 c 128,-1,30
 322 144 322 144 322 189 c 256,31,32
 322 234 322 234 306 256.5 c 128,-1,33
 290 279 290 279 268 286.5 c 128,-1,34
 246 294 246 294 228 294 c 0,35,36
 208 294 208 294 185 285 c 128,-1,37
 162 276 162 276 146.5 253.5 c 128,-1,38
 131 231 131 231 131 189 c 0,39,40
 131 146 131 146 147.5 122.5 c 128,-1,41
 164 99 164 99 186.5 90 c 128,-1,42
 209 81 209 81 227 81 c 0,27,28
EndSplineSet
EndChar

StartChar: e
Encoding: 101 101 71
Width: 418
GlyphClass: 1
Flags: W
LayerCount: 2
Fore
SplineSet
129 154 m 1,0,1
 134 114 134 114 164 93 c 128,-1,2
 194 72 194 72 240 72 c 0,3,4
 278 72 278 72 303 80 c 128,-1,5
 328 88 328 88 353 102 c 0,6,7
 362 108 362 108 369 108 c 0,8,9
 380 108 380 108 380 94 c 0,10,11
 380 73 380 73 364.5 49 c 128,-1,12
 349 25 349 25 316 7.5 c 128,-1,13
 283 -10 283 -10 228 -10 c 0,14,15
 174 -10 174 -10 129.5 12.5 c 128,-1,16
 85 35 85 35 59 79.5 c 128,-1,17
 33 124 33 124 33 189 c 0,18,19
 33 246 33 246 55.5 290 c 128,-1,20
 78 334 78 334 119.5 359 c 128,-1,21
 161 384 161 384 217 384 c 0,22,23
 277 384 277 384 314.5 359.5 c 128,-1,24
 352 335 352 335 369.5 296 c 128,-1,25
 387 257 387 257 387 213 c 0,26,27
 387 198 387 198 386.5 186.5 c 128,-1,28
 386 175 386 175 385 167 c 0,29,30
 384 154 384 154 368 154 c 2,31,-1
 129 154 l 1,0,1
129 223 m 1,32,-1
 291 223 l 1,33,34
 293 240 293 240 287.5 258.5 c 128,-1,35
 282 277 282 277 265 290 c 128,-1,36
 248 303 248 303 217 303 c 0,37,38
 179 303 179 303 156.5 281.5 c 128,-1,39
 134 260 134 260 129 223 c 1,32,-1
EndSplineSet
EndChar

StartChar: f
Encoding: 102 102 72
Width: 307
GlyphClass: 1
Flags: W
LayerCount: 2
Fore
SplineSet
79 290 m 1,0,-1
 22 290 l 2,1,2
 12 290 12 290 12 301 c 2,3,-1
 12 364 l 2,4,5
 12 376 12 376 22 376 c 2,6,-1
 79 376 l 1,7,-1
 79 424 l 2,8,9
 79 495 79 495 110 528 c 128,-1,10
 141 561 141 561 190 561 c 0,11,12
 225 561 225 561 247 547.5 c 128,-1,13
 269 534 269 534 279.5 514.5 c 128,-1,14
 290 495 290 495 290 476 c 0,15,16
 290 459 290 459 280 459 c 0,17,18
 274 459 274 459 270 461 c 0,19,20
 257 469 257 469 245 474 c 128,-1,21
 233 479 233 479 219 479 c 0,22,23
 196 479 196 479 185 465 c 128,-1,24
 174 451 174 451 174 418 c 2,25,-1
 174 376 l 1,26,-1
 266 376 l 2,27,28
 278 376 278 376 278 364 c 2,29,-1
 278 301 l 2,30,31
 278 290 278 290 266 290 c 2,32,-1
 174 290 l 1,33,-1
 174 11 l 2,34,35
 174 0 174 0 163 0 c 2,36,-1
 90 0 l 2,37,38
 79 0 79 0 79 11 c 2,39,-1
 79 290 l 1,0,-1
EndSplineSet
EndChar

StartChar: g
Encoding: 103 103 73
Width: 463
GlyphClass: 1
Flags: W
LayerCount: 2
Fore
SplineSet
322 53 m 1,0,1
 280 -3 280 -3 205 -3 c 0,2,3
 149 -3 149 -3 110.5 22.5 c 128,-1,4
 72 48 72 48 52.5 91.5 c 128,-1,5
 33 135 33 135 33 189 c 0,6,7
 33 245 33 245 54.5 289.5 c 128,-1,8
 76 334 76 334 115.5 360 c 128,-1,9
 155 386 155 386 208 386 c 0,10,11
 252 386 252 386 282.5 370.5 c 128,-1,12
 313 355 313 355 331 332 c 1,13,14
 339 355 339 355 357 365.5 c 128,-1,15
 375 376 375 376 403 376 c 2,16,-1
 408 376 l 2,17,18
 418 376 418 376 418 364 c 2,19,-1
 418 16 l 2,20,21
 418 -69 418 -69 370 -120 c 128,-1,22
 322 -171 322 -171 225 -171 c 0,23,24
 172 -171 172 -171 133.5 -154 c 128,-1,25
 95 -137 95 -137 74 -110.5 c 128,-1,26
 53 -84 53 -84 53 -57 c 0,27,28
 53 -49 53 -49 56.5 -43 c 128,-1,29
 60 -37 60 -37 66 -37 c 0,30,31
 70 -37 70 -37 72.5 -39 c 128,-1,32
 75 -41 75 -41 79 -44 c 0,33,34
 97 -59 97 -59 126.5 -71 c 128,-1,35
 156 -83 156 -83 204 -83 c 0,36,37
 269 -83 269 -83 295.5 -56 c 128,-1,38
 322 -29 322 -29 322 15 c 2,39,-1
 322 53 l 1,0,1
227 81 m 0,40,41
 246 81 246 81 268 89.5 c 128,-1,42
 290 98 290 98 306 121 c 128,-1,43
 322 144 322 144 322 189 c 256,44,45
 322 234 322 234 306 256.5 c 128,-1,46
 290 279 290 279 268 286.5 c 128,-1,47
 246 294 246 294 228 294 c 0,48,49
 208 294 208 294 185 285 c 128,-1,50
 162 276 162 276 146.5 253.5 c 128,-1,51
 131 231 131 231 131 189 c 0,52,53
 131 146 131 146 147.5 122.5 c 128,-1,54
 164 99 164 99 186.5 90 c 128,-1,55
 209 81 209 81 227 81 c 0,40,41
EndSplineSet
EndChar

StartChar: h
Encoding: 104 104 74
Width: 444
GlyphClass: 1
Flags: W
LayerCount: 2
Fore
SplineSet
141 336 m 1,0,1
 158 359 158 359 185 372.5 c 128,-1,2
 212 386 212 386 249 386 c 0,3,4
 317 386 317 386 358.5 343.5 c 128,-1,5
 400 301 400 301 400 219 c 2,6,-1
 400 11 l 2,7,8
 400 0 400 0 389 0 c 2,9,-1
 315 0 l 2,10,11
 304 0 304 0 304 11 c 2,12,-1
 304 207 l 2,13,14
 304 256 304 256 281 276.5 c 128,-1,15
 258 297 258 297 224 297 c 0,16,17
 188 297 188 297 164.5 276 c 128,-1,18
 141 255 141 255 141 204 c 2,19,-1
 141 11 l 2,20,21
 141 0 141 0 131 0 c 2,22,-1
 58 0 l 2,23,24
 47 0 47 0 47 11 c 2,25,-1
 47 544 l 2,26,27
 47 556 47 556 58 556 c 2,28,-1
 63 556 l 2,29,30
 101 556 101 556 121 536.5 c 128,-1,31
 141 517 141 517 141 472 c 2,32,-1
 141 336 l 1,0,1
EndSplineSet
EndChar

StartChar: i
Encoding: 105 105 75
Width: 189
GlyphClass: 1
Flags: W
LayerCount: 2
Fore
SplineSet
39 474 m 0,0,1
 39 498 39 498 54.5 513.5 c 128,-1,2
 70 529 70 529 93 529 c 256,3,4
 116 529 116 529 131.5 513.5 c 128,-1,5
 147 498 147 498 147 474 c 0,6,7
 147 451 147 451 131.5 435 c 128,-1,8
 116 419 116 419 93 419 c 256,9,10
 70 419 70 419 54.5 435 c 128,-1,11
 39 451 39 451 39 474 c 0,0,1
56 0 m 2,12,13
 46 0 46 0 46 11 c 2,14,-1
 46 364 l 2,15,16
 46 376 46 376 56 376 c 2,17,-1
 61 376 l 2,18,19
 99 376 99 376 120 356 c 128,-1,20
 141 336 141 336 141 291 c 2,21,-1
 141 11 l 2,22,23
 141 0 141 0 130 0 c 2,24,-1
 56 0 l 2,12,13
EndSplineSet
EndChar

StartChar: j
Encoding: 106 106 76
Width: 189
GlyphClass: 1
Flags: W
LayerCount: 2
Fore
SplineSet
40 473 m 0,0,1
 40 498 40 498 56 513.5 c 128,-1,2
 72 529 72 529 94 529 c 0,3,4
 117 529 117 529 132.5 513.5 c 128,-1,5
 148 498 148 498 148 473 c 0,6,7
 148 451 148 451 132.5 435 c 128,-1,8
 117 419 117 419 94 419 c 0,9,10
 72 419 72 419 56 435 c 128,-1,11
 40 451 40 451 40 473 c 0,0,1
-69 -85 m 0,12,13
 -69 -67 -69 -67 -58 -67 c 0,14,15
 -53 -67 -53 -67 -49 -70 c 0,16,17
 -35 -78 -35 -78 -23 -83.5 c 128,-1,18
 -11 -89 -11 -89 3 -89 c 0,19,20
 28 -89 28 -89 37.5 -73.5 c 128,-1,21
 47 -58 47 -58 47 -25 c 2,22,-1
 47 364 l 2,23,24
 47 376 47 376 57 376 c 2,25,-1
 62 376 l 2,26,27
 100 376 100 376 121 356 c 128,-1,28
 142 336 142 336 142 291 c 2,29,-1
 142 -32 l 2,30,31
 142 -102 142 -102 113 -136.5 c 128,-1,32
 84 -171 84 -171 34 -171 c 0,33,34
 -1 -171 -1 -171 -24 -157 c 128,-1,35
 -47 -143 -47 -143 -58 -122.5 c 128,-1,36
 -69 -102 -69 -102 -69 -85 c 0,12,13
EndSplineSet
EndChar

StartChar: k
Encoding: 107 107 77
Width: 393
GlyphClass: 1
Flags: W
LayerCount: 2
Fore
SplineSet
141 123 m 1,0,-1
 141 11 l 2,1,2
 141 0 141 0 131 0 c 2,3,-1
 56 0 l 2,4,5
 47 0 47 0 47 11 c 2,6,-1
 47 544 l 2,7,8
 47 556 47 556 56 556 c 2,9,-1
 61 556 l 2,10,11
 100 556 100 556 120.5 536.5 c 128,-1,12
 141 517 141 517 141 472 c 2,13,-1
 141 240 l 1,14,-1
 258 363 l 2,15,16
 267 376 267 376 279 376 c 2,17,-1
 363 376 l 2,18,19
 368 376 368 376 369 371.5 c 128,-1,20
 370 367 370 367 368 364 c 2,21,-1
 250 239 l 1,22,-1
 383 11 l 2,23,24
 385 7 385 7 383 3.5 c 128,-1,25
 381 0 381 0 376 0 c 2,26,-1
 294 0 l 2,27,28
 278 0 278 0 273 12 c 2,29,-1
 184 168 l 1,30,-1
 141 123 l 1,0,-1
EndSplineSet
EndChar

StartChar: l
Encoding: 108 108 78
Width: 246
GlyphClass: 1
Flags: W
LayerCount: 2
Fore
SplineSet
225 96 m 0,0,1
 227 97 227 97 229.5 99 c 128,-1,2
 232 101 232 101 235 101 c 0,3,4
 241 101 241 101 243.5 96.5 c 128,-1,5
 246 92 246 92 246 87 c 0,6,7
 246 67 246 67 237 44.5 c 128,-1,8
 228 22 228 22 207 7 c 128,-1,9
 186 -8 186 -8 149 -8 c 0,10,11
 102 -8 102 -8 74.5 23 c 128,-1,12
 47 54 47 54 47 119 c 2,13,-1
 47 544 l 2,14,15
 47 556 47 556 57 556 c 2,16,-1
 62 556 l 2,17,18
 101 556 101 556 122 536.5 c 128,-1,19
 143 517 143 517 143 472 c 2,20,-1
 143 128 l 2,21,22
 143 76 143 76 180 76 c 0,23,24
 195 76 195 76 205 81 c 128,-1,25
 215 86 215 86 225 96 c 0,0,1
EndSplineSet
EndChar

StartChar: m
Encoding: 109 109 79
Width: 687
GlyphClass: 1
Flags: W
LayerCount: 2
Fore
SplineSet
136 329 m 1,0,1
 154 353 154 353 180.5 368 c 128,-1,2
 207 383 207 383 244 383 c 0,3,4
 332 383 332 383 369 317 c 1,5,6
 389 344 389 344 419 363.5 c 128,-1,7
 449 383 449 383 491 383 c 0,8,9
 562 383 562 383 602.5 341 c 128,-1,10
 643 299 643 299 643 216 c 2,11,-1
 643 11 l 2,12,13
 643 0 643 0 631 0 c 2,14,-1
 557 0 l 2,15,16
 547 0 547 0 547 11 c 2,17,-1
 547 205 l 2,18,19
 547 255 547 255 525.5 276 c 128,-1,20
 504 297 504 297 471 297 c 256,21,22
 438 297 438 297 415.5 275 c 128,-1,23
 393 253 393 253 393 204 c 2,24,-1
 393 11 l 2,25,26
 393 0 393 0 383 0 c 2,27,-1
 308 0 l 2,28,29
 297 0 297 0 297 11 c 2,30,-1
 297 205 l 2,31,32
 297 255 297 255 276 276 c 128,-1,33
 255 297 255 297 221 297 c 256,34,35
 187 297 187 297 165 275 c 128,-1,36
 143 253 143 253 143 204 c 2,37,-1
 143 11 l 2,38,39
 143 0 143 0 132 0 c 2,40,-1
 56 0 l 2,41,42
 47 0 47 0 47 11 c 2,43,-1
 47 364 l 2,44,45
 47 376 47 376 56 376 c 2,46,-1
 61 376 l 2,47,48
 90 376 90 376 109.5 364.5 c 128,-1,49
 129 353 129 353 136 329 c 1,0,1
EndSplineSet
EndChar

StartChar: n
Encoding: 110 110 80
Width: 445
GlyphClass: 1
Flags: W
LayerCount: 2
Fore
SplineSet
136 327 m 1,0,1
 155 353 155 353 184.5 368 c 128,-1,2
 214 383 214 383 249 383 c 0,3,4
 320 383 320 383 360.5 341 c 128,-1,5
 401 299 401 299 401 216 c 2,6,-1
 401 11 l 2,7,8
 401 0 401 0 390 0 c 2,9,-1
 316 0 l 2,10,11
 305 0 305 0 305 11 c 2,12,-1
 305 204 l 2,13,14
 305 253 305 253 282 274 c 128,-1,15
 259 295 259 295 224 295 c 256,16,17
 189 295 189 295 166 273.5 c 128,-1,18
 143 252 143 252 143 202 c 2,19,-1
 143 11 l 2,20,21
 143 0 143 0 131 0 c 2,22,-1
 58 0 l 2,23,24
 47 0 47 0 47 11 c 2,25,-1
 47 364 l 2,26,27
 47 376 47 376 58 376 c 2,28,-1
 63 376 l 2,29,30
 92 376 92 376 111 363.5 c 128,-1,31
 130 351 130 351 136 327 c 1,0,1
EndSplineSet
EndChar

StartChar: o
Encoding: 111 111 81
Width: 451
GlyphClass: 1
Flags: W
LayerCount: 2
Fore
SplineSet
226 -10 m 0,0,1
 138 -10 138 -10 85.5 44 c 128,-1,2
 33 98 33 98 33 188 c 0,3,4
 33 277 33 277 85 330.5 c 128,-1,5
 137 384 137 384 225 384 c 256,6,7
 313 384 313 384 365 330.5 c 128,-1,8
 417 277 417 277 417 188 c 256,9,10
 417 99 417 99 366 44.5 c 128,-1,11
 315 -10 315 -10 226 -10 c 0,0,1
225 81 m 0,12,13
 263 81 263 81 291 105.5 c 128,-1,14
 319 130 319 130 319 186 c 256,15,16
 319 242 319 242 291 268 c 128,-1,17
 263 294 263 294 225 294 c 0,18,19
 186 294 186 294 158.5 268.5 c 128,-1,20
 131 243 131 243 131 187 c 256,21,22
 131 131 131 131 158.5 106 c 128,-1,23
 186 81 186 81 225 81 c 0,12,13
EndSplineSet
Substitution2: "Single Substitution lookup 2 subtable" ordmasculine
EndChar

StartChar: p
Encoding: 112 112 82
Width: 462
GlyphClass: 1
Flags: W
LayerCount: 2
Fore
SplineSet
141 44 m 1,0,-1
 141 -149 l 2,1,2
 141 -160 141 -160 131 -160 c 2,3,-1
 56 -160 l 2,4,5
 47 -160 47 -160 47 -149 c 2,6,-1
 47 364 l 2,7,8
 47 376 47 376 56 376 c 2,9,-1
 61 376 l 2,10,11
 91 376 91 376 109.5 363 c 128,-1,12
 128 350 128 350 135 327 c 1,13,14
 150 350 150 350 180 367 c 128,-1,15
 210 384 210 384 253 384 c 0,16,17
 311 384 311 384 350 358.5 c 128,-1,18
 389 333 389 333 409.5 289 c 128,-1,19
 430 245 430 245 430 189 c 0,20,21
 430 135 430 135 410.5 90 c 128,-1,22
 391 45 391 45 353 18 c 128,-1,23
 315 -9 315 -9 259 -9 c 0,24,25
 222 -9 222 -9 191.5 4.5 c 128,-1,26
 161 18 161 18 141 44 c 1,0,-1
238 81 m 256,27,28
 256 81 256 81 277.5 90 c 128,-1,29
 299 99 299 99 315 122.5 c 128,-1,30
 331 146 331 146 331 189 c 0,31,32
 331 231 331 231 315.5 253.5 c 128,-1,33
 300 276 300 276 278 285 c 128,-1,34
 256 294 256 294 236 294 c 0,35,36
 218 294 218 294 196 286.5 c 128,-1,37
 174 279 174 279 157.5 256.5 c 128,-1,38
 141 234 141 234 141 189 c 0,39,40
 141 145 141 145 157.5 121.5 c 128,-1,41
 174 98 174 98 197 89.5 c 128,-1,42
 220 81 220 81 238 81 c 256,27,28
EndSplineSet
EndChar

StartChar: q
Encoding: 113 113 83
Width: 463
GlyphClass: 1
Flags: W
LayerCount: 2
Fore
SplineSet
322 47 m 1,0,1
 280 -9 280 -9 205 -9 c 0,2,3
 149 -9 149 -9 110.5 18 c 128,-1,4
 72 45 72 45 52.5 90 c 128,-1,5
 33 135 33 135 33 189 c 0,6,7
 33 245 33 245 54.5 289.5 c 128,-1,8
 76 334 76 334 115.5 360 c 128,-1,9
 155 386 155 386 208 386 c 0,10,11
 252 386 252 386 282.5 370 c 128,-1,12
 313 354 313 354 331 332 c 1,13,14
 338 355 338 355 356.5 365.5 c 128,-1,15
 375 376 375 376 403 376 c 2,16,-1
 408 376 l 2,17,18
 418 376 418 376 418 364 c 2,19,-1
 418 -149 l 2,20,21
 418 -160 418 -160 408 -160 c 2,22,-1
 333 -160 l 2,23,24
 322 -160 322 -160 322 -149 c 2,25,-1
 322 47 l 1,0,1
227 81 m 0,26,27
 246 81 246 81 268 89.5 c 128,-1,28
 290 98 290 98 306 121 c 128,-1,29
 322 144 322 144 322 189 c 256,30,31
 322 234 322 234 306 256.5 c 128,-1,32
 290 279 290 279 268 286.5 c 128,-1,33
 246 294 246 294 228 294 c 0,34,35
 208 294 208 294 185 285 c 128,-1,36
 162 276 162 276 146.5 253.5 c 128,-1,37
 131 231 131 231 131 189 c 0,38,39
 131 146 131 146 147.5 122.5 c 128,-1,40
 164 99 164 99 186.5 90 c 128,-1,41
 209 81 209 81 227 81 c 0,26,27
EndSplineSet
EndChar

StartChar: r
Encoding: 114 114 84
Width: 289
GlyphClass: 1
Flags: W
LayerCount: 2
Fore
SplineSet
138 321 m 1,0,1
 155 353 155 353 179 364.5 c 128,-1,2
 203 376 203 376 244 376 c 2,3,-1
 255 376 l 2,4,5
 265 376 265 376 265 364 c 2,6,-1
 265 296 l 2,7,8
 265 284 265 284 255 284 c 2,9,-1
 229 284 l 2,10,11
 174 284 174 284 157.5 256.5 c 128,-1,12
 141 229 141 229 141 176 c 2,13,-1
 141 11 l 2,14,15
 141 0 141 0 131 0 c 2,16,-1
 56 0 l 2,17,18
 47 0 47 0 47 11 c 2,19,-1
 47 364 l 2,20,21
 47 376 47 376 56 376 c 2,22,-1
 61 376 l 2,23,24
 126 376 126 376 138 321 c 1,0,1
EndSplineSet
EndChar

StartChar: s
Encoding: 115 115 85
Width: 324
GlyphClass: 1
Flags: W
LayerCount: 2
Fore
SplineSet
38 109 m 0,0,1
 61 90 61 90 86.5 79 c 128,-1,2
 112 68 112 68 148 68 c 0,3,4
 209 68 209 68 209 107 c 0,5,6
 209 124 209 124 190.5 134 c 128,-1,7
 172 144 172 144 145.5 153 c 128,-1,8
 119 162 119 162 92 175 c 128,-1,9
 65 188 65 188 46.5 209.5 c 128,-1,10
 28 231 28 231 28 268 c 0,11,12
 28 309 28 309 48.5 334.5 c 128,-1,13
 69 360 69 360 102.5 372 c 128,-1,14
 136 384 136 384 174 384 c 0,15,16
 221 384 221 384 252 369 c 0,17,18
 278 358 278 358 286 342.5 c 128,-1,19
 294 327 294 327 286 299 c 2,20,-1
 283 288 l 2,21,22
 280 280 280 280 275 280 c 0,23,24
 272 280 272 280 270 281.5 c 128,-1,25
 268 283 268 283 264 284 c 0,26,27
 217 307 217 307 172 307 c 0,28,29
 152 307 152 307 138 299 c 128,-1,30
 124 291 124 291 124 274 c 256,31,32
 124 257 124 257 142.5 246.5 c 128,-1,33
 161 236 161 236 187.5 227 c 128,-1,34
 214 218 214 218 241 205 c 128,-1,35
 268 192 268 192 286.5 171 c 128,-1,36
 305 150 305 150 305 115 c 0,37,38
 305 59 305 59 265 24.5 c 128,-1,39
 225 -10 225 -10 159 -10 c 0,40,41
 117 -10 117 -10 85.5 4.5 c 128,-1,42
 54 19 54 19 36 43 c 128,-1,43
 18 67 18 67 18 93 c 0,44,45
 18 113 18 113 30 113 c 0,46,47
 34 113 34 113 38 109 c 0,0,1
EndSplineSet
EndChar

StartChar: t
Encoding: 116 116 86
Width: 297
GlyphClass: 1
Flags: W
LayerCount: 2
Fore
SplineSet
91 289 m 1,0,-1
 25 289 l 2,1,2
 14 289 14 289 14 301 c 2,3,-1
 14 364 l 2,4,5
 14 376 14 376 25 376 c 2,6,-1
 91 376 l 1,7,-1
 91 497 l 2,8,9
 91 508 91 508 101 508 c 2,10,-1
 106 508 l 2,11,12
 145 508 145 508 165.5 488 c 128,-1,13
 186 468 186 468 186 424 c 2,14,-1
 186 376 l 1,15,-1
 267 376 l 2,16,17
 276 376 276 376 276 364 c 2,18,-1
 276 301 l 2,19,20
 276 289 276 289 267 289 c 2,21,-1
 186 289 l 1,22,-1
 186 11 l 2,23,24
 186 0 186 0 176 0 c 2,25,-1
 101 0 l 2,26,27
 91 0 91 0 91 11 c 2,28,-1
 91 289 l 1,0,-1
EndSplineSet
EndChar

StartChar: u
Encoding: 117 117 87
Width: 441
GlyphClass: 1
Flags: W
LayerCount: 2
Fore
SplineSet
219 -10 m 0,0,1
 128 -10 128 -10 87 43 c 128,-1,2
 46 96 46 96 46 182 c 2,3,-1
 46 364 l 2,4,5
 46 376 46 376 56 376 c 2,6,-1
 61 376 l 2,7,8
 100 376 100 376 121 356 c 128,-1,9
 142 336 142 336 142 291 c 2,10,-1
 142 170 l 2,11,12
 142 122 142 122 164 100 c 128,-1,13
 186 78 186 78 219 78 c 0,14,15
 253 78 253 78 276 98.5 c 128,-1,16
 299 119 299 119 299 169 c 2,17,-1
 299 364 l 2,18,19
 299 376 299 376 310 376 c 2,20,-1
 315 376 l 2,21,22
 354 376 354 376 374.5 356 c 128,-1,23
 395 336 395 336 395 291 c 2,24,-1
 395 176 l 2,25,26
 395 91 395 91 353 40.5 c 128,-1,27
 311 -10 311 -10 219 -10 c 0,0,1
EndSplineSet
EndChar

StartChar: v
Encoding: 118 118 88
Width: 383
GlyphClass: 1
Flags: W
LayerCount: 2
Fore
SplineSet
194 94 m 1,0,-1
 277 363 l 2,1,2
 280 376 280 376 292 376 c 2,3,-1
 367 376 l 2,4,5
 372 376 372 376 374 372 c 128,-1,6
 376 368 376 368 374 364 c 2,7,-1
 252 11 l 2,8,9
 250 5 250 5 247.5 2.5 c 128,-1,10
 245 0 245 0 238 0 c 2,11,-1
 148 0 l 2,12,13
 137 0 137 0 133 11 c 2,14,-1
 12 364 l 2,15,16
 9 376 9 376 18 376 c 2,17,-1
 35 376 l 2,18,19
 77 376 77 376 97.5 359 c 128,-1,20
 118 342 118 342 132 294 c 2,21,-1
 194 94 l 1,0,-1
EndSplineSet
EndChar

StartChar: w
Encoding: 119 119 89
Width: 594
GlyphClass: 1
Flags: W
LayerCount: 2
Fore
SplineSet
181 116 m 1,0,-1
 251 363 l 2,1,2
 255 376 255 376 267 376 c 2,3,-1
 277 376 l 2,4,5
 318 376 318 376 338.5 359.5 c 128,-1,6
 359 343 359 343 372 294 c 2,7,-1
 422 115 l 1,8,-1
 492 363 l 2,9,10
 496 376 496 376 509 376 c 2,11,-1
 573 376 l 2,12,13
 584 376 584 376 581 364 c 2,14,-1
 474 11 l 2,15,16
 471 0 471 0 460 0 c 2,17,-1
 385 0 l 2,18,19
 375 0 375 0 371 11 c 2,20,-1
 300 252 l 1,21,-1
 230 11 l 2,22,23
 226 0 226 0 216 0 c 2,24,-1
 139 0 l 2,25,26
 128 0 128 0 125 11 c 2,27,-1
 15 364 l 2,28,29
 14 368 14 368 16.5 372 c 128,-1,30
 19 376 19 376 23 376 c 2,31,-1
 38 376 l 2,32,33
 79 376 79 376 99.5 359 c 128,-1,34
 120 342 120 342 132 294 c 2,35,-1
 181 116 l 1,0,-1
EndSplineSet
EndChar

StartChar: x
Encoding: 120 120 90
Width: 384
GlyphClass: 1
Flags: W
LayerCount: 2
Fore
SplineSet
190 140 m 1,0,-1
 112 12 l 2,1,2
 104 0 104 0 93 0 c 2,3,-1
 19 0 l 2,4,5
 15 0 15 0 13.5 3.5 c 128,-1,6
 12 7 12 7 14 11 c 2,7,-1
 131 197 l 1,8,-1
 27 364 l 2,9,10
 25 368 25 368 26 372 c 128,-1,11
 27 376 27 376 32 376 c 2,12,-1
 67 376 l 2,13,14
 91 376 91 376 106 371 c 128,-1,15
 121 366 121 366 133.5 352 c 128,-1,16
 146 338 146 338 162 311 c 2,17,-1
 193 263 l 1,18,-1
 255 363 l 2,19,20
 265 376 265 376 277 376 c 2,21,-1
 345 376 l 2,22,23
 351 376 351 376 352.5 372 c 128,-1,24
 354 368 354 368 352 364 c 2,25,-1
 254 203 l 1,26,-1
 373 11 l 2,27,28
 375 7 375 7 373.5 3.5 c 128,-1,29
 372 0 372 0 367 0 c 2,30,-1
 290 0 l 2,31,32
 277 0 277 0 270 12 c 2,33,-1
 190 140 l 1,0,-1
EndSplineSet
EndChar

StartChar: y
Encoding: 121 121 91
Width: 388
GlyphClass: 1
Flags: W
LayerCount: 2
Fore
SplineSet
145 -9 m 1,0,-1
 11 364 l 2,1,2
 10 368 10 368 11.5 372 c 128,-1,3
 13 376 13 376 17 376 c 2,4,-1
 38 376 l 2,5,6
 79 376 79 376 98.5 359 c 128,-1,7
 118 342 118 342 135 295 c 2,8,-1
 197 109 l 1,9,-1
 281 363 l 2,10,11
 287 376 287 376 297 376 c 2,12,-1
 371 376 l 2,13,14
 376 376 376 376 377 372 c 128,-1,15
 378 368 378 368 377 364 c 2,16,-1
 247 -1 l 2,17,18
 230 -50 230 -50 210.5 -88.5 c 128,-1,19
 191 -127 191 -127 163 -149 c 128,-1,20
 135 -171 135 -171 92 -171 c 0,21,22
 60 -171 60 -171 38 -157.5 c 128,-1,23
 16 -144 16 -144 5 -123 c 128,-1,24
 -6 -102 -6 -102 -6 -82 c 0,25,26
 -6 -75 -6 -75 -3 -69 c 128,-1,27
 0 -63 0 -63 6 -63 c 0,28,29
 8 -63 8 -63 10.5 -64.5 c 128,-1,30
 13 -66 13 -66 15 -68 c 0,31,32
 42 -88 42 -88 69 -88 c 0,33,34
 97 -88 97 -88 113 -70.5 c 128,-1,35
 129 -53 129 -53 145 -9 c 1,0,-1
EndSplineSet
EndChar

StartChar: z
Encoding: 122 122 92
Width: 349
GlyphClass: 1
Flags: W
LayerCount: 2
Fore
SplineSet
149 86 m 1,0,-1
 311 86 l 2,1,2
 321 86 321 86 321 74 c 2,3,-1
 321 11 l 2,4,5
 321 0 321 0 311 0 c 2,6,-1
 38 0 l 2,7,8
 27 0 27 0 27 11 c 2,9,-1
 27 54 l 2,10,11
 27 65 27 65 30 71 c 128,-1,12
 33 77 33 77 40 87 c 2,13,-1
 204 290 l 1,14,-1
 45 290 l 2,15,16
 34 290 34 290 34 301 c 2,17,-1
 34 364 l 2,18,19
 34 376 34 376 45 376 c 2,20,-1
 259 376 l 2,21,22
 292 376 292 376 305 361.5 c 128,-1,23
 318 347 318 347 318 311 c 0,24,25
 318 291 318 291 305 275 c 2,26,-1
 149 86 l 1,0,-1
EndSplineSet
EndChar

StartChar: braceleft
Encoding: 123 123 93
Width: 346
GlyphClass: 1
Flags: W
LayerCount: 2
Fore
SplineSet
283 -144 m 2,0,-1
 172 -144 l 2,1,2
 140 -144 140 -144 121 -126 c 128,-1,3
 102 -108 102 -108 102 -77 c 2,4,-1
 102 179 l 2,5,6
 102 209 102 209 90.5 221.5 c 128,-1,7
 79 234 79 234 62 237 c 0,8,9
 48 239 48 239 48 253 c 2,10,-1
 48 299 l 2,11,12
 48 314 48 314 62 314 c 0,13,14
 79 317 79 317 90.5 330 c 128,-1,15
 102 343 102 343 102 374 c 2,16,-1
 102 628 l 2,17,18
 102 660 102 660 121 678 c 128,-1,19
 140 696 140 696 172 696 c 2,20,-1
 283 696 l 2,21,22
 301 696 301 696 301 678 c 2,23,-1
 301 672 l 2,24,25
 301 645 301 645 284.5 629.5 c 128,-1,26
 268 614 268 614 239 614 c 2,27,-1
 202 614 l 2,28,29
 190 614 190 614 190 601 c 2,30,-1
 190 368 l 2,31,32
 190 331 190 331 180.5 310 c 128,-1,33
 171 289 171 289 156 276 c 1,34,35
 171 264 171 264 180.5 243 c 128,-1,36
 190 222 190 222 190 184 c 2,37,-1
 190 -49 l 2,38,39
 190 -63 190 -63 202 -63 c 2,40,-1
 239 -63 l 2,41,42
 268 -63 268 -63 284.5 -78 c 128,-1,43
 301 -93 301 -93 301 -120 c 2,44,-1
 301 -127 l 2,45,46
 301 -144 301 -144 283 -144 c 2,0,-1
EndSplineSet
EndChar

StartChar: bar
Encoding: 124 124 94
Width: 194
GlyphClass: 1
Flags: W
LayerCount: 2
Fore
SplineSet
65 -149 m 2,0,1
 55 -149 55 -149 55 -138 c 2,2,-1
 55 556 l 2,3,4
 55 566 55 566 65 566 c 0,5,6
 99 566 99 566 119 546.5 c 128,-1,7
 139 527 139 527 139 482 c 2,8,-1
 139 -138 l 2,9,10
 139 -149 139 -149 128 -149 c 2,11,-1
 65 -149 l 2,0,1
EndSplineSet
EndChar

StartChar: braceright
Encoding: 125 125 95
Width: 346
GlyphClass: 1
Flags: W
LayerCount: 2
Fore
SplineSet
174 -144 m 2,0,-1
 63 -144 l 2,1,2
 45 -144 45 -144 45 -127 c 2,3,-1
 45 -120 l 2,4,5
 45 -93 45 -93 61.5 -78 c 128,-1,6
 78 -63 78 -63 107 -63 c 2,7,-1
 143 -63 l 2,8,9
 156 -63 156 -63 156 -49 c 2,10,-1
 156 184 l 2,11,12
 156 222 156 222 165.5 243 c 128,-1,13
 175 264 175 264 189 276 c 1,14,15
 175 289 175 289 165.5 310 c 128,-1,16
 156 331 156 331 156 368 c 2,17,-1
 156 601 l 2,18,19
 156 614 156 614 143 614 c 2,20,-1
 107 614 l 2,21,22
 78 614 78 614 61.5 629.5 c 128,-1,23
 45 645 45 645 45 672 c 2,24,-1
 45 678 l 2,25,26
 45 696 45 696 63 696 c 2,27,-1
 174 696 l 2,28,29
 206 696 206 696 224.5 678 c 128,-1,30
 243 660 243 660 243 628 c 2,31,-1
 243 374 l 2,32,33
 243 343 243 343 255 330 c 128,-1,34
 267 317 267 317 283 314 c 0,35,36
 298 314 298 314 298 299 c 2,37,-1
 298 253 l 2,38,39
 298 239 298 239 283 237 c 0,40,41
 267 234 267 234 255 221.5 c 128,-1,42
 243 209 243 209 243 179 c 2,43,-1
 243 -77 l 2,44,45
 243 -108 243 -108 224.5 -126 c 128,-1,46
 206 -144 206 -144 174 -144 c 2,0,-1
EndSplineSet
PairPos2: "'kern' Horizontal Kerning lookup 2 per glyph data 1" uni0698 dx=-33 dy=0 dh=-33 dv=0 dx=0 dy=0 dh=0 dv=0
PairPos2: "'kern' Horizontal Kerning lookup 2 per glyph data 1" uni0695 dx=-33 dy=0 dh=-33 dv=0 dx=0 dy=0 dh=0 dv=0
PairPos2: "'kern' Horizontal Kerning lookup 2 per glyph data 1" uni0694 dx=-33 dy=0 dh=-33 dv=0 dx=0 dy=0 dh=0 dv=0
PairPos2: "'kern' Horizontal Kerning lookup 2 per glyph data 1" uni0691 dx=-15 dy=0 dh=-15 dv=0 dx=0 dy=0 dh=0 dv=0
PairPos2: "'kern' Horizontal Kerning lookup 2 per glyph data 1" uni0671 dx=11 dy=0 dh=11 dv=0 dx=0 dy=0 dh=0 dv=0
PairPos2: "'kern' Horizontal Kerning lookup 2 per glyph data 1" uni0632 dx=-33 dy=0 dh=-33 dv=0 dx=0 dy=0 dh=0 dv=0
PairPos2: "'kern' Horizontal Kerning lookup 2 per glyph data 1" uni0631 dx=-33 dy=0 dh=-33 dv=0 dx=0 dy=0 dh=0 dv=0
PairPos2: "'kern' Horizontal Kerning lookup 2 per glyph data 1" uni0625 dx=7 dy=0 dh=7 dv=0 dx=0 dy=0 dh=0 dv=0
PairPos2: "'kern' Horizontal Kerning lookup 2 per glyph data 1" uni0623 dx=9 dy=0 dh=9 dv=0 dx=0 dy=0 dh=0 dv=0
PairPos2: "'kern' Horizontal Kerning lookup 2 per glyph data 1" uni0622 dx=18 dy=0 dh=18 dv=0 dx=0 dy=0 dh=0 dv=0
EndChar

StartChar: asciitilde
Encoding: 126 126 96
Width: 423
GlyphClass: 1
Flags: W
LayerCount: 2
Fore
SplineSet
49 221 m 0,0,1
 47 218 47 218 43 218.5 c 128,-1,2
 39 219 39 219 39 224 c 2,3,-1
 39 281 l 2,4,5
 39 291 39 291 40.5 297 c 128,-1,6
 42 303 42 303 49 308 c 0,7,8
 68 324 68 324 87 331.5 c 128,-1,9
 106 339 106 339 130 339 c 0,10,11
 163 339 163 339 190 329 c 128,-1,12
 217 319 217 319 242 309 c 128,-1,13
 267 299 267 299 294 299 c 0,14,15
 318 299 318 299 337.5 306.5 c 128,-1,16
 357 314 357 314 376 334 c 0,17,18
 379 337 379 337 382.5 336.5 c 128,-1,19
 386 336 386 336 386 331 c 2,20,-1
 386 274 l 2,21,22
 386 263 386 263 384.5 257.5 c 128,-1,23
 383 252 383 252 376 246 c 0,24,25
 341 215 341 215 294 215 c 0,26,27
 261 215 261 215 234 225 c 128,-1,28
 207 235 207 235 182.5 244.5 c 128,-1,29
 158 254 158 254 130 254 c 0,30,31
 106 254 106 254 87.5 247.5 c 128,-1,32
 69 241 69 241 49 221 c 0,0,1
EndSplineSet
EndChar

StartChar: exclamdown
Encoding: 161 161 97
Width: 183
GlyphClass: 1
Flags: W
LayerCount: 2
Fore
SplineSet
89 264 m 256,0,1
 64 264 64 264 47 281 c 128,-1,2
 30 298 30 298 30 324 c 256,3,4
 30 350 30 350 47 367 c 128,-1,5
 64 384 64 384 89 384 c 256,6,7
 114 384 114 384 131 367 c 128,-1,8
 148 350 148 350 148 324 c 256,9,10
 148 298 148 298 131 281 c 128,-1,11
 114 264 114 264 89 264 c 256,0,1
50 -181 m 2,12,13
 39 -181 39 -181 39 -170 c 2,14,-1
 48 210 l 2,15,16
 48 221 48 221 59 221 c 0,17,18
 127 221 127 221 130 134 c 2,19,-1
 138 -170 l 2,20,21
 138 -181 138 -181 128 -181 c 2,22,-1
 50 -181 l 2,12,13
EndSplineSet
EndChar

StartChar: cent
Encoding: 162 162 98
Width: 366
GlyphClass: 1
Flags: W
LayerCount: 2
Fore
SplineSet
253 -5 m 1,0,-1
 253 -56 l 2,1,2
 253 -67 253 -67 243 -67 c 2,3,-1
 208 -67 l 2,4,5
 196 -67 196 -67 196 -56 c 2,6,-1
 196 -9 l 1,7,8
 123 -4 123 -4 77.5 48.5 c 128,-1,9
 32 101 32 101 32 188 c 0,10,11
 32 271 32 271 77.5 323.5 c 128,-1,12
 123 376 123 376 196 383 c 1,13,-1
 196 438 l 2,14,15
 196 448 196 448 208 448 c 2,16,-1
 243 448 l 2,17,18
 253 448 253 448 253 438 c 2,19,-1
 253 383 l 1,20,21
 266 382 266 382 277 379.5 c 128,-1,22
 288 377 288 377 299 372 c 0,23,24
 325 362 325 362 333.5 345.5 c 128,-1,25
 342 329 342 329 334 301 c 2,26,-1
 329 282 l 2,27,28
 325 274 325 274 320 274 c 0,29,30
 319 274 319 274 316 274.5 c 128,-1,31
 313 275 313 275 311 276 c 0,32,33
 295 284 295 284 282 289.5 c 128,-1,34
 269 295 269 295 253 296 c 1,35,-1
 253 73 l 1,36,37
 276 75 276 75 294.5 84.5 c 128,-1,38
 313 94 313 94 324 102 c 0,39,40
 332 108 332 108 336 108 c 0,41,42
 346 108 346 108 346 93 c 0,43,44
 346 77 346 77 336.5 56.5 c 128,-1,45
 327 36 327 36 307 19 c 128,-1,46
 287 2 287 2 253 -5 c 1,0,-1
196 78 m 1,47,-1
 196 293 l 1,48,49
 166 284 166 284 147 257.5 c 128,-1,50
 128 231 128 231 128 186 c 0,51,52
 128 144 128 144 145 116 c 128,-1,53
 162 88 162 88 196 78 c 1,47,-1
EndSplineSet
EndChar

StartChar: sterling
Encoding: 163 163 99
Width: 468
GlyphClass: 1
Flags: W
LayerCount: 2
Fore
SplineSet
229 89 m 1,0,-1
 374 89 l 2,1,2
 433 89 433 89 433 34 c 2,3,-1
 433 14 l 2,4,5
 433 0 433 0 419 0 c 2,6,-1
 52 0 l 2,7,8
 41 0 41 0 41 11 c 2,9,-1
 41 78 l 2,10,11
 41 89 41 89 52 89 c 2,12,-1
 135 89 l 1,13,14
 144 110 144 110 151.5 138 c 128,-1,15
 159 166 159 166 159 193 c 0,16,17
 159 205 159 205 156.5 216 c 128,-1,18
 154 227 154 227 149 239 c 1,19,-1
 52 239 l 2,20,21
 41 239 41 239 41 250 c 2,22,-1
 41 317 l 2,23,24
 41 328 41 328 52 328 c 2,25,-1
 111 328 l 1,26,27
 101 348 101 348 95.5 367 c 128,-1,28
 90 386 90 386 90 409 c 0,29,30
 90 487 90 487 142 526.5 c 128,-1,31
 194 566 194 566 274 566 c 0,32,33
 309 566 309 566 335.5 560 c 128,-1,34
 362 554 362 554 385 543 c 0,35,36
 417 529 417 529 426 512 c 128,-1,37
 435 495 435 495 427 469 c 2,38,-1
 419 448 l 2,39,40
 417 439 417 439 410 439 c 0,41,42
 408 439 408 439 404 441 c 128,-1,43
 400 443 400 443 395 444 c 0,44,45
 364 461 364 461 337 470 c 128,-1,46
 310 479 310 479 275 479 c 0,47,48
 236 479 236 479 212.5 459.5 c 128,-1,49
 189 440 189 440 189 404 c 0,50,51
 189 385 189 385 195 367 c 128,-1,52
 201 349 201 349 210 328 c 1,53,-1
 324 328 l 2,54,55
 383 328 383 328 383 273 c 2,56,-1
 383 253 l 2,57,58
 383 239 383 239 369 239 c 2,59,-1
 245 239 l 1,60,61
 253 215 253 215 253 193 c 0,62,63
 253 164 253 164 245 137 c 128,-1,64
 237 110 237 110 229 89 c 1,0,-1
EndSplineSet
EndChar

StartChar: yen
Encoding: 165 165 100
Width: 489
GlyphClass: 1
Flags: W
LayerCount: 2
Fore
SplineSet
196 124 m 1,0,-1
 59 124 l 2,1,2
 48 124 48 124 48 135 c 2,3,-1
 48 184 l 2,4,5
 48 195 48 195 59 195 c 2,6,-1
 196 195 l 1,7,-1
 196 208 l 1,8,-1
 173 252 l 1,9,-1
 59 252 l 2,10,11
 48 252 48 252 48 263 c 2,12,-1
 48 311 l 2,13,14
 48 322 48 322 59 322 c 2,15,-1
 135 322 l 1,16,-1
 17 544 l 2,17,18
 15 548 15 548 16.5 552 c 128,-1,19
 18 556 18 556 23 556 c 2,20,-1
 63 556 l 2,21,22
 94 556 94 556 113.5 543.5 c 128,-1,23
 133 531 133 531 149 499 c 2,24,-1
 250 308 l 1,25,-1
 372 542 l 2,26,27
 376 549 376 549 380 552.5 c 128,-1,28
 384 556 384 556 391 556 c 2,29,-1
 468 556 l 2,30,31
 474 556 474 556 475.5 552 c 128,-1,32
 477 548 477 548 475 543 c 2,33,-1
 357 322 l 1,34,-1
 432 322 l 2,35,36
 443 322 443 322 443 311 c 2,37,-1
 443 263 l 2,38,39
 443 252 443 252 432 252 c 2,40,-1
 319 252 l 1,41,-1
 294 206 l 1,42,-1
 294 195 l 1,43,-1
 432 195 l 2,44,45
 443 195 443 195 443 184 c 2,46,-1
 443 135 l 2,47,48
 443 124 443 124 432 124 c 2,49,-1
 294 124 l 1,50,-1
 294 11 l 2,51,52
 294 0 294 0 283 0 c 2,53,-1
 206 0 l 2,54,55
 196 0 196 0 196 11 c 2,56,-1
 196 124 l 1,0,-1
EndSplineSet
EndChar

StartChar: brokenbar
Encoding: 166 166 101
Width: 194
GlyphClass: 1
Flags: W
LayerCount: 2
Fore
SplineSet
65 258 m 2,0,1
 55 258 55 258 55 269 c 2,2,-1
 55 556 l 2,3,4
 55 566 55 566 65 566 c 0,5,6
 99 566 99 566 119 546.5 c 128,-1,7
 139 527 139 527 139 482 c 2,8,-1
 139 269 l 2,9,10
 139 258 139 258 128 258 c 2,11,-1
 65 258 l 2,0,1
65 -149 m 2,12,13
 55 -149 55 -149 55 -138 c 2,14,-1
 55 149 l 2,15,16
 55 160 55 160 65 160 c 2,17,-1
 128 160 l 2,18,19
 139 160 139 160 139 149 c 2,20,-1
 139 -138 l 2,21,22
 139 -149 139 -149 128 -149 c 2,23,-1
 65 -149 l 2,12,13
EndSplineSet
EndChar

StartChar: section
Encoding: 167 167 102
Width: 434
GlyphClass: 1
Flags: W
LayerCount: 2
Fore
SplineSet
319 123 m 1,0,1
 340 106 340 106 354.5 85 c 128,-1,2
 369 64 369 64 369 35 c 0,3,4
 369 -20 369 -20 327.5 -59 c 128,-1,5
 286 -98 286 -98 209 -98 c 0,6,7
 173 -98 173 -98 141 -89 c 128,-1,8
 109 -80 109 -80 87 -63 c 256,9,10
 65 -46 65 -46 58 -27.5 c 128,-1,11
 51 -9 51 -9 60 15 c 2,12,-1
 65 28 l 2,13,14
 67 33 67 33 70.5 34 c 128,-1,15
 74 35 74 35 78 31 c 0,16,17
 97 12 97 12 128 -7 c 128,-1,18
 159 -26 159 -26 199 -26 c 0,19,20
 235 -26 235 -26 252.5 -11 c 128,-1,21
 270 4 270 4 270 24 c 0,22,23
 270 48 270 48 248 65.5 c 128,-1,24
 226 83 226 83 193 99.5 c 128,-1,25
 160 116 160 116 127 135 c 128,-1,26
 94 154 94 154 72 181 c 128,-1,27
 50 208 50 208 50 247 c 0,28,29
 50 288 50 288 73.5 315.5 c 128,-1,30
 97 343 97 343 122 359 c 1,31,32
 104 376 104 376 92 397 c 128,-1,33
 80 418 80 418 80 449 c 0,34,35
 80 504 80 504 122.5 535 c 128,-1,36
 165 566 165 566 227 566 c 0,37,38
 259 566 259 566 281.5 561 c 128,-1,39
 304 556 304 556 319 548 c 0,40,41
 344 536 344 536 348 518.5 c 128,-1,42
 352 501 352 501 346 477 c 2,43,-1
 345 467 l 2,44,45
 344 461 344 461 336 461 c 0,46,47
 333 461 333 461 326 466 c 0,48,49
 304 481 304 481 282 487.5 c 128,-1,50
 260 494 260 494 237 494 c 0,51,52
 209 494 209 494 193 482.5 c 128,-1,53
 177 471 177 471 177 452 c 0,54,55
 177 430 177 430 198.5 414 c 128,-1,56
 220 398 220 398 252 383.5 c 128,-1,57
 284 369 284 369 315.5 351.5 c 128,-1,58
 347 334 347 334 368.5 309 c 128,-1,59
 390 284 390 284 390 246 c 0,60,61
 390 201 390 201 367 171 c 128,-1,62
 344 141 344 141 319 123 c 1,0,1
256 162 m 1,63,64
 271 175 271 175 283 192 c 128,-1,65
 295 209 295 209 295 234 c 0,66,67
 295 254 295 254 278 268.5 c 128,-1,68
 261 283 261 283 235 295.5 c 128,-1,69
 209 308 209 308 182 321 c 1,70,71
 166 310 166 310 153.5 294 c 128,-1,72
 141 278 141 278 141 259 c 0,73,74
 141 237 141 237 157.5 220.5 c 128,-1,75
 174 204 174 204 200.5 190.5 c 128,-1,76
 227 177 227 177 256 162 c 1,63,64
EndSplineSet
EndChar

StartChar: dieresis
Encoding: 168 168 103
Width: 266
GlyphClass: 1
Flags: W
LayerCount: 2
Fore
SplineSet
0 474 m 0,0,1
 0 498 0 498 16 513.5 c 128,-1,2
 32 529 32 529 54 529 c 0,3,4
 77 529 77 529 92.5 513.5 c 128,-1,5
 108 498 108 498 108 474 c 0,6,7
 108 451 108 451 92.5 435 c 128,-1,8
 77 419 77 419 54 419 c 0,9,10
 32 419 32 419 16 435 c 128,-1,11
 0 451 0 451 0 474 c 0,0,1
157 474 m 0,12,13
 157 498 157 498 173 513.5 c 128,-1,14
 189 529 189 529 212 529 c 256,15,16
 235 529 235 529 250 513.5 c 128,-1,17
 265 498 265 498 265 474 c 0,18,19
 265 451 265 451 250 435 c 128,-1,20
 235 419 235 419 212 419 c 256,21,22
 189 419 189 419 173 435 c 128,-1,23
 157 451 157 451 157 474 c 0,12,13
EndSplineSet
EndChar

StartChar: copyright
Encoding: 169 169 104
Width: 499
GlyphClass: 1
Flags: W
LayerCount: 2
Fore
SplineSet
27 339 m 0,0,1
 27 406 27 406 54.5 456.5 c 128,-1,2
 82 507 82 507 132.5 535 c 128,-1,3
 183 563 183 563 250 563 c 256,4,5
 317 563 317 563 366.5 535 c 128,-1,6
 416 507 416 507 444 456.5 c 128,-1,7
 472 406 472 406 472 339 c 0,8,9
 472 273 472 273 444 222.5 c 128,-1,10
 416 172 416 172 366.5 144 c 128,-1,11
 317 116 317 116 250 116 c 256,12,13
 183 116 183 116 132.5 144 c 128,-1,14
 82 172 82 172 54.5 222.5 c 128,-1,15
 27 273 27 273 27 339 c 0,0,1
250 165 m 0,16,17
 328 165 328 165 375.5 213 c 128,-1,18
 423 261 423 261 423 339 c 0,19,20
 423 418 423 418 375.5 466 c 128,-1,21
 328 514 328 514 250 514 c 0,22,23
 171 514 171 514 123.5 466 c 128,-1,24
 76 418 76 418 76 339 c 0,25,26
 76 261 76 261 123.5 213 c 128,-1,27
 171 165 171 165 250 165 c 0,16,17
253 221 m 0,28,29
 203 221 203 221 173 254 c 128,-1,30
 143 287 143 287 143 339 c 0,31,32
 143 397 143 397 177.5 429.5 c 128,-1,33
 212 462 212 462 260 462 c 0,34,35
 276 462 276 462 289 459.5 c 128,-1,36
 302 457 302 457 314 452 c 0,37,38
 327 445 327 445 330 436.5 c 128,-1,39
 333 428 333 428 329 414 c 2,40,-1
 326 403 l 2,41,42
 325 396 325 396 315 401 c 0,43,44
 303 409 303 409 290.5 413 c 128,-1,45
 278 417 278 417 261 417 c 0,46,47
 231 417 231 417 213 396.5 c 128,-1,48
 195 376 195 376 195 339 c 0,49,50
 195 305 195 305 213.5 286 c 128,-1,51
 232 267 232 267 263 267 c 0,52,53
 280 267 280 267 296 274 c 128,-1,54
 312 281 312 281 324 294 c 0,55,56
 329 299 329 299 331 299 c 0,57,58
 338 299 338 299 338 288 c 0,59,60
 338 260 338 260 313 240.5 c 128,-1,61
 288 221 288 221 253 221 c 0,28,29
EndSplineSet
EndChar

StartChar: ordfeminine
Encoding: 170 170 105
Width: 358
GlyphClass: 1
Flags: W
LayerCount: 2
Fore
SplineSet
255 294 m 1,0,1
 239 273 239 273 214 262 c 128,-1,2
 189 251 189 251 159 251 c 0,3,4
 113 251 113 251 81 272 c 128,-1,5
 49 293 49 293 32.5 328.5 c 128,-1,6
 16 364 16 364 16 407 c 0,7,8
 16 451 16 451 34 485.5 c 128,-1,9
 52 520 52 520 84.5 540.5 c 128,-1,10
 117 561 117 561 160 561 c 0,11,12
 198 561 198 561 223 548.5 c 128,-1,13
 248 536 248 536 263 519 c 1,14,15
 276 553 276 553 322 553 c 2,16,-1
 327 553 l 2,17,18
 335 553 335 553 335 544 c 2,19,-1
 335 266 l 2,20,21
 335 258 335 258 328 258 c 2,22,-1
 263 258 l 2,23,24
 255 258 255 258 255 266 c 2,25,-1
 255 294 l 1,0,1
175 321 m 0,26,27
 191 321 191 321 209.5 327.5 c 128,-1,28
 228 334 228 334 241 352.5 c 128,-1,29
 254 371 254 371 254 406 c 256,30,31
 254 441 254 441 241 458.5 c 128,-1,32
 228 476 228 476 210.5 481.5 c 128,-1,33
 193 487 193 487 178 487 c 0,34,35
 162 487 162 487 143.5 480.5 c 128,-1,36
 125 474 125 474 112 456.5 c 128,-1,37
 99 439 99 439 99 406 c 256,38,39
 99 373 99 373 112 354.5 c 128,-1,40
 125 336 125 336 143 328.5 c 128,-1,41
 161 321 161 321 175 321 c 0,26,27
EndSplineSet
EndChar

StartChar: guillemotleft
Encoding: 171 171 106
Width: 414
GlyphClass: 1
Flags: W
LayerCount: 2
Fore
SplineSet
281 192 m 1,0,-1
 391 49 l 2,1,2
 394 45 394 45 392 41.5 c 128,-1,3
 390 38 390 38 385 38 c 2,4,-1
 321 38 l 2,5,6
 306 38 306 38 297 49 c 2,7,-1
 197 178 l 2,8,9
 190 187 190 187 190 192 c 256,10,11
 190 197 190 197 197 206 c 2,12,-1
 297 336 l 2,13,14
 307 347 307 347 321 347 c 2,15,-1
 385 347 l 2,16,17
 390 347 390 347 392 343.5 c 128,-1,18
 394 340 394 340 391 336 c 2,19,-1
 281 192 l 1,0,-1
114 192 m 1,20,-1
 224 49 l 2,21,22
 227 45 227 45 225.5 41.5 c 128,-1,23
 224 38 224 38 219 38 c 2,24,-1
 154 38 l 2,25,26
 139 38 139 38 130 49 c 2,27,-1
 30 178 l 2,28,29
 23 187 23 187 23 192 c 256,30,31
 23 197 23 197 30 206 c 2,32,-1
 130 336 l 2,33,34
 140 347 140 347 154 347 c 2,35,-1
 219 347 l 2,36,37
 224 347 224 347 225.5 343.5 c 128,-1,38
 227 340 227 340 224 336 c 2,39,-1
 114 192 l 1,20,-1
EndSplineSet
EndChar

StartChar: uni00AD
Encoding: 173 173 107
Width: 297
GlyphClass: 1
Flags: W
LayerCount: 2
Fore
SplineSet
44 158 m 2,0,1
 33 158 33 158 33 169 c 2,2,-1
 33 238 l 2,3,4
 33 249 33 249 44 249 c 2,5,-1
 254 249 l 2,6,7
 265 249 265 249 265 238 c 2,8,-1
 265 169 l 2,9,10
 265 158 265 158 254 158 c 2,11,-1
 44 158 l 2,0,1
EndSplineSet
EndChar

StartChar: registered
Encoding: 174 174 108
Width: 499
GlyphClass: 1
Flags: W
LayerCount: 2
Fore
SplineSet
27 339 m 0,0,1
 27 406 27 406 54.5 456.5 c 128,-1,2
 82 507 82 507 132.5 535 c 128,-1,3
 183 563 183 563 250 563 c 256,4,5
 317 563 317 563 366.5 535 c 128,-1,6
 416 507 416 507 444 456.5 c 128,-1,7
 472 406 472 406 472 339 c 0,8,9
 472 273 472 273 444 222.5 c 128,-1,10
 416 172 416 172 366.5 144 c 128,-1,11
 317 116 317 116 250 116 c 256,12,13
 183 116 183 116 132.5 144 c 128,-1,14
 82 172 82 172 54.5 222.5 c 128,-1,15
 27 273 27 273 27 339 c 0,0,1
250 165 m 0,16,17
 328 165 328 165 375.5 213 c 128,-1,18
 423 261 423 261 423 339 c 0,19,20
 423 418 423 418 375.5 466 c 128,-1,21
 328 514 328 514 250 514 c 0,22,23
 171 514 171 514 123.5 466 c 128,-1,24
 76 418 76 418 76 339 c 0,25,26
 76 261 76 261 123.5 213 c 128,-1,27
 171 165 171 165 250 165 c 0,16,17
213 304 m 1,28,-1
 213 233 l 2,29,30
 213 226 213 226 206 226 c 2,31,-1
 170 226 l 2,32,33
 165 226 165 226 165 233 c 2,34,-1
 165 451 l 2,35,36
 165 457 165 457 170 457 c 2,37,-1
 256 457 l 2,38,39
 304 457 304 457 326.5 437 c 128,-1,40
 349 417 349 417 349 382 c 0,41,42
 349 328 349 328 299 309 c 1,43,-1
 350 233 l 2,44,45
 352 230 352 230 351.5 228 c 128,-1,46
 351 226 351 226 349 226 c 2,47,-1
 309 226 l 2,48,49
 301 226 301 226 295 233 c 2,50,-1
 254 304 l 1,51,-1
 213 304 l 1,28,-1
213 346 m 1,52,-1
 256 346 l 2,53,54
 275 346 275 346 288 353.5 c 128,-1,55
 301 361 301 361 301 383 c 0,56,57
 301 402 301 402 289.5 409.5 c 128,-1,58
 278 417 278 417 259 417 c 2,59,-1
 213 417 l 1,60,-1
 213 346 l 1,52,-1
EndSplineSet
EndChar

StartChar: macron
Encoding: 175 175 109
Width: 254
GlyphClass: 1
Flags: W
LayerCount: 2
Fore
SplineSet
11 431 m 2,0,1
 0 431 0 431 0 442 c 2,2,-1
 0 488 l 2,3,4
 0 499 0 499 11 499 c 2,5,-1
 244 499 l 2,6,7
 254 499 254 499 254 488 c 2,8,-1
 254 442 l 2,9,10
 254 431 254 431 244 431 c 2,11,-1
 11 431 l 2,0,1
EndSplineSet
EndChar

StartChar: degree
Encoding: 176 176 110
Width: 254
GlyphClass: 1
Flags: W
LayerCount: 2
Fore
SplineSet
127 368 m 256,0,1
 80 368 80 368 50.5 399.5 c 128,-1,2
 21 431 21 431 21 474 c 0,3,4
 21 521 21 521 50.5 551 c 128,-1,5
 80 581 80 581 127 581 c 256,6,7
 174 581 174 581 203.5 551 c 128,-1,8
 233 521 233 521 233 474 c 0,9,10
 233 431 233 431 203.5 399.5 c 128,-1,11
 174 368 174 368 127 368 c 256,0,1
127 423 m 0,12,13
 148 423 148 423 161.5 438.5 c 128,-1,14
 175 454 175 454 175 474 c 0,15,16
 175 495 175 495 161.5 511 c 128,-1,17
 148 527 148 527 127 527 c 0,18,19
 105 527 105 527 92 511 c 128,-1,20
 79 495 79 495 79 474 c 0,21,22
 79 454 79 454 92 438.5 c 128,-1,23
 105 423 105 423 127 423 c 0,12,13
EndSplineSet
EndChar

StartChar: plusminus
Encoding: 177 177 111
Width: 418
GlyphClass: 1
Flags: W
LayerCount: 2
Fore
SplineSet
166 284 m 1,0,-1
 44 284 l 2,1,2
 33 284 33 284 33 294 c 2,3,-1
 33 354 l 2,4,5
 33 366 33 366 44 366 c 2,6,-1
 166 366 l 1,7,-1
 166 499 l 2,8,9
 166 509 166 509 177 509 c 0,10,11
 218 509 218 509 235 492.5 c 128,-1,12
 252 476 252 476 252 438 c 2,13,-1
 252 366 l 1,14,-1
 374 366 l 2,15,16
 385 366 385 366 385 354 c 2,17,-1
 385 294 l 2,18,19
 385 284 385 284 374 284 c 2,20,-1
 252 284 l 1,21,-1
 252 150 l 2,22,23
 252 139 252 139 241 139 c 2,24,-1
 177 139 l 2,25,26
 166 139 166 139 166 150 c 2,27,-1
 166 284 l 1,0,-1
44 0 m 2,28,29
 33 0 33 0 33 11 c 2,30,-1
 33 71 l 2,31,32
 33 82 33 82 44 82 c 2,33,-1
 324 82 l 2,34,35
 354 82 354 82 369.5 66.5 c 128,-1,36
 385 51 385 51 385 24 c 2,37,-1
 385 11 l 2,38,39
 385 0 385 0 374 0 c 2,40,-1
 44 0 l 2,28,29
EndSplineSet
EndChar

StartChar: twosuperior
Encoding: 178 178 112
Width: 307
GlyphClass: 1
Flags: W
LayerCount: 2
Fore
SplineSet
123 292 m 1,0,-1
 238 292 l 2,1,2
 279 292 279 292 279 253 c 2,3,-1
 279 238 l 2,4,5
 279 228 279 228 270 228 c 2,6,-1
 35 228 l 2,7,8
 28 228 28 228 28 236 c 0,9,10
 28 283 28 283 45 312.5 c 128,-1,11
 62 342 62 342 87 360.5 c 128,-1,12
 112 379 112 379 136.5 393 c 128,-1,13
 161 407 161 407 178 422 c 128,-1,14
 195 437 195 437 195 461 c 0,15,16
 195 501 195 501 141 501 c 0,17,18
 118 501 118 501 99 493 c 128,-1,19
 80 485 80 485 60 474 c 0,20,21
 49 469 49 469 46 478 c 2,22,-1
 38 497 l 2,23,24
 25 527 25 527 54 543 c 0,25,26
 93 566 93 566 149 566 c 0,27,28
 202 566 202 566 238.5 542 c 128,-1,29
 275 518 275 518 275 471 c 0,30,31
 275 439 275 439 261 416 c 128,-1,32
 247 393 247 393 226.5 376 c 128,-1,33
 206 359 206 359 184 346 c 128,-1,34
 162 333 162 333 145 320 c 128,-1,35
 128 307 128 307 123 292 c 1,0,-1
EndSplineSet
EndChar

StartChar: threesuperior
Encoding: 179 179 113
Width: 308
GlyphClass: 1
Flags: W
LayerCount: 2
Fore
SplineSet
218 401 m 1,0,1
 279 382 279 382 279 321 c 0,2,3
 279 276 279 276 247 248.5 c 128,-1,4
 215 221 215 221 153 221 c 0,5,6
 110 221 110 221 82.5 237 c 128,-1,7
 55 253 55 253 42 274.5 c 128,-1,8
 29 296 29 296 29 313 c 0,9,10
 29 318 29 318 31.5 322.5 c 128,-1,11
 34 327 34 327 39 327 c 256,12,13
 44 327 44 327 49 322 c 0,14,15
 65 305 65 305 86.5 294.5 c 128,-1,16
 108 284 108 284 142 284 c 0,17,18
 208 284 208 284 208 326 c 0,19,20
 208 349 208 349 190.5 356 c 128,-1,21
 173 363 173 363 136 363 c 2,22,-1
 123 363 l 2,23,24
 82 363 82 363 82 403 c 2,25,-1
 82 418 l 2,26,27
 82 428 82 428 92 428 c 2,28,-1
 141 428 l 2,29,30
 196 428 196 428 196 466 c 0,31,32
 196 502 196 502 142 502 c 0,33,34
 117 502 117 502 99 495.5 c 128,-1,35
 81 489 81 489 64 478 c 0,36,37
 60 475 60 475 54.5 475 c 128,-1,38
 49 475 49 475 47 482 c 2,39,-1
 39 502 l 2,40,41
 33 516 33 516 38.5 527.5 c 128,-1,42
 44 539 44 539 57 546 c 0,43,44
 73 554 73 554 95.5 560 c 128,-1,45
 118 566 118 566 146 566 c 0,46,47
 201 566 201 566 235 544 c 128,-1,48
 269 522 269 522 269 477 c 0,49,50
 269 449 269 449 255.5 431.5 c 128,-1,51
 242 414 242 414 218 401 c 1,0,1
EndSplineSet
EndChar

StartChar: acute
Encoding: 180 180 114
Width: 201
GlyphClass: 1
Flags: W
LayerCount: 2
Fore
SplineSet
10 430 m 2,0,1
 5 430 5 430 3.5 434.5 c 128,-1,2
 2 439 2 439 5 442 c 2,3,-1
 89 518 l 2,4,5
 100 528 100 528 115 528 c 2,6,-1
 195 528 l 2,7,8
 200 528 200 528 202 524 c 128,-1,9
 204 520 204 520 199 516 c 2,10,-1
 109 441 l 2,11,12
 95 430 95 430 77 430 c 2,13,-1
 10 430 l 2,0,1
EndSplineSet
EndChar

StartChar: paragraph
Encoding: 182 182 115
Width: 437
GlyphClass: 1
Flags: W
LayerCount: 2
Fore
SplineSet
210 221 m 1,0,-1
 205 221 l 2,1,2
 126 221 126 221 79 268 c 128,-1,3
 32 315 32 315 32 391 c 0,4,5
 32 463 32 463 77 509.5 c 128,-1,6
 122 556 122 556 223 556 c 2,7,-1
 294 556 l 2,8,9
 336 556 336 556 357.5 536 c 128,-1,10
 379 516 379 516 379 467 c 2,11,-1
 379 10 l 2,12,13
 379 0 379 0 369 0 c 2,14,-1
 331 0 l 2,15,16
 321 0 321 0 321 10 c 2,17,-1
 321 493 l 1,18,-1
 268 493 l 1,19,-1
 268 10 l 2,20,21
 268 0 268 0 258 0 c 2,22,-1
 220 0 l 2,23,24
 210 0 210 0 210 10 c 2,25,-1
 210 221 l 1,0,-1
EndSplineSet
EndChar

StartChar: periodcentered
Encoding: 183 183 116
Width: 162
GlyphClass: 1
Flags: W
LayerCount: 2
Fore
SplineSet
81 219 m 0,0,1
 56 219 56 219 39 236.5 c 128,-1,2
 22 254 22 254 22 279 c 0,3,4
 22 305 22 305 39 322 c 128,-1,5
 56 339 56 339 81 339 c 0,6,7
 107 339 107 339 123.5 322 c 128,-1,8
 140 305 140 305 140 279 c 0,9,10
 140 254 140 254 123.5 236.5 c 128,-1,11
 107 219 107 219 81 219 c 0,0,1
EndSplineSet
EndChar

StartChar: cedilla
Encoding: 184 184 117
Width: 142
GlyphClass: 1
Flags: W
LayerCount: 2
Fore
SplineSet
8 -109 m 2,0,1
 2 -109 2 -109 1.5 -105 c 128,-1,2
 1 -101 1 -101 3 -97 c 2,3,-1
 61 -6 l 2,4,5
 66 2 66 2 72.5 3.5 c 128,-1,6
 79 5 79 5 88 5 c 2,7,-1
 135 5 l 2,8,9
 146 5 146 5 141 -5 c 2,10,-1
 97 -94 l 2,11,12
 93 -103 93 -103 86 -106 c 128,-1,13
 79 -109 79 -109 70 -109 c 2,14,-1
 8 -109 l 2,0,1
EndSplineSet
EndChar

StartChar: onesuperior
Encoding: 185 185 118
Width: 224
GlyphClass: 1
Flags: W
LayerCount: 2
Fore
SplineSet
97 481 m 1,0,-1
 43 462 l 2,1,2
 33 457 33 457 33 467 c 2,3,-1
 33 523 l 2,4,5
 33 535 33 535 45 538 c 2,6,-1
 77 549 l 2,7,8
 84 551 84 551 92 553.5 c 128,-1,9
 100 556 100 556 108 556 c 2,10,-1
 139 556 l 2,11,12
 176 556 176 556 176 519 c 2,13,-1
 176 237 l 2,14,15
 176 228 176 228 167 228 c 2,16,-1
 106 228 l 2,17,18
 97 228 97 228 97 237 c 2,19,-1
 97 481 l 1,0,-1
EndSplineSet
EndChar

StartChar: ordmasculine
Encoding: 186 186 119
Width: 351
GlyphClass: 1
Flags: W
LayerCount: 2
Fore
SplineSet
16 406 m 256,0,1
 16 476 16 476 59 518.5 c 128,-1,2
 102 561 102 561 175 561 c 0,3,4
 249 561 249 561 291.5 518.5 c 128,-1,5
 334 476 334 476 334 406 c 256,6,7
 334 336 334 336 291.5 293.5 c 128,-1,8
 249 251 249 251 175 251 c 0,9,10
 104 251 104 251 60 293.5 c 128,-1,11
 16 336 16 336 16 406 c 256,0,1
175 322 m 0,12,13
 207 322 207 322 229.5 341.5 c 128,-1,14
 252 361 252 361 252 404 c 0,15,16
 252 448 252 448 229.5 468.5 c 128,-1,17
 207 489 207 489 175 489 c 0,18,19
 144 489 144 489 121.5 468.5 c 128,-1,20
 99 448 99 448 99 406 c 0,21,22
 99 362 99 362 121.5 342 c 128,-1,23
 144 322 144 322 175 322 c 0,12,13
EndSplineSet
EndChar

StartChar: guillemotright
Encoding: 187 187 120
Width: 414
GlyphClass: 1
Flags: W
LayerCount: 2
Fore
SplineSet
135 192 m 1,0,-1
 26 336 l 2,1,2
 23 340 23 340 25 343.5 c 128,-1,3
 27 347 27 347 32 347 c 2,4,-1
 95 347 l 2,5,6
 109 347 109 347 119 336 c 2,7,-1
 220 206 l 2,8,9
 227 197 227 197 227 192 c 256,10,11
 227 187 227 187 220 178 c 2,12,-1
 119 49 l 2,13,14
 110 38 110 38 95 38 c 2,15,-1
 32 38 l 2,16,17
 27 38 27 38 25 41.5 c 128,-1,18
 23 45 23 45 26 49 c 2,19,-1
 135 192 l 1,0,-1
301 192 m 1,20,-1
 193 336 l 2,21,22
 190 340 190 340 192 343.5 c 128,-1,23
 194 347 194 347 198 347 c 2,24,-1
 263 347 l 2,25,26
 276 347 276 347 286 336 c 2,27,-1
 386 206 l 2,28,29
 389 202 389 202 391.5 199 c 128,-1,30
 394 196 394 196 394 192 c 256,31,32
 394 188 394 188 391.5 185 c 128,-1,33
 389 182 389 182 386 178 c 2,34,-1
 286 49 l 2,35,36
 277 38 277 38 263 38 c 2,37,-1
 198 38 l 2,38,39
 194 38 194 38 192 41.5 c 128,-1,40
 190 45 190 45 193 49 c 2,41,-1
 301 192 l 1,20,-1
EndSplineSet
EndChar

StartChar: onequarter
Encoding: 188 188 121
Width: 703
GlyphClass: 1
Flags: W
LayerCount: 2
Fore
SplineSet
139 0 m 2,0,1
 134 0 134 0 132.5 3.5 c 128,-1,2
 131 7 131 7 133 11 c 2,3,-1
 427 544 l 2,4,5
 433 556 433 556 443 556 c 2,6,-1
 456 556 l 2,7,8
 483 556 483 556 492.5 536.5 c 128,-1,9
 502 517 502 517 485 488 c 2,10,-1
 224 11 l 2,11,12
 219 0 219 0 208 0 c 2,13,-1
 139 0 l 2,0,1
97 481 m 1,14,-1
 43 462 l 2,15,16
 33 457 33 457 33 467 c 2,17,-1
 33 523 l 2,18,19
 33 535 33 535 45 538 c 2,20,-1
 77 549 l 2,21,22
 84 551 84 551 92 553.5 c 128,-1,23
 100 556 100 556 108 556 c 2,24,-1
 139 556 l 2,25,26
 176 556 176 556 176 519 c 2,27,-1
 176 237 l 2,28,29
 176 228 176 228 167 228 c 2,30,-1
 106 228 l 2,31,32
 97 228 97 228 97 237 c 2,33,-1
 97 481 l 1,14,-1
540 70 m 1,34,-1
 383 70 l 2,35,36
 374 70 374 70 374 78 c 2,37,-1
 374 112 l 2,38,39
 374 121 374 121 380 131 c 2,40,-1
 507 314 l 2,41,42
 511 320 511 320 516.5 324 c 128,-1,43
 522 328 522 328 532 328 c 2,44,-1
 579 328 l 2,45,46
 596 328 596 328 606 319.5 c 128,-1,47
 616 311 616 311 616 294 c 2,48,-1
 616 130 l 1,49,-1
 635 130 l 2,50,51
 670 130 670 130 670 97 c 2,52,-1
 670 78 l 2,53,54
 670 70 670 70 661 70 c 2,55,-1
 616 70 l 1,56,-1
 616 9 l 2,57,58
 616 0 616 0 606 0 c 2,59,-1
 549 0 l 2,60,61
 540 0 540 0 540 9 c 2,62,-1
 540 70 l 1,34,-1
450 130 m 1,63,-1
 540 130 l 1,64,-1
 540 262 l 1,65,-1
 450 130 l 1,63,-1
EndSplineSet
Ligature2: "'frac' Diagonal Fractions lookup 4 subtable" one fraction four
Ligature2: "'frac' Diagonal Fractions lookup 4 subtable" one slash four
EndChar

StartChar: onehalf
Encoding: 189 189 122
Width: 747
GlyphClass: 1
Flags: W
LayerCount: 2
Fore
SplineSet
474 551 m 0,0,1
 491 545 491 545 494.5 528 c 128,-1,2
 498 511 498 511 485 488 c 2,3,-1
 224 11 l 2,4,5
 219 0 219 0 208 0 c 2,6,-1
 139 0 l 2,7,8
 134 0 134 0 132.5 3.5 c 128,-1,9
 131 7 131 7 133 11 c 2,10,-1
 427 544 l 2,11,12
 433 556 433 556 443 556 c 2,13,-1
 456 556 l 2,14,15
 466 556 466 556 474 551 c 0,0,1
97 481 m 1,16,-1
 43 462 l 2,17,18
 33 457 33 457 33 467 c 2,19,-1
 33 521 l 2,20,21
 33 527 33 527 34 528 c 0,22,23
 36 536 36 536 45 538 c 2,24,-1
 75 548 l 2,25,26
 78 550 78 550 83 551 c 128,-1,27
 88 552 88 552 92 553 c 0,28,29
 95 554 95 554 103 554 c 0,30,31
 108 556 108 556 113.5 556 c 128,-1,32
 119 556 119 556 125 556 c 2,33,-1
 136 556 l 2,34,35
 139 556 139 556 142 556 c 128,-1,36
 145 556 145 556 148 554 c 0,37,38
 172 551 172 551 175 527 c 0,39,40
 176 524 176 524 176 521 c 128,-1,41
 176 518 176 518 176 516 c 2,42,-1
 176 237 l 2,43,44
 176 228 176 228 167 228 c 2,45,-1
 106 228 l 2,46,47
 97 228 97 228 97 237 c 2,48,-1
 97 481 l 1,16,-1
537 65 m 1,49,-1
 650 65 l 2,50,51
 692 65 692 65 692 25 c 2,52,-1
 692 10 l 2,53,54
 692 0 692 0 682 0 c 2,55,-1
 449 0 l 2,56,57
 442 0 442 0 442 8 c 0,58,59
 442 55 442 55 459 84.5 c 128,-1,60
 476 114 476 114 500.5 132.5 c 128,-1,61
 525 151 525 151 550 165 c 128,-1,62
 575 179 575 179 592 194.5 c 128,-1,63
 609 210 609 210 609 234 c 0,64,65
 609 274 609 274 555 274 c 0,66,67
 532 274 532 274 512 266.5 c 128,-1,68
 492 259 492 259 472 248 c 0,69,70
 468 245 468 245 464.5 246.5 c 128,-1,71
 461 248 461 248 460 252 c 2,72,-1
 452 271 l 2,73,74
 439 298 439 298 467 316 c 0,75,76
 485 326 485 326 511 332.5 c 128,-1,77
 537 339 537 339 562 339 c 0,78,79
 616 339 616 339 651.5 315 c 128,-1,80
 687 291 687 291 687 244 c 0,81,82
 687 211 687 211 673.5 188 c 128,-1,83
 660 165 660 165 639.5 148 c 128,-1,84
 619 131 619 131 597 118 c 128,-1,85
 575 105 575 105 558.5 92.5 c 128,-1,86
 542 80 542 80 537 65 c 1,49,-1
EndSplineSet
Ligature2: "'frac' Diagonal Fractions lookup 4 subtable" one fraction two
Ligature2: "'frac' Diagonal Fractions lookup 4 subtable" one slash two
EndChar

StartChar: threequarters
Encoding: 190 190 123
Width: 768
GlyphClass: 1
Flags: W
LayerCount: 2
Fore
SplineSet
218 401 m 1,0,1
 279 382 279 382 279 321 c 0,2,3
 279 276 279 276 247 248.5 c 128,-1,4
 215 221 215 221 153 221 c 0,5,6
 110 221 110 221 82.5 237 c 128,-1,7
 55 253 55 253 42 274.5 c 128,-1,8
 29 296 29 296 29 313 c 0,9,10
 29 318 29 318 31.5 322.5 c 128,-1,11
 34 327 34 327 39 327 c 256,12,13
 44 327 44 327 49 322 c 0,14,15
 65 305 65 305 86.5 294.5 c 128,-1,16
 108 284 108 284 142 284 c 0,17,18
 208 284 208 284 208 326 c 0,19,20
 208 349 208 349 190.5 356 c 128,-1,21
 173 363 173 363 136 363 c 2,22,-1
 123 363 l 2,23,24
 82 363 82 363 82 403 c 2,25,-1
 82 418 l 2,26,27
 82 428 82 428 92 428 c 2,28,-1
 141 428 l 2,29,30
 196 428 196 428 196 466 c 0,31,32
 196 502 196 502 142 502 c 0,33,34
 117 502 117 502 99 495.5 c 128,-1,35
 81 489 81 489 64 478 c 0,36,37
 60 475 60 475 54.5 475 c 128,-1,38
 49 475 49 475 47 482 c 2,39,-1
 39 502 l 2,40,41
 33 516 33 516 38.5 527.5 c 128,-1,42
 44 539 44 539 57 546 c 0,43,44
 73 554 73 554 95.5 560 c 128,-1,45
 118 566 118 566 146 566 c 0,46,47
 201 566 201 566 235 544 c 128,-1,48
 269 522 269 522 269 477 c 0,49,50
 269 449 269 449 255.5 431.5 c 128,-1,51
 242 414 242 414 218 401 c 1,0,1
204 0 m 2,52,53
 199 0 199 0 197.5 3.5 c 128,-1,54
 196 7 196 7 198 11 c 2,55,-1
 491 544 l 2,56,57
 494 550 494 550 497 553 c 128,-1,58
 500 556 500 556 507 556 c 2,59,-1
 520 556 l 2,60,61
 548 556 548 556 557 536.5 c 128,-1,62
 566 517 566 517 550 488 c 2,63,-1
 288 11 l 2,64,65
 283 0 283 0 273 0 c 2,66,-1
 204 0 l 2,52,53
605 70 m 1,67,-1
 448 70 l 2,68,69
 438 70 438 70 438 78 c 2,70,-1
 438 112 l 2,71,72
 438 118 438 118 439.5 121.5 c 128,-1,73
 441 125 441 125 445 131 c 2,74,-1
 572 314 l 2,75,76
 576 320 576 320 581.5 324 c 128,-1,77
 587 328 587 328 597 328 c 2,78,-1
 643 328 l 2,79,80
 660 328 660 328 670 319.5 c 128,-1,81
 680 311 680 311 680 294 c 2,82,-1
 680 130 l 1,83,-1
 698 130 l 2,84,85
 735 130 735 130 735 97 c 2,86,-1
 735 78 l 2,87,88
 735 70 735 70 726 70 c 2,89,-1
 680 70 l 1,90,-1
 680 9 l 2,91,92
 680 0 680 0 670 0 c 2,93,-1
 613 0 l 2,94,95
 605 0 605 0 605 9 c 2,96,-1
 605 70 l 1,67,-1
513 130 m 1,97,-1
 605 130 l 1,98,-1
 605 262 l 1,99,-1
 513 130 l 1,97,-1
EndSplineSet
Ligature2: "'frac' Diagonal Fractions lookup 4 subtable" three fraction four
Ligature2: "'frac' Diagonal Fractions lookup 4 subtable" three slash four
EndChar

StartChar: questiondown
Encoding: 191 191 124
Width: 343
GlyphClass: 1
Flags: W
LayerCount: 2
Fore
SplineSet
206 264 m 256,0,1
 181 264 181 264 163.5 281 c 128,-1,2
 146 298 146 298 146 324 c 256,3,4
 146 350 146 350 163.5 367 c 128,-1,5
 181 384 181 384 206 384 c 256,6,7
 231 384 231 384 248.5 367 c 128,-1,8
 266 350 266 350 266 324 c 256,9,10
 266 298 266 298 248.5 281 c 128,-1,11
 231 264 231 264 206 264 c 256,0,1
10 -44 m 0,12,13
 10 -1 10 -1 28 32 c 128,-1,14
 46 65 46 65 77 93.5 c 128,-1,15
 108 122 108 122 147 152 c 0,16,17
 159 161 159 161 162.5 168.5 c 128,-1,18
 166 176 166 176 166 189 c 2,19,-1
 166 210 l 2,20,21
 166 221 166 221 177 221 c 2,22,-1
 195 221 l 2,23,24
 218 221 218 221 232.5 206.5 c 128,-1,25
 247 192 247 192 247 170 c 0,26,27
 247 144 247 144 233 124 c 128,-1,28
 219 104 219 104 199 87.5 c 128,-1,29
 179 71 179 71 158.5 54.5 c 128,-1,30
 138 38 138 38 124 18 c 128,-1,31
 110 -2 110 -2 110 -29 c 0,32,33
 110 -64 110 -64 133.5 -83.5 c 128,-1,34
 157 -103 157 -103 197 -103 c 0,35,36
 236 -103 236 -103 265.5 -93 c 128,-1,37
 295 -83 295 -83 328 -66 c 0,38,39
 336 -61 336 -61 341 -61 c 0,40,41
 348 -61 348 -61 349 -69 c 2,42,-1
 368 -126 l 2,43,44
 369 -131 369 -131 367.5 -136 c 128,-1,45
 366 -141 366 -141 359 -145 c 0,46,47
 320 -168 320 -168 281 -180 c 128,-1,48
 242 -192 242 -192 196 -192 c 0,49,50
 114 -192 114 -192 62 -154 c 128,-1,51
 10 -116 10 -116 10 -44 c 0,12,13
EndSplineSet
EndChar

StartChar: Agrave
Encoding: 192 192 125
Width: 521
GlyphClass: 1
Flags: W
LayerCount: 2
Fore
SplineSet
151 683 m 2,0,1
 147 687 147 687 148.5 691.5 c 128,-1,2
 150 696 150 696 155 696 c 2,3,-1
 235 696 l 2,4,5
 250 696 250 696 261 686 c 2,6,-1
 345 610 l 2,7,8
 348 607 348 607 346.5 602.5 c 128,-1,9
 345 598 345 598 339 598 c 2,10,-1
 273 598 l 2,11,12
 254 598 254 598 240 609 c 2,13,-1
 151 683 l 2,0,1
154 140 m 1,14,-1
 109 13 l 2,15,16
 105 0 105 0 94 0 c 2,17,-1
 17 0 l 2,18,19
 12 0 12 0 10 3.5 c 128,-1,20
 8 7 8 7 9 11 c 2,21,-1
 203 546 l 2,22,23
 206 556 206 556 215 556 c 2,24,-1
 248 556 l 2,25,26
 284 556 284 556 304 541 c 128,-1,27
 324 526 324 526 340 482 c 2,28,-1
 511 11 l 2,29,30
 513 7 513 7 511 3.5 c 128,-1,31
 509 0 509 0 504 0 c 2,32,-1
 425 0 l 2,33,34
 410 0 410 0 406 13 c 2,35,-1
 361 140 l 1,36,-1
 154 140 l 1,14,-1
184 223 m 1,37,-1
 333 223 l 1,38,-1
 258 438 l 1,39,-1
 184 223 l 1,37,-1
EndSplineSet
EndChar

StartChar: Aacute
Encoding: 193 193 126
Width: 521
GlyphClass: 1
Flags: W
LayerCount: 2
Fore
SplineSet
170 598 m 2,0,1
 166 598 166 598 164 602.5 c 128,-1,2
 162 607 162 607 165 610 c 2,3,-1
 249 686 l 2,4,5
 256 691 256 691 261.5 693.5 c 128,-1,6
 267 696 267 696 276 696 c 2,7,-1
 355 696 l 2,8,9
 361 696 361 696 362.5 691.5 c 128,-1,10
 364 687 364 687 359 683 c 2,11,-1
 270 609 l 2,12,13
 256 598 256 598 237 598 c 2,14,-1
 170 598 l 2,0,1
154 140 m 1,15,-1
 109 13 l 2,16,17
 105 0 105 0 94 0 c 2,18,-1
 17 0 l 2,19,20
 12 0 12 0 10 3.5 c 128,-1,21
 8 7 8 7 9 11 c 2,22,-1
 203 546 l 2,23,24
 206 556 206 556 215 556 c 2,25,-1
 248 556 l 2,26,27
 284 556 284 556 304 541 c 128,-1,28
 324 526 324 526 340 482 c 2,29,-1
 511 11 l 2,30,31
 513 7 513 7 511 3.5 c 128,-1,32
 509 0 509 0 504 0 c 2,33,-1
 425 0 l 2,34,35
 410 0 410 0 406 13 c 2,36,-1
 361 140 l 1,37,-1
 154 140 l 1,15,-1
184 223 m 1,38,-1
 333 223 l 1,39,-1
 258 438 l 1,40,-1
 184 223 l 1,38,-1
EndSplineSet
EndChar

StartChar: Acircumflex
Encoding: 194 194 127
Width: 521
GlyphClass: 1
Flags: W
LayerCount: 2
Fore
SplineSet
261 661 m 1,0,-1
 216 611 l 2,1,2
 204 598 204 598 184 598 c 2,3,-1
 125 598 l 2,4,5
 121 598 121 598 119 602.5 c 128,-1,6
 117 607 117 607 120 610 c 2,7,-1
 195 686 l 2,8,9
 206 696 206 696 223 696 c 2,10,-1
 298 696 l 2,11,12
 307 696 307 696 312.5 695 c 128,-1,13
 318 694 318 694 325 686 c 2,14,-1
 400 610 l 2,15,16
 403 607 403 607 401.5 602.5 c 128,-1,17
 400 598 400 598 394 598 c 2,18,-1
 335 598 l 2,19,20
 316 598 316 598 304 611 c 2,21,-1
 261 661 l 1,0,-1
154 140 m 1,22,-1
 109 13 l 2,23,24
 105 0 105 0 94 0 c 2,25,-1
 17 0 l 2,26,27
 12 0 12 0 10 3.5 c 128,-1,28
 8 7 8 7 9 11 c 2,29,-1
 203 546 l 2,30,31
 206 556 206 556 215 556 c 2,32,-1
 248 556 l 2,33,34
 284 556 284 556 304 541 c 128,-1,35
 324 526 324 526 340 482 c 2,36,-1
 511 11 l 2,37,38
 513 7 513 7 511 3.5 c 128,-1,39
 509 0 509 0 504 0 c 2,40,-1
 425 0 l 2,41,42
 410 0 410 0 406 13 c 2,43,-1
 361 140 l 1,44,-1
 154 140 l 1,22,-1
184 223 m 1,45,-1
 333 223 l 1,46,-1
 258 438 l 1,47,-1
 184 223 l 1,45,-1
EndSplineSet
EndChar

StartChar: Atilde
Encoding: 195 195 128
Width: 521
GlyphClass: 1
Flags: W
LayerCount: 2
Fore
SplineSet
126 597 m 2,0,1
 116 597 116 597 116 608 c 0,2,3
 119 649 119 649 137 672.5 c 128,-1,4
 155 696 155 696 186 696 c 0,5,6
 209 696 209 696 229.5 688 c 128,-1,7
 250 680 250 680 268 672 c 128,-1,8
 286 664 286 664 301 664 c 0,9,10
 318 664 318 664 323 686 c 0,11,12
 324 696 324 696 334 696 c 2,13,-1
 375 696 l 2,14,15
 387 696 387 696 385 686 c 0,16,17
 381 643 381 643 363.5 621.5 c 128,-1,18
 346 600 346 600 308 600 c 0,19,20
 289 600 289 600 269 607.5 c 128,-1,21
 249 615 249 615 231 622 c 128,-1,22
 213 629 213 629 200 629 c 0,23,24
 189 629 189 629 184.5 622.5 c 128,-1,25
 180 616 180 616 179 607 c 0,26,27
 178 597 178 597 166 597 c 2,28,-1
 126 597 l 2,0,1
154 140 m 1,29,-1
 109 13 l 2,30,31
 105 0 105 0 94 0 c 2,32,-1
 17 0 l 2,33,34
 12 0 12 0 10 3.5 c 128,-1,35
 8 7 8 7 9 11 c 2,36,-1
 203 546 l 2,37,38
 206 556 206 556 215 556 c 2,39,-1
 248 556 l 2,40,41
 284 556 284 556 304 541 c 128,-1,42
 324 526 324 526 340 482 c 2,43,-1
 511 11 l 2,44,45
 513 7 513 7 511 3.5 c 128,-1,46
 509 0 509 0 504 0 c 2,47,-1
 425 0 l 2,48,49
 410 0 410 0 406 13 c 2,50,-1
 361 140 l 1,51,-1
 154 140 l 1,29,-1
184 223 m 1,52,-1
 333 223 l 1,53,-1
 258 438 l 1,54,-1
 184 223 l 1,52,-1
EndSplineSet
EndChar

StartChar: Adieresis
Encoding: 196 196 129
Width: 521
GlyphClass: 1
Flags: W
LayerCount: 2
Fore
SplineSet
122 642 m 256,0,1
 122 665 122 665 138 681 c 128,-1,2
 154 697 154 697 176 697 c 0,3,4
 199 697 199 697 214.5 681 c 128,-1,5
 230 665 230 665 230 642 c 256,6,7
 230 619 230 619 214.5 603 c 128,-1,8
 199 587 199 587 176 587 c 0,9,10
 154 587 154 587 138 603 c 128,-1,11
 122 619 122 619 122 642 c 256,0,1
279 642 m 256,12,13
 279 665 279 665 295 681 c 128,-1,14
 311 697 311 697 334 697 c 256,15,16
 357 697 357 697 372 681 c 128,-1,17
 387 665 387 665 387 642 c 256,18,19
 387 619 387 619 372 603 c 128,-1,20
 357 587 357 587 334 587 c 256,21,22
 311 587 311 587 295 603 c 128,-1,23
 279 619 279 619 279 642 c 256,12,13
154 140 m 1,24,-1
 109 13 l 2,25,26
 105 0 105 0 94 0 c 2,27,-1
 17 0 l 2,28,29
 12 0 12 0 10 3.5 c 128,-1,30
 8 7 8 7 9 11 c 2,31,-1
 203 546 l 2,32,33
 206 556 206 556 215 556 c 2,34,-1
 248 556 l 2,35,36
 284 556 284 556 304 541 c 128,-1,37
 324 526 324 526 340 482 c 2,38,-1
 511 11 l 2,39,40
 513 7 513 7 511 3.5 c 128,-1,41
 509 0 509 0 504 0 c 2,42,-1
 425 0 l 2,43,44
 410 0 410 0 406 13 c 2,45,-1
 361 140 l 1,46,-1
 154 140 l 1,24,-1
184 223 m 1,47,-1
 333 223 l 1,48,-1
 258 438 l 1,49,-1
 184 223 l 1,47,-1
EndSplineSet
EndChar

StartChar: Aring
Encoding: 197 197 130
Width: 521
GlyphClass: 1
Flags: W
LayerCount: 2
Fore
SplineSet
178 662 m 256,0,1
 178 693 178 693 200.5 715 c 128,-1,2
 223 737 223 737 254 737 c 0,3,4
 286 737 286 737 308.5 715 c 128,-1,5
 331 693 331 693 331 662 c 256,6,7
 331 631 331 631 308.5 608.5 c 128,-1,8
 286 586 286 586 254 586 c 0,9,10
 223 586 223 586 200.5 608.5 c 128,-1,11
 178 631 178 631 178 662 c 256,0,1
254 628 m 0,12,13
 269 628 269 628 278 638 c 128,-1,14
 287 648 287 648 287 662 c 256,15,16
 287 676 287 676 278 686 c 128,-1,17
 269 696 269 696 254 696 c 0,18,19
 240 696 240 696 230.5 686 c 128,-1,20
 221 676 221 676 221 662 c 256,21,22
 221 648 221 648 230.5 638 c 128,-1,23
 240 628 240 628 254 628 c 0,12,13
154 140 m 1,24,-1
 109 13 l 2,25,26
 105 0 105 0 94 0 c 2,27,-1
 17 0 l 2,28,29
 12 0 12 0 10 3.5 c 128,-1,30
 8 7 8 7 9 11 c 2,31,-1
 203 546 l 2,32,33
 206 556 206 556 215 556 c 2,34,-1
 248 556 l 2,35,36
 284 556 284 556 304 541 c 128,-1,37
 324 526 324 526 340 482 c 2,38,-1
 511 11 l 2,39,40
 513 7 513 7 511 3.5 c 128,-1,41
 509 0 509 0 504 0 c 2,42,-1
 425 0 l 2,43,44
 410 0 410 0 406 13 c 2,45,-1
 361 140 l 1,46,-1
 154 140 l 1,24,-1
184 223 m 1,47,-1
 333 223 l 1,48,-1
 258 438 l 1,49,-1
 184 223 l 1,47,-1
EndSplineSet
EndChar

StartChar: AE
Encoding: 198 198 131
Width: 708
GlyphClass: 1
Flags: W
LayerCount: 2
Fore
SplineSet
179 140 m 1,0,-1
 113 13 l 2,1,2
 107 0 107 0 93 0 c 2,3,-1
 13 0 l 2,4,5
 1 0 1 0 6 11 c 2,6,-1
 294 544 l 2,7,8
 299 556 299 556 314 556 c 2,9,-1
 618 556 l 2,10,11
 675 556 675 556 675 499 c 2,12,-1
 675 478 l 2,13,14
 675 473 675 473 672 468.5 c 128,-1,15
 669 464 669 464 662 464 c 2,16,-1
 449 464 l 1,17,-1
 449 323 l 1,18,-1
 599 323 l 2,19,20
 656 323 656 323 656 269 c 2,21,-1
 656 247 l 2,22,23
 656 233 656 233 643 233 c 2,24,-1
 449 233 l 1,25,-1
 449 91 l 1,26,-1
 627 91 l 2,27,28
 684 91 684 91 684 35 c 2,29,-1
 684 14 l 2,30,31
 684 0 684 0 670 0 c 2,32,-1
 360 0 l 2,33,34
 350 0 350 0 350 11 c 2,35,-1
 350 140 l 1,36,-1
 179 140 l 1,0,-1
222 224 m 1,37,-1
 350 224 l 1,38,-1
 350 466 l 1,39,-1
 222 224 l 1,37,-1
EndSplineSet
EndChar

StartChar: Ccedilla
Encoding: 199 199 132
Width: 511
GlyphClass: 1
Flags: W
LayerCount: 2
Fore
SplineSet
346 -8 m 1,0,-1
 302 -97 l 2,1,2
 298 -106 298 -106 291 -109 c 128,-1,3
 284 -112 284 -112 275 -112 c 2,4,-1
 213 -112 l 2,5,6
 207 -112 207 -112 206.5 -108 c 128,-1,7
 206 -104 206 -104 208 -100 c 2,8,-1
 266 -9 l 1,9,10
 165 3 165 3 104.5 78 c 128,-1,11
 44 153 44 153 44 276 c 0,12,13
 44 367 44 367 78 431.5 c 128,-1,14
 112 496 112 496 171.5 531 c 128,-1,15
 231 566 231 566 308 566 c 0,16,17
 349 566 349 566 380 559 c 128,-1,18
 411 552 411 552 437 541 c 0,19,20
 466 527 466 527 473.5 510 c 128,-1,21
 481 493 481 493 476 467 c 2,22,-1
 470 442 l 2,23,24
 466 431 466 431 460 431 c 0,25,26
 455 431 455 431 445 436 c 0,27,28
 414 453 414 453 383.5 462.5 c 128,-1,29
 353 472 353 472 310 472 c 0,30,31
 236 472 236 472 190 423.5 c 128,-1,32
 144 375 144 375 144 276 c 0,33,34
 144 180 144 180 191 131.5 c 128,-1,35
 238 83 238 83 313 83 c 0,36,37
 366 83 366 83 404 104 c 128,-1,38
 442 125 442 125 461 147 c 0,39,40
 466 153 466 153 469.5 154.5 c 128,-1,41
 473 156 473 156 477 156 c 0,42,43
 492 156 492 156 492 132 c 0,44,45
 492 112 492 112 478 83 c 128,-1,46
 464 54 464 54 432.5 28 c 128,-1,47
 401 2 401 2 346 -8 c 1,0,-1
EndSplineSet
EndChar

StartChar: Egrave
Encoding: 200 200 133
Width: 418
GlyphClass: 1
Flags: W
LayerCount: 2
Fore
SplineSet
97 683 m 2,0,1
 93 687 93 687 94.5 691.5 c 128,-1,2
 96 696 96 696 101 696 c 2,3,-1
 181 696 l 2,4,5
 190 696 190 696 195.5 693.5 c 128,-1,6
 201 691 201 691 208 686 c 2,7,-1
 291 610 l 2,8,9
 294 607 294 607 292.5 602.5 c 128,-1,10
 291 598 291 598 285 598 c 2,11,-1
 219 598 l 2,12,13
 201 598 201 598 187 609 c 2,14,-1
 97 683 l 2,0,1
154 91 m 1,15,-1
 333 91 l 2,16,17
 391 91 391 91 391 35 c 2,18,-1
 391 14 l 2,19,20
 391 0 391 0 378 0 c 2,21,-1
 67 0 l 2,22,23
 56 0 56 0 56 11 c 2,24,-1
 56 544 l 2,25,26
 56 556 56 556 67 556 c 2,27,-1
 325 556 l 2,28,29
 383 556 383 556 383 500 c 2,30,-1
 383 479 l 2,31,32
 383 465 383 465 369 465 c 2,33,-1
 154 465 l 1,34,-1
 154 323 l 1,35,-1
 305 323 l 2,36,37
 363 323 363 323 363 268 c 2,38,-1
 363 246 l 2,39,40
 363 232 363 232 350 232 c 2,41,-1
 154 232 l 1,42,-1
 154 91 l 1,15,-1
EndSplineSet
EndChar

StartChar: Eacute
Encoding: 201 201 134
Width: 418
GlyphClass: 1
Flags: W
LayerCount: 2
Fore
SplineSet
137 598 m 2,0,1
 132 598 132 598 130.5 602.5 c 128,-1,2
 129 607 129 607 132 610 c 2,3,-1
 216 686 l 2,4,5
 223 691 223 691 228.5 693.5 c 128,-1,6
 234 696 234 696 243 696 c 2,7,-1
 322 696 l 2,8,9
 327 696 327 696 329 691.5 c 128,-1,10
 331 687 331 687 326 683 c 2,11,-1
 237 609 l 2,12,13
 223 598 223 598 204 598 c 2,14,-1
 137 598 l 2,0,1
154 91 m 1,15,-1
 333 91 l 2,16,17
 391 91 391 91 391 35 c 2,18,-1
 391 14 l 2,19,20
 391 0 391 0 378 0 c 2,21,-1
 67 0 l 2,22,23
 56 0 56 0 56 11 c 2,24,-1
 56 544 l 2,25,26
 56 556 56 556 67 556 c 2,27,-1
 325 556 l 2,28,29
 383 556 383 556 383 500 c 2,30,-1
 383 479 l 2,31,32
 383 465 383 465 369 465 c 2,33,-1
 154 465 l 1,34,-1
 154 323 l 1,35,-1
 305 323 l 2,36,37
 363 323 363 323 363 268 c 2,38,-1
 363 246 l 2,39,40
 363 232 363 232 350 232 c 2,41,-1
 154 232 l 1,42,-1
 154 91 l 1,15,-1
EndSplineSet
EndChar

StartChar: Ecircumflex
Encoding: 202 202 135
Width: 418
GlyphClass: 1
Flags: W
LayerCount: 2
Fore
SplineSet
214 661 m 1,0,-1
 169 611 l 2,1,2
 157 598 157 598 137 598 c 2,3,-1
 78 598 l 2,4,5
 74 598 74 598 72 602.5 c 128,-1,6
 70 607 70 607 73 610 c 2,7,-1
 148 686 l 2,8,9
 159 696 159 696 176 696 c 2,10,-1
 250 696 l 2,11,12
 260 696 260 696 265.5 695 c 128,-1,13
 271 694 271 694 278 686 c 2,14,-1
 353 610 l 2,15,16
 356 607 356 607 354.5 602.5 c 128,-1,17
 353 598 353 598 347 598 c 2,18,-1
 288 598 l 2,19,20
 267 598 267 598 257 611 c 2,21,-1
 214 661 l 1,0,-1
154 91 m 1,22,-1
 333 91 l 2,23,24
 391 91 391 91 391 35 c 2,25,-1
 391 14 l 2,26,27
 391 0 391 0 378 0 c 2,28,-1
 67 0 l 2,29,30
 56 0 56 0 56 11 c 2,31,-1
 56 544 l 2,32,33
 56 556 56 556 67 556 c 2,34,-1
 325 556 l 2,35,36
 383 556 383 556 383 500 c 2,37,-1
 383 479 l 2,38,39
 383 465 383 465 369 465 c 2,40,-1
 154 465 l 1,41,-1
 154 323 l 1,42,-1
 305 323 l 2,43,44
 363 323 363 323 363 268 c 2,45,-1
 363 246 l 2,46,47
 363 232 363 232 350 232 c 2,48,-1
 154 232 l 1,49,-1
 154 91 l 1,22,-1
EndSplineSet
EndChar

StartChar: Edieresis
Encoding: 203 203 136
Width: 418
GlyphClass: 1
Flags: W
LayerCount: 2
Fore
SplineSet
85 642 m 256,0,1
 85 665 85 665 101 681 c 128,-1,2
 117 697 117 697 140 697 c 256,3,4
 163 697 163 697 178.5 681 c 128,-1,5
 194 665 194 665 194 642 c 256,6,7
 194 619 194 619 178.5 603 c 128,-1,8
 163 587 163 587 140 587 c 256,9,10
 117 587 117 587 101 603 c 128,-1,11
 85 619 85 619 85 642 c 256,0,1
243 642 m 256,12,13
 243 665 243 665 258.5 681 c 128,-1,14
 274 697 274 697 297 697 c 256,15,16
 320 697 320 697 335 681 c 128,-1,17
 350 665 350 665 350 642 c 256,18,19
 350 619 350 619 335 603 c 128,-1,20
 320 587 320 587 297 587 c 256,21,22
 274 587 274 587 258.5 603 c 128,-1,23
 243 619 243 619 243 642 c 256,12,13
154 91 m 1,24,-1
 333 91 l 2,25,26
 391 91 391 91 391 35 c 2,27,-1
 391 14 l 2,28,29
 391 0 391 0 378 0 c 2,30,-1
 67 0 l 2,31,32
 56 0 56 0 56 11 c 2,33,-1
 56 544 l 2,34,35
 56 556 56 556 67 556 c 2,36,-1
 325 556 l 2,37,38
 383 556 383 556 383 500 c 2,39,-1
 383 479 l 2,40,41
 383 465 383 465 369 465 c 2,42,-1
 154 465 l 1,43,-1
 154 323 l 1,44,-1
 305 323 l 2,45,46
 363 323 363 323 363 268 c 2,47,-1
 363 246 l 2,48,49
 363 232 363 232 350 232 c 2,50,-1
 154 232 l 1,51,-1
 154 91 l 1,24,-1
EndSplineSet
EndChar

StartChar: Igrave
Encoding: 204 204 137
Width: 212
GlyphClass: 1
Flags: W
LayerCount: 2
Fore
SplineSet
10 683 m 2,0,1
 6 687 6 687 7.5 691.5 c 128,-1,2
 9 696 9 696 13 696 c 2,3,-1
 93 696 l 2,4,5
 102 696 102 696 107.5 693.5 c 128,-1,6
 113 691 113 691 120 686 c 2,7,-1
 203 610 l 2,8,9
 206 607 206 607 205 602.5 c 128,-1,10
 204 598 204 598 197 598 c 2,11,-1
 132 598 l 2,12,13
 113 598 113 598 99 609 c 2,14,-1
 10 683 l 2,0,1
71 0 m 2,15,16
 60 0 60 0 60 11 c 2,17,-1
 60 544 l 2,18,19
 60 556 60 556 71 556 c 2,20,-1
 80 556 l 2,21,22
 119 556 119 556 138.5 536 c 128,-1,23
 158 516 158 516 158 469 c 2,24,-1
 158 11 l 2,25,26
 158 0 158 0 147 0 c 2,27,-1
 71 0 l 2,15,16
EndSplineSet
EndChar

StartChar: Iacute
Encoding: 205 205 138
Width: 212
GlyphClass: 1
Flags: W
LayerCount: 2
Fore
SplineSet
13 598 m 2,0,1
 8 598 8 598 6.5 602.5 c 128,-1,2
 5 607 5 607 8 610 c 2,3,-1
 92 686 l 2,4,5
 105 696 105 696 118 696 c 2,6,-1
 198 696 l 2,7,8
 203 696 203 696 205 691.5 c 128,-1,9
 207 687 207 687 202 683 c 2,10,-1
 112 609 l 2,11,12
 98 598 98 598 80 598 c 2,13,-1
 13 598 l 2,0,1
72 0 m 2,14,15
 61 0 61 0 61 11 c 2,16,-1
 61 544 l 2,17,18
 61 556 61 556 72 556 c 2,19,-1
 81 556 l 2,20,21
 119 556 119 556 139 536 c 128,-1,22
 159 516 159 516 159 469 c 2,23,-1
 159 11 l 2,24,25
 159 0 159 0 148 0 c 2,26,-1
 72 0 l 2,14,15
EndSplineSet
EndChar

StartChar: Icircumflex
Encoding: 206 206 139
Width: 212
GlyphClass: 1
Flags: W
LayerCount: 2
Fore
SplineSet
106 661 m 1,0,-1
 61 611 l 2,1,2
 51 598 51 598 30 598 c 2,3,-1
 -29 598 l 2,4,5
 -34 598 -34 598 -35.5 602.5 c 128,-1,6
 -37 607 -37 607 -34 610 c 2,7,-1
 41 686 l 2,8,9
 48 692 48 692 53.5 694 c 128,-1,10
 59 696 59 696 69 696 c 2,11,-1
 143 696 l 2,12,13
 153 696 153 696 158.5 695 c 128,-1,14
 164 694 164 694 171 686 c 2,15,-1
 245 610 l 2,16,17
 248 607 248 607 247 602.5 c 128,-1,18
 246 598 246 598 239 598 c 2,19,-1
 181 598 l 2,20,21
 160 598 160 598 150 611 c 2,22,-1
 106 661 l 1,0,-1
68 0 m 2,23,24
 57 0 57 0 57 11 c 2,25,-1
 57 544 l 2,26,27
 57 556 57 556 68 556 c 2,28,-1
 77 556 l 2,29,30
 116 556 116 556 135.5 536 c 128,-1,31
 155 516 155 516 155 469 c 2,32,-1
 155 11 l 2,33,34
 155 0 155 0 144 0 c 2,35,-1
 68 0 l 2,23,24
EndSplineSet
EndChar

StartChar: Idieresis
Encoding: 207 207 140
Width: 212
GlyphClass: 1
Flags: W
LayerCount: 2
Fore
SplineSet
-27 642 m 256,0,1
 -27 665 -27 665 -11 681 c 128,-1,2
 5 697 5 697 27 697 c 0,3,4
 50 697 50 697 65.5 681 c 128,-1,5
 81 665 81 665 81 642 c 256,6,7
 81 619 81 619 65.5 603 c 128,-1,8
 50 587 50 587 27 587 c 0,9,10
 5 587 5 587 -11 603 c 128,-1,11
 -27 619 -27 619 -27 642 c 256,0,1
130 642 m 256,12,13
 130 665 130 665 146 681 c 128,-1,14
 162 697 162 697 185 697 c 256,15,16
 208 697 208 697 223 681 c 128,-1,17
 238 665 238 665 238 642 c 256,18,19
 238 619 238 619 223 603 c 128,-1,20
 208 587 208 587 185 587 c 256,21,22
 162 587 162 587 146 603 c 128,-1,23
 130 619 130 619 130 642 c 256,12,13
68 0 m 2,24,25
 57 0 57 0 57 11 c 2,26,-1
 57 544 l 2,27,28
 57 556 57 556 68 556 c 2,29,-1
 77 556 l 2,30,31
 116 556 116 556 135.5 536 c 128,-1,32
 155 516 155 516 155 469 c 2,33,-1
 155 11 l 2,34,35
 155 0 155 0 144 0 c 2,36,-1
 68 0 l 2,24,25
EndSplineSet
EndChar

StartChar: Eth
Encoding: 208 208 141
Width: 571
GlyphClass: 1
Flags: W
LayerCount: 2
Fore
SplineSet
70 235 m 1,0,-1
 21 235 l 2,1,2
 10 235 10 235 10 246 c 2,3,-1
 10 314 l 2,4,5
 10 324 10 324 21 324 c 2,6,-1
 70 324 l 1,7,-1
 70 544 l 2,8,9
 70 556 70 556 80 556 c 2,10,-1
 243 556 l 2,11,12
 300 556 300 556 351 542 c 128,-1,13
 402 528 402 528 441.5 496.5 c 128,-1,14
 481 465 481 465 504 413 c 128,-1,15
 527 361 527 361 527 286 c 0,16,17
 527 186 527 186 491 123 c 128,-1,18
 455 60 455 60 389.5 30 c 128,-1,19
 324 0 324 0 235 0 c 2,20,-1
 80 0 l 2,21,22
 70 0 70 0 70 11 c 2,23,-1
 70 235 l 1,0,-1
168 91 m 1,24,-1
 246 91 l 2,25,26
 331 91 331 91 378.5 138.5 c 128,-1,27
 426 186 426 186 426 283 c 0,28,29
 426 384 426 384 378 424 c 128,-1,30
 330 464 330 464 241 464 c 2,31,-1
 168 464 l 1,32,-1
 168 324 l 1,33,-1
 263 324 l 2,34,35
 319 324 319 324 319 269 c 2,36,-1
 319 249 l 2,37,38
 319 235 319 235 307 235 c 2,39,-1
 168 235 l 1,40,-1
 168 91 l 1,24,-1
EndSplineSet
EndChar

StartChar: Ntilde
Encoding: 209 209 142
Width: 533
GlyphClass: 1
Flags: W
LayerCount: 2
Fore
SplineSet
140 597 m 2,0,1
 130 597 130 597 130 608 c 0,2,3
 133 649 133 649 151 672.5 c 128,-1,4
 169 696 169 696 201 696 c 0,5,6
 223 696 223 696 243.5 688 c 128,-1,7
 264 680 264 680 282 672 c 128,-1,8
 300 664 300 664 315 664 c 0,9,10
 332 664 332 664 337 686 c 0,11,12
 338 696 338 696 349 696 c 2,13,-1
 390 696 l 2,14,15
 400 696 400 696 400 686 c 0,16,17
 396 643 396 643 378.5 621.5 c 128,-1,18
 361 600 361 600 322 600 c 0,19,20
 303 600 303 600 283 607.5 c 128,-1,21
 263 615 263 615 245.5 622 c 128,-1,22
 228 629 228 629 215 629 c 0,23,24
 204 629 204 629 199.5 622.5 c 128,-1,25
 195 616 195 616 193 607 c 0,26,27
 192 597 192 597 181 597 c 2,28,-1
 140 597 l 2,0,1
378 180 m 1,29,-1
 378 544 l 2,30,31
 378 556 378 556 389 556 c 2,32,-1
 397 556 l 2,33,34
 436 556 436 556 456 536 c 128,-1,35
 476 516 476 516 476 469 c 2,36,-1
 476 11 l 2,37,38
 476 0 476 0 465 0 c 2,39,-1
 394 0 l 2,40,41
 380 0 380 0 372 13 c 2,42,-1
 154 368 l 1,43,-1
 154 11 l 2,44,45
 154 0 154 0 143 0 c 2,46,-1
 67 0 l 2,47,48
 56 0 56 0 56 11 c 2,49,-1
 56 544 l 2,50,51
 56 556 56 556 67 556 c 2,52,-1
 97 556 l 2,53,54
 128 556 128 556 145 544.5 c 128,-1,55
 162 533 162 533 178 507 c 2,56,-1
 378 180 l 1,29,-1
EndSplineSet
EndChar

StartChar: Ograve
Encoding: 210 210 143
Width: 607
GlyphClass: 1
Flags: W
LayerCount: 2
Fore
SplineSet
199 683 m 2,0,1
 195 687 195 687 196.5 691.5 c 128,-1,2
 198 696 198 696 202 696 c 2,3,-1
 282 696 l 2,4,5
 291 696 291 696 296.5 693.5 c 128,-1,6
 302 691 302 691 309 686 c 2,7,-1
 392 610 l 2,8,9
 395 607 395 607 394 602.5 c 128,-1,10
 393 598 393 598 386 598 c 2,11,-1
 321 598 l 2,12,13
 302 598 302 598 288 609 c 2,14,-1
 199 683 l 2,0,1
303 -10 m 256,15,16
 179 -10 179 -10 111 67.5 c 128,-1,17
 43 145 43 145 43 277 c 0,18,19
 43 365 43 365 74 430 c 128,-1,20
 105 495 105 495 163.5 530.5 c 128,-1,21
 222 566 222 566 303 566 c 0,22,23
 385 566 385 566 442.5 530.5 c 128,-1,24
 500 495 500 495 531 430 c 128,-1,25
 562 365 562 365 562 277 c 0,26,27
 562 145 562 145 494.5 67.5 c 128,-1,28
 427 -10 427 -10 303 -10 c 256,15,16
303 83 m 256,29,30
 346 83 346 83 382 100.5 c 128,-1,31
 418 118 418 118 440 160.5 c 128,-1,32
 462 203 462 203 462 277 c 256,33,34
 462 351 462 351 440 394 c 128,-1,35
 418 437 418 437 381.5 455 c 128,-1,36
 345 473 345 473 303 473 c 0,37,38
 260 473 260 473 223.5 455 c 128,-1,39
 187 437 187 437 165 394 c 128,-1,40
 143 351 143 351 143 277 c 256,41,42
 143 203 143 203 165 160.5 c 128,-1,43
 187 118 187 118 223.5 100.5 c 128,-1,44
 260 83 260 83 303 83 c 256,29,30
EndSplineSet
EndChar

StartChar: Oacute
Encoding: 211 211 144
Width: 607
GlyphClass: 1
Flags: W
LayerCount: 2
Fore
SplineSet
217 598 m 2,0,1
 212 598 212 598 210.5 602.5 c 128,-1,2
 209 607 209 607 212 610 c 2,3,-1
 296 686 l 2,4,5
 309 696 309 696 322 696 c 2,6,-1
 402 696 l 2,7,8
 407 696 407 696 409 691.5 c 128,-1,9
 411 687 411 687 406 683 c 2,10,-1
 316 609 l 2,11,12
 302 598 302 598 284 598 c 2,13,-1
 217 598 l 2,0,1
303 -10 m 256,14,15
 179 -10 179 -10 111 67.5 c 128,-1,16
 43 145 43 145 43 277 c 0,17,18
 43 365 43 365 74 430 c 128,-1,19
 105 495 105 495 163.5 530.5 c 128,-1,20
 222 566 222 566 303 566 c 0,21,22
 385 566 385 566 442.5 530.5 c 128,-1,23
 500 495 500 495 531 430 c 128,-1,24
 562 365 562 365 562 277 c 0,25,26
 562 145 562 145 494.5 67.5 c 128,-1,27
 427 -10 427 -10 303 -10 c 256,14,15
303 83 m 256,28,29
 346 83 346 83 382 100.5 c 128,-1,30
 418 118 418 118 440 160.5 c 128,-1,31
 462 203 462 203 462 277 c 256,32,33
 462 351 462 351 440 394 c 128,-1,34
 418 437 418 437 381.5 455 c 128,-1,35
 345 473 345 473 303 473 c 0,36,37
 260 473 260 473 223.5 455 c 128,-1,38
 187 437 187 437 165 394 c 128,-1,39
 143 351 143 351 143 277 c 256,40,41
 143 203 143 203 165 160.5 c 128,-1,42
 187 118 187 118 223.5 100.5 c 128,-1,43
 260 83 260 83 303 83 c 256,28,29
EndSplineSet
EndChar

StartChar: Ocircumflex
Encoding: 212 212 145
Width: 607
GlyphClass: 1
Flags: W
LayerCount: 2
Fore
SplineSet
303 661 m 1,0,-1
 258 611 l 2,1,2
 246 598 246 598 226 598 c 2,3,-1
 167 598 l 2,4,5
 163 598 163 598 161.5 602.5 c 128,-1,6
 160 607 160 607 162 610 c 2,7,-1
 237 686 l 2,8,9
 248 696 248 696 265 696 c 2,10,-1
 340 696 l 2,11,12
 349 696 349 696 355 695 c 128,-1,13
 361 694 361 694 367 686 c 2,14,-1
 442 610 l 2,15,16
 445 607 445 607 443.5 602.5 c 128,-1,17
 442 598 442 598 436 598 c 2,18,-1
 377 598 l 2,19,20
 358 598 358 598 346 611 c 2,21,-1
 303 661 l 1,0,-1
303 -10 m 256,22,23
 179 -10 179 -10 111 67.5 c 128,-1,24
 43 145 43 145 43 277 c 0,25,26
 43 365 43 365 74 430 c 128,-1,27
 105 495 105 495 163.5 530.5 c 128,-1,28
 222 566 222 566 303 566 c 0,29,30
 385 566 385 566 442.5 530.5 c 128,-1,31
 500 495 500 495 531 430 c 128,-1,32
 562 365 562 365 562 277 c 0,33,34
 562 145 562 145 494.5 67.5 c 128,-1,35
 427 -10 427 -10 303 -10 c 256,22,23
303 83 m 256,36,37
 346 83 346 83 382 100.5 c 128,-1,38
 418 118 418 118 440 160.5 c 128,-1,39
 462 203 462 203 462 277 c 256,40,41
 462 351 462 351 440 394 c 128,-1,42
 418 437 418 437 381.5 455 c 128,-1,43
 345 473 345 473 303 473 c 0,44,45
 260 473 260 473 223.5 455 c 128,-1,46
 187 437 187 437 165 394 c 128,-1,47
 143 351 143 351 143 277 c 256,48,49
 143 203 143 203 165 160.5 c 128,-1,50
 187 118 187 118 223.5 100.5 c 128,-1,51
 260 83 260 83 303 83 c 256,36,37
EndSplineSet
EndChar

StartChar: Otilde
Encoding: 213 213 146
Width: 607
GlyphClass: 1
Flags: W
LayerCount: 2
Fore
SplineSet
174 597 m 2,0,1
 164 597 164 597 164 608 c 0,2,3
 167 649 167 649 185 672.5 c 128,-1,4
 203 696 203 696 235 696 c 0,5,6
 257 696 257 696 277.5 688 c 128,-1,7
 298 680 298 680 316 672 c 128,-1,8
 334 664 334 664 349 664 c 0,9,10
 366 664 366 664 371 686 c 0,11,12
 372 696 372 696 382 696 c 2,13,-1
 424 696 l 2,14,15
 434 696 434 696 434 686 c 0,16,17
 429 643 429 643 411.5 621.5 c 128,-1,18
 394 600 394 600 356 600 c 0,19,20
 337 600 337 600 317 607.5 c 128,-1,21
 297 615 297 615 279.5 622 c 128,-1,22
 262 629 262 629 249 629 c 0,23,24
 238 629 238 629 233.5 622.5 c 128,-1,25
 229 616 229 616 227 607 c 0,26,27
 226 597 226 597 215 597 c 2,28,-1
 174 597 l 2,0,1
303 -10 m 256,29,30
 179 -10 179 -10 111 67.5 c 128,-1,31
 43 145 43 145 43 277 c 0,32,33
 43 365 43 365 74 430 c 128,-1,34
 105 495 105 495 163.5 530.5 c 128,-1,35
 222 566 222 566 303 566 c 0,36,37
 385 566 385 566 442.5 530.5 c 128,-1,38
 500 495 500 495 531 430 c 128,-1,39
 562 365 562 365 562 277 c 0,40,41
 562 145 562 145 494.5 67.5 c 128,-1,42
 427 -10 427 -10 303 -10 c 256,29,30
303 83 m 256,43,44
 346 83 346 83 382 100.5 c 128,-1,45
 418 118 418 118 440 160.5 c 128,-1,46
 462 203 462 203 462 277 c 256,47,48
 462 351 462 351 440 394 c 128,-1,49
 418 437 418 437 381.5 455 c 128,-1,50
 345 473 345 473 303 473 c 0,51,52
 260 473 260 473 223.5 455 c 128,-1,53
 187 437 187 437 165 394 c 128,-1,54
 143 351 143 351 143 277 c 256,55,56
 143 203 143 203 165 160.5 c 128,-1,57
 187 118 187 118 223.5 100.5 c 128,-1,58
 260 83 260 83 303 83 c 256,43,44
EndSplineSet
EndChar

StartChar: Odieresis
Encoding: 214 214 147
Width: 607
GlyphClass: 1
Flags: W
LayerCount: 2
Fore
SplineSet
171 642 m 256,0,1
 171 665 171 665 187 681 c 128,-1,2
 203 697 203 697 225 697 c 0,3,4
 248 697 248 697 263.5 681 c 128,-1,5
 279 665 279 665 279 642 c 256,6,7
 279 619 279 619 263.5 603 c 128,-1,8
 248 587 248 587 225 587 c 0,9,10
 203 587 203 587 187 603 c 128,-1,11
 171 619 171 619 171 642 c 256,0,1
328 642 m 256,12,13
 328 665 328 665 343.5 681 c 128,-1,14
 359 697 359 697 382 697 c 256,15,16
 405 697 405 697 420.5 681 c 128,-1,17
 436 665 436 665 436 642 c 256,18,19
 436 619 436 619 420.5 603 c 128,-1,20
 405 587 405 587 382 587 c 256,21,22
 359 587 359 587 343.5 603 c 128,-1,23
 328 619 328 619 328 642 c 256,12,13
303 -10 m 256,24,25
 179 -10 179 -10 111 67.5 c 128,-1,26
 43 145 43 145 43 277 c 0,27,28
 43 365 43 365 74 430 c 128,-1,29
 105 495 105 495 163.5 530.5 c 128,-1,30
 222 566 222 566 303 566 c 0,31,32
 385 566 385 566 442.5 530.5 c 128,-1,33
 500 495 500 495 531 430 c 128,-1,34
 562 365 562 365 562 277 c 0,35,36
 562 145 562 145 494.5 67.5 c 128,-1,37
 427 -10 427 -10 303 -10 c 256,24,25
303 83 m 256,38,39
 346 83 346 83 382 100.5 c 128,-1,40
 418 118 418 118 440 160.5 c 128,-1,41
 462 203 462 203 462 277 c 256,42,43
 462 351 462 351 440 394 c 128,-1,44
 418 437 418 437 381.5 455 c 128,-1,45
 345 473 345 473 303 473 c 0,46,47
 260 473 260 473 223.5 455 c 128,-1,48
 187 437 187 437 165 394 c 128,-1,49
 143 351 143 351 143 277 c 256,50,51
 143 203 143 203 165 160.5 c 128,-1,52
 187 118 187 118 223.5 100.5 c 128,-1,53
 260 83 260 83 303 83 c 256,38,39
EndSplineSet
EndChar

StartChar: multiply
Encoding: 215 215 148
Width: 418
GlyphClass: 1
Flags: W
LayerCount: 2
Fore
SplineSet
156 274 m 1,0,-1
 46 383 l 2,1,2
 38 392 38 392 45 399 c 0,3,4
 74 428 74 428 94.5 425.5 c 128,-1,5
 115 423 115 423 143 394 c 2,6,-1
 210 328 l 1,7,-1
 311 429 l 2,8,9
 319 438 319 438 327 429 c 2,10,-1
 365 392 l 2,11,12
 373 384 373 384 365 376 c 2,13,-1
 264 274 l 1,14,-1
 374 164 l 2,15,16
 382 156 382 156 374 148 c 0,17,18
 346 120 346 120 325 122.5 c 128,-1,19
 304 125 304 125 277 153 c 2,20,-1
 210 221 l 1,21,-1
 107 118 l 2,22,23
 99 110 99 110 93 118 c 2,24,-1
 55 157 l 2,25,26
 48 165 48 165 55 172 c 2,27,-1
 156 274 l 1,0,-1
EndSplineSet
EndChar

StartChar: Oslash
Encoding: 216 216 149
Width: 607
GlyphClass: 1
Flags: W
LayerCount: 2
Fore
SplineSet
304 -10 m 0,0,1
 180 -10 180 -10 112 67 c 128,-1,2
 44 144 44 144 44 277 c 0,3,4
 44 365 44 365 75 430 c 128,-1,5
 106 495 106 495 164.5 530.5 c 128,-1,6
 223 566 223 566 304 566 c 0,7,8
 386 566 386 566 443.5 530.5 c 128,-1,9
 501 495 501 495 532 430 c 128,-1,10
 563 365 563 365 563 277 c 0,11,12
 563 144 563 144 495 67 c 128,-1,13
 427 -10 427 -10 304 -10 c 0,0,1
174 149 m 1,14,-1
 372 459 l 1,15,16
 356 466 356 466 338.5 469 c 128,-1,17
 321 472 321 472 304 472 c 0,18,19
 262 472 262 472 225.5 454.5 c 128,-1,20
 189 437 189 437 166.5 394.5 c 128,-1,21
 144 352 144 352 144 277 c 0,22,23
 144 235 144 235 152 203 c 128,-1,24
 160 171 160 171 174 149 c 1,14,-1
435 403 m 1,25,-1
 239 96 l 1,26,27
 254 89 254 89 270.5 86.5 c 128,-1,28
 287 84 287 84 304 84 c 0,29,30
 347 84 347 84 383 101.5 c 128,-1,31
 419 119 419 119 440.5 161 c 128,-1,32
 462 203 462 203 462 277 c 0,33,34
 462 319 462 319 455 350 c 128,-1,35
 448 381 448 381 435 403 c 1,25,-1
EndSplineSet
EndChar

StartChar: Ugrave
Encoding: 217 217 150
Width: 526
GlyphClass: 1
Flags: W
LayerCount: 2
Fore
SplineSet
146 683 m 2,0,1
 142 687 142 687 143.5 691.5 c 128,-1,2
 145 696 145 696 150 696 c 2,3,-1
 230 696 l 2,4,5
 243 696 243 696 256 686 c 2,6,-1
 340 610 l 2,7,8
 343 607 343 607 341.5 602.5 c 128,-1,9
 340 598 340 598 334 598 c 2,10,-1
 268 598 l 2,11,12
 249 598 249 598 235 609 c 2,13,-1
 146 683 l 2,0,1
260 -10 m 0,14,15
 195 -10 195 -10 154 11 c 128,-1,16
 113 32 113 32 91 65 c 128,-1,17
 69 98 69 98 61 135 c 128,-1,18
 53 172 53 172 53 203 c 2,19,-1
 53 544 l 2,20,21
 53 556 53 556 64 556 c 2,22,-1
 72 556 l 2,23,24
 112 556 112 556 131.5 536 c 128,-1,25
 151 516 151 516 151 469 c 2,26,-1
 151 222 l 2,27,28
 151 160 151 160 175 121 c 128,-1,29
 199 82 199 82 260 82 c 0,30,31
 322 82 322 82 347 121.5 c 128,-1,32
 372 161 372 161 372 222 c 2,33,-1
 372 544 l 2,34,35
 372 556 372 556 384 556 c 2,36,-1
 392 556 l 2,37,38
 431 556 431 556 451 536 c 128,-1,39
 471 516 471 516 471 469 c 2,40,-1
 471 204 l 2,41,42
 471 175 471 175 463 138.5 c 128,-1,43
 455 102 455 102 433 68 c 128,-1,44
 411 34 411 34 369.5 12 c 128,-1,45
 328 -10 328 -10 260 -10 c 0,14,15
EndSplineSet
EndChar

StartChar: Uacute
Encoding: 218 218 151
Width: 526
GlyphClass: 1
Flags: W
LayerCount: 2
Fore
SplineSet
169 598 m 2,0,1
 164 598 164 598 162.5 602.5 c 128,-1,2
 161 607 161 607 164 610 c 2,3,-1
 247 686 l 2,4,5
 254 691 254 691 259.5 693.5 c 128,-1,6
 265 696 265 696 274 696 c 2,7,-1
 354 696 l 2,8,9
 359 696 359 696 360.5 691.5 c 128,-1,10
 362 687 362 687 357 683 c 2,11,-1
 268 609 l 2,12,13
 254 598 254 598 235 598 c 2,14,-1
 169 598 l 2,0,1
260 -10 m 0,15,16
 195 -10 195 -10 154 11 c 128,-1,17
 113 32 113 32 91 65 c 128,-1,18
 69 98 69 98 61 135 c 128,-1,19
 53 172 53 172 53 203 c 2,20,-1
 53 544 l 2,21,22
 53 556 53 556 64 556 c 2,23,-1
 72 556 l 2,24,25
 112 556 112 556 131.5 536 c 128,-1,26
 151 516 151 516 151 469 c 2,27,-1
 151 222 l 2,28,29
 151 160 151 160 175 121 c 128,-1,30
 199 82 199 82 260 82 c 0,31,32
 322 82 322 82 347 121.5 c 128,-1,33
 372 161 372 161 372 222 c 2,34,-1
 372 544 l 2,35,36
 372 556 372 556 384 556 c 2,37,-1
 392 556 l 2,38,39
 431 556 431 556 451 536 c 128,-1,40
 471 516 471 516 471 469 c 2,41,-1
 471 204 l 2,42,43
 471 175 471 175 463 138.5 c 128,-1,44
 455 102 455 102 433 68 c 128,-1,45
 411 34 411 34 369.5 12 c 128,-1,46
 328 -10 328 -10 260 -10 c 0,15,16
EndSplineSet
EndChar

StartChar: Ucircumflex
Encoding: 219 219 152
Width: 526
GlyphClass: 1
Flags: W
LayerCount: 2
Fore
SplineSet
262 661 m 1,0,-1
 217 611 l 2,1,2
 207 598 207 598 186 598 c 2,3,-1
 127 598 l 2,4,5
 122 598 122 598 120.5 602.5 c 128,-1,6
 119 607 119 607 122 610 c 2,7,-1
 197 686 l 2,8,9
 204 692 204 692 209.5 694 c 128,-1,10
 215 696 215 696 225 696 c 2,11,-1
 299 696 l 2,12,13
 309 696 309 696 314.5 695 c 128,-1,14
 320 694 320 694 327 686 c 2,15,-1
 401 610 l 2,16,17
 404 607 404 607 403 602.5 c 128,-1,18
 402 598 402 598 395 598 c 2,19,-1
 337 598 l 2,20,21
 316 598 316 598 306 611 c 2,22,-1
 262 661 l 1,0,-1
260 -10 m 0,23,24
 195 -10 195 -10 154 11 c 128,-1,25
 113 32 113 32 91 65 c 128,-1,26
 69 98 69 98 61 135 c 128,-1,27
 53 172 53 172 53 203 c 2,28,-1
 53 544 l 2,29,30
 53 556 53 556 64 556 c 2,31,-1
 72 556 l 2,32,33
 112 556 112 556 131.5 536 c 128,-1,34
 151 516 151 516 151 469 c 2,35,-1
 151 222 l 2,36,37
 151 160 151 160 175 121 c 128,-1,38
 199 82 199 82 260 82 c 0,39,40
 322 82 322 82 347 121.5 c 128,-1,41
 372 161 372 161 372 222 c 2,42,-1
 372 544 l 2,43,44
 372 556 372 556 384 556 c 2,45,-1
 392 556 l 2,46,47
 431 556 431 556 451 536 c 128,-1,48
 471 516 471 516 471 469 c 2,49,-1
 471 204 l 2,50,51
 471 175 471 175 463 138.5 c 128,-1,52
 455 102 455 102 433 68 c 128,-1,53
 411 34 411 34 369.5 12 c 128,-1,54
 328 -10 328 -10 260 -10 c 0,23,24
EndSplineSet
EndChar

StartChar: Udieresis
Encoding: 220 220 153
Width: 526
GlyphClass: 1
Flags: W
LayerCount: 2
Fore
SplineSet
124 642 m 256,0,1
 124 665 124 665 140 681 c 128,-1,2
 156 697 156 697 179 697 c 256,3,4
 202 697 202 697 217 681 c 128,-1,5
 232 665 232 665 232 642 c 256,6,7
 232 619 232 619 217 603 c 128,-1,8
 202 587 202 587 179 587 c 256,9,10
 156 587 156 587 140 603 c 128,-1,11
 124 619 124 619 124 642 c 256,0,1
281 642 m 256,12,13
 281 665 281 665 297 681 c 128,-1,14
 313 697 313 697 336 697 c 256,15,16
 359 697 359 697 374 681 c 128,-1,17
 389 665 389 665 389 642 c 256,18,19
 389 619 389 619 374 603 c 128,-1,20
 359 587 359 587 336 587 c 256,21,22
 313 587 313 587 297 603 c 128,-1,23
 281 619 281 619 281 642 c 256,12,13
260 -10 m 0,24,25
 195 -10 195 -10 154 11 c 128,-1,26
 113 32 113 32 91 65 c 128,-1,27
 69 98 69 98 61 135 c 128,-1,28
 53 172 53 172 53 203 c 2,29,-1
 53 544 l 2,30,31
 53 556 53 556 64 556 c 2,32,-1
 72 556 l 2,33,34
 112 556 112 556 131.5 536 c 128,-1,35
 151 516 151 516 151 469 c 2,36,-1
 151 222 l 2,37,38
 151 160 151 160 175 121 c 128,-1,39
 199 82 199 82 260 82 c 0,40,41
 322 82 322 82 347 121.5 c 128,-1,42
 372 161 372 161 372 222 c 2,43,-1
 372 544 l 2,44,45
 372 556 372 556 384 556 c 2,46,-1
 392 556 l 2,47,48
 431 556 431 556 451 536 c 128,-1,49
 471 516 471 516 471 469 c 2,50,-1
 471 204 l 2,51,52
 471 175 471 175 463 138.5 c 128,-1,53
 455 102 455 102 433 68 c 128,-1,54
 411 34 411 34 369.5 12 c 128,-1,55
 328 -10 328 -10 260 -10 c 0,24,25
EndSplineSet
EndChar

StartChar: Yacute
Encoding: 221 221 154
Width: 466
GlyphClass: 1
Flags: W
LayerCount: 2
Fore
SplineSet
155 598 m 2,0,1
 150 598 150 598 148.5 602.5 c 128,-1,2
 147 607 147 607 150 610 c 2,3,-1
 234 686 l 2,4,5
 247 696 247 696 260 696 c 2,6,-1
 340 696 l 2,7,8
 345 696 345 696 347 691.5 c 128,-1,9
 349 687 349 687 344 683 c 2,10,-1
 254 609 l 2,11,12
 240 598 240 598 221 598 c 2,13,-1
 155 598 l 2,0,1
184 208 m 1,14,-1
 5 544 l 2,15,16
 3 548 3 548 4.5 552 c 128,-1,17
 6 556 6 556 11 556 c 2,18,-1
 50 556 l 2,19,20
 82 556 82 556 101.5 543.5 c 128,-1,21
 121 531 121 531 137 500 c 2,22,-1
 238 308 l 1,23,-1
 360 542 l 2,24,25
 367 556 367 556 379 556 c 2,26,-1
 456 556 l 2,27,28
 462 556 462 556 463.5 552 c 128,-1,29
 465 548 465 548 463 543 c 2,30,-1
 282 206 l 1,31,-1
 282 11 l 2,32,33
 282 0 282 0 271 0 c 2,34,-1
 194 0 l 2,35,36
 184 0 184 0 184 11 c 2,37,-1
 184 208 l 1,14,-1
EndSplineSet
EndChar

StartChar: Thorn
Encoding: 222 222 155
Width: 496
GlyphClass: 1
Flags: W
LayerCount: 2
Fore
SplineSet
155 97 m 1,0,-1
 155 11 l 2,1,2
 155 0 155 0 144 0 c 2,3,-1
 68 0 l 2,4,5
 57 0 57 0 57 11 c 2,6,-1
 57 544 l 2,7,8
 57 556 57 556 68 556 c 2,9,-1
 77 556 l 2,10,11
 115 556 115 556 135 535.5 c 128,-1,12
 155 515 155 515 155 468 c 2,13,-1
 155 461 l 1,14,-1
 261 461 l 2,15,16
 365 461 365 461 414 411.5 c 128,-1,17
 463 362 463 362 463 282 c 0,18,19
 463 201 463 201 412.5 149 c 128,-1,20
 362 97 362 97 273 97 c 2,21,-1
 155 97 l 1,0,-1
155 188 m 1,22,-1
 268 188 l 2,23,24
 290 188 290 188 312.5 195.5 c 128,-1,25
 335 203 335 203 350 223.5 c 128,-1,26
 365 244 365 244 365 281 c 0,27,28
 365 325 365 325 338 348 c 128,-1,29
 311 371 311 371 269 371 c 2,30,-1
 155 371 l 1,31,-1
 155 188 l 1,22,-1
EndSplineSet
EndChar

StartChar: germandbls
Encoding: 223 223 156
Width: 466
GlyphClass: 1
Flags: W
LayerCount: 2
Fore
SplineSet
195 103 m 0,0,1
 218 87 218 87 239 77 c 128,-1,2
 260 67 260 67 289 67 c 256,3,4
 318 67 318 67 331.5 78.5 c 128,-1,5
 345 90 345 90 345 108 c 0,6,7
 345 129 345 129 331.5 144.5 c 128,-1,8
 318 160 318 160 297.5 173 c 128,-1,9
 277 186 277 186 257 201 c 128,-1,10
 237 216 237 216 223.5 236 c 128,-1,11
 210 256 210 256 210 286 c 0,12,13
 210 308 210 308 220.5 327 c 128,-1,14
 231 346 231 346 244 364 c 128,-1,15
 257 382 257 382 267.5 399 c 128,-1,16
 278 416 278 416 278 433 c 0,17,18
 278 456 278 456 261 470 c 128,-1,19
 244 484 244 484 215 484 c 0,20,21
 181 484 181 484 161 462.5 c 128,-1,22
 141 441 141 441 141 402 c 2,23,-1
 141 11 l 2,24,25
 141 0 141 0 131 0 c 2,26,-1
 56 0 l 2,27,28
 47 0 47 0 47 11 c 2,29,-1
 47 403 l 2,30,31
 47 481 47 481 93.5 523.5 c 128,-1,32
 140 566 140 566 213 566 c 0,33,34
 273 566 273 566 308.5 548 c 128,-1,35
 344 530 344 530 359 504 c 128,-1,36
 374 478 374 478 374 454 c 256,37,38
 374 430 374 430 363 407.5 c 128,-1,39
 352 385 352 385 337.5 365.5 c 128,-1,40
 323 346 323 346 312 329 c 128,-1,41
 301 312 301 312 301 299 c 0,42,43
 301 283 301 283 315.5 270.5 c 128,-1,44
 330 258 330 258 351 245.5 c 128,-1,45
 372 233 372 233 393 216 c 128,-1,46
 414 199 414 199 428.5 174.5 c 128,-1,47
 443 150 443 150 443 114 c 0,48,49
 443 59 443 59 404.5 24.5 c 128,-1,50
 366 -10 366 -10 305 -10 c 0,51,52
 265 -10 265 -10 236 5 c 128,-1,53
 207 20 207 20 191 43 c 128,-1,54
 175 66 175 66 175 89 c 0,55,56
 175 107 175 107 186 107 c 0,57,58
 191 107 191 107 195 103 c 0,0,1
EndSplineSet
EndChar

StartChar: agrave
Encoding: 224 224 157
Width: 463
GlyphClass: 1
Flags: W
LayerCount: 2
Fore
SplineSet
118 516 m 2,0,1
 114 520 114 520 115.5 524 c 128,-1,2
 117 528 117 528 122 528 c 2,3,-1
 202 528 l 2,4,5
 218 528 218 528 229 518 c 2,6,-1
 312 442 l 2,7,8
 315 439 315 439 313.5 434.5 c 128,-1,9
 312 430 312 430 306 430 c 2,10,-1
 240 430 l 2,11,12
 222 430 222 430 208 441 c 2,13,-1
 118 516 l 2,0,1
321 47 m 1,14,15
 301 20 301 20 270 5.5 c 128,-1,16
 239 -9 239 -9 204 -9 c 0,17,18
 148 -9 148 -9 109.5 18 c 128,-1,19
 71 45 71 45 51.5 90 c 128,-1,20
 32 135 32 135 32 189 c 0,21,22
 32 245 32 245 53 289.5 c 128,-1,23
 74 334 74 334 113.5 360 c 128,-1,24
 153 386 153 386 206 386 c 0,25,26
 250 386 250 386 280.5 370 c 128,-1,27
 311 354 311 354 329 332 c 1,28,29
 337 355 337 355 355.5 365.5 c 128,-1,30
 374 376 374 376 400 376 c 2,31,-1
 405 376 l 2,32,33
 416 376 416 376 416 364 c 2,34,-1
 416 11 l 2,35,36
 416 0 416 0 405 0 c 2,37,-1
 331 0 l 2,38,39
 321 0 321 0 321 11 c 2,40,-1
 321 47 l 1,14,15
225 81 m 0,41,42
 244 81 244 81 266.5 89.5 c 128,-1,43
 289 98 289 98 305 121 c 128,-1,44
 321 144 321 144 321 189 c 256,45,46
 321 234 321 234 305 256.5 c 128,-1,47
 289 279 289 279 267 286.5 c 128,-1,48
 245 294 245 294 226 294 c 0,49,50
 206 294 206 294 183.5 285 c 128,-1,51
 161 276 161 276 145.5 253 c 128,-1,52
 130 230 130 230 130 189 c 0,53,54
 130 146 130 146 146.5 122.5 c 128,-1,55
 163 99 163 99 185 90 c 128,-1,56
 207 81 207 81 225 81 c 0,41,42
EndSplineSet
EndChar

StartChar: aacute
Encoding: 225 225 158
Width: 463
GlyphClass: 1
Flags: W
LayerCount: 2
Fore
SplineSet
146 430 m 2,0,1
 141 430 141 430 139.5 434.5 c 128,-1,2
 138 439 138 439 141 442 c 2,3,-1
 225 518 l 2,4,5
 236 528 236 528 251 528 c 2,6,-1
 331 528 l 2,7,8
 336 528 336 528 338 524 c 128,-1,9
 340 520 340 520 335 516 c 2,10,-1
 245 441 l 2,11,12
 231 430 231 430 213 430 c 2,13,-1
 146 430 l 2,0,1
321 47 m 1,14,15
 301 20 301 20 270 5.5 c 128,-1,16
 239 -9 239 -9 204 -9 c 0,17,18
 148 -9 148 -9 109.5 18 c 128,-1,19
 71 45 71 45 51.5 90 c 128,-1,20
 32 135 32 135 32 189 c 0,21,22
 32 245 32 245 53 289.5 c 128,-1,23
 74 334 74 334 113.5 360 c 128,-1,24
 153 386 153 386 206 386 c 0,25,26
 250 386 250 386 280.5 370 c 128,-1,27
 311 354 311 354 329 332 c 1,28,29
 337 355 337 355 355.5 365.5 c 128,-1,30
 374 376 374 376 400 376 c 2,31,-1
 405 376 l 2,32,33
 416 376 416 376 416 364 c 2,34,-1
 416 11 l 2,35,36
 416 0 416 0 405 0 c 2,37,-1
 331 0 l 2,38,39
 321 0 321 0 321 11 c 2,40,-1
 321 47 l 1,14,15
225 81 m 0,41,42
 244 81 244 81 266.5 89.5 c 128,-1,43
 289 98 289 98 305 121 c 128,-1,44
 321 144 321 144 321 189 c 256,45,46
 321 234 321 234 305 256.5 c 128,-1,47
 289 279 289 279 267 286.5 c 128,-1,48
 245 294 245 294 226 294 c 0,49,50
 206 294 206 294 183.5 285 c 128,-1,51
 161 276 161 276 145.5 253 c 128,-1,52
 130 230 130 230 130 189 c 0,53,54
 130 146 130 146 146.5 122.5 c 128,-1,55
 163 99 163 99 185 90 c 128,-1,56
 207 81 207 81 225 81 c 0,41,42
EndSplineSet
EndChar

StartChar: acircumflex
Encoding: 226 226 159
Width: 463
GlyphClass: 1
Flags: W
LayerCount: 2
Fore
SplineSet
233 493 m 1,0,-1
 188 443 l 2,1,2
 176 430 176 430 156 430 c 2,3,-1
 97 430 l 2,4,5
 92 430 92 430 90.5 434.5 c 128,-1,6
 89 439 89 439 92 442 c 2,7,-1
 167 518 l 2,8,9
 174 525 174 525 179.5 526.5 c 128,-1,10
 185 528 185 528 195 528 c 2,11,-1
 269 528 l 2,12,13
 279 528 279 528 284.5 527 c 128,-1,14
 290 526 290 526 297 518 c 2,15,-1
 371 442 l 2,16,17
 374 439 374 439 373 434.5 c 128,-1,18
 372 430 372 430 365 430 c 2,19,-1
 307 430 l 2,20,21
 286 430 286 430 276 443 c 2,22,-1
 233 493 l 1,0,-1
321 47 m 1,23,24
 301 20 301 20 270 5.5 c 128,-1,25
 239 -9 239 -9 204 -9 c 0,26,27
 148 -9 148 -9 109.5 18 c 128,-1,28
 71 45 71 45 51.5 90 c 128,-1,29
 32 135 32 135 32 189 c 0,30,31
 32 245 32 245 53 289.5 c 128,-1,32
 74 334 74 334 113.5 360 c 128,-1,33
 153 386 153 386 206 386 c 0,34,35
 250 386 250 386 280.5 370 c 128,-1,36
 311 354 311 354 329 332 c 1,37,38
 337 355 337 355 355.5 365.5 c 128,-1,39
 374 376 374 376 400 376 c 2,40,-1
 405 376 l 2,41,42
 416 376 416 376 416 364 c 2,43,-1
 416 11 l 2,44,45
 416 0 416 0 405 0 c 2,46,-1
 331 0 l 2,47,48
 321 0 321 0 321 11 c 2,49,-1
 321 47 l 1,23,24
225 81 m 0,50,51
 244 81 244 81 266.5 89.5 c 128,-1,52
 289 98 289 98 305 121 c 128,-1,53
 321 144 321 144 321 189 c 256,54,55
 321 234 321 234 305 256.5 c 128,-1,56
 289 279 289 279 267 286.5 c 128,-1,57
 245 294 245 294 226 294 c 0,58,59
 206 294 206 294 183.5 285 c 128,-1,60
 161 276 161 276 145.5 253 c 128,-1,61
 130 230 130 230 130 189 c 0,62,63
 130 146 130 146 146.5 122.5 c 128,-1,64
 163 99 163 99 185 90 c 128,-1,65
 207 81 207 81 225 81 c 0,50,51
EndSplineSet
EndChar

StartChar: atilde
Encoding: 227 227 160
Width: 463
GlyphClass: 1
Flags: W
LayerCount: 2
Fore
SplineSet
107 429 m 2,0,1
 97 429 97 429 97 440 c 0,2,3
 100 482 100 482 118 505 c 128,-1,4
 136 528 136 528 168 528 c 0,5,6
 190 528 190 528 210.5 520.5 c 128,-1,7
 231 513 231 513 249 505 c 128,-1,8
 267 497 267 497 282 497 c 0,9,10
 300 497 300 497 304 518 c 0,11,12
 305 528 305 528 315 528 c 2,13,-1
 356 528 l 2,14,15
 368 528 368 528 366 518 c 0,16,17
 362 475 362 475 344.5 453.5 c 128,-1,18
 327 432 327 432 289 432 c 0,19,20
 270 432 270 432 250 439.5 c 128,-1,21
 230 447 230 447 212.5 454 c 128,-1,22
 195 461 195 461 181 461 c 0,23,24
 170 461 170 461 165.5 454.5 c 128,-1,25
 161 448 161 448 160 439 c 0,26,27
 159 429 159 429 148 429 c 2,28,-1
 107 429 l 2,0,1
321 47 m 1,29,30
 301 20 301 20 270 5.5 c 128,-1,31
 239 -9 239 -9 204 -9 c 0,32,33
 148 -9 148 -9 109.5 18 c 128,-1,34
 71 45 71 45 51.5 90 c 128,-1,35
 32 135 32 135 32 189 c 0,36,37
 32 245 32 245 53 289.5 c 128,-1,38
 74 334 74 334 113.5 360 c 128,-1,39
 153 386 153 386 206 386 c 0,40,41
 250 386 250 386 280.5 370 c 128,-1,42
 311 354 311 354 329 332 c 1,43,44
 337 355 337 355 355.5 365.5 c 128,-1,45
 374 376 374 376 400 376 c 2,46,-1
 405 376 l 2,47,48
 416 376 416 376 416 364 c 2,49,-1
 416 11 l 2,50,51
 416 0 416 0 405 0 c 2,52,-1
 331 0 l 2,53,54
 321 0 321 0 321 11 c 2,55,-1
 321 47 l 1,29,30
225 81 m 0,56,57
 244 81 244 81 266.5 89.5 c 128,-1,58
 289 98 289 98 305 121 c 128,-1,59
 321 144 321 144 321 189 c 256,60,61
 321 234 321 234 305 256.5 c 128,-1,62
 289 279 289 279 267 286.5 c 128,-1,63
 245 294 245 294 226 294 c 0,64,65
 206 294 206 294 183.5 285 c 128,-1,66
 161 276 161 276 145.5 253 c 128,-1,67
 130 230 130 230 130 189 c 0,68,69
 130 146 130 146 146.5 122.5 c 128,-1,70
 163 99 163 99 185 90 c 128,-1,71
 207 81 207 81 225 81 c 0,56,57
EndSplineSet
EndChar

StartChar: adieresis
Encoding: 228 228 161
Width: 463
GlyphClass: 1
Flags: W
LayerCount: 2
Fore
SplineSet
92 474 m 0,0,1
 92 498 92 498 108 513.5 c 128,-1,2
 124 529 124 529 146 529 c 0,3,4
 169 529 169 529 184.5 513.5 c 128,-1,5
 200 498 200 498 200 474 c 0,6,7
 200 451 200 451 184.5 435 c 128,-1,8
 169 419 169 419 146 419 c 0,9,10
 124 419 124 419 108 435 c 128,-1,11
 92 451 92 451 92 474 c 0,0,1
249 474 m 0,12,13
 249 498 249 498 265 513.5 c 128,-1,14
 281 529 281 529 304 529 c 256,15,16
 327 529 327 529 342 513.5 c 128,-1,17
 357 498 357 498 357 474 c 0,18,19
 357 451 357 451 342 435 c 128,-1,20
 327 419 327 419 304 419 c 256,21,22
 281 419 281 419 265 435 c 128,-1,23
 249 451 249 451 249 474 c 0,12,13
321 47 m 1,24,25
 301 20 301 20 270 5.5 c 128,-1,26
 239 -9 239 -9 204 -9 c 0,27,28
 148 -9 148 -9 109.5 18 c 128,-1,29
 71 45 71 45 51.5 90 c 128,-1,30
 32 135 32 135 32 189 c 0,31,32
 32 245 32 245 53 289.5 c 128,-1,33
 74 334 74 334 113.5 360 c 128,-1,34
 153 386 153 386 206 386 c 0,35,36
 250 386 250 386 280.5 370 c 128,-1,37
 311 354 311 354 329 332 c 1,38,39
 337 355 337 355 355.5 365.5 c 128,-1,40
 374 376 374 376 400 376 c 2,41,-1
 405 376 l 2,42,43
 416 376 416 376 416 364 c 2,44,-1
 416 11 l 2,45,46
 416 0 416 0 405 0 c 2,47,-1
 331 0 l 2,48,49
 321 0 321 0 321 11 c 2,50,-1
 321 47 l 1,24,25
225 81 m 0,51,52
 244 81 244 81 266.5 89.5 c 128,-1,53
 289 98 289 98 305 121 c 128,-1,54
 321 144 321 144 321 189 c 256,55,56
 321 234 321 234 305 256.5 c 128,-1,57
 289 279 289 279 267 286.5 c 128,-1,58
 245 294 245 294 226 294 c 0,59,60
 206 294 206 294 183.5 285 c 128,-1,61
 161 276 161 276 145.5 253 c 128,-1,62
 130 230 130 230 130 189 c 0,63,64
 130 146 130 146 146.5 122.5 c 128,-1,65
 163 99 163 99 185 90 c 128,-1,66
 207 81 207 81 225 81 c 0,51,52
EndSplineSet
EndChar

StartChar: aring
Encoding: 229 229 162
Width: 463
GlyphClass: 1
Flags: W
LayerCount: 2
Fore
SplineSet
147 494 m 0,0,1
 147 526 147 526 170 547.5 c 128,-1,2
 193 569 193 569 224 569 c 0,3,4
 256 569 256 569 278 547.5 c 128,-1,5
 300 526 300 526 300 494 c 0,6,7
 300 463 300 463 278 440.5 c 128,-1,8
 256 418 256 418 224 418 c 0,9,10
 193 418 193 418 170 440.5 c 128,-1,11
 147 463 147 463 147 494 c 0,0,1
224 460 m 0,12,13
 239 460 239 460 247.5 470 c 128,-1,14
 256 480 256 480 256 494 c 256,15,16
 256 508 256 508 247.5 518 c 128,-1,17
 239 528 239 528 224 528 c 0,18,19
 210 528 210 528 200.5 518 c 128,-1,20
 191 508 191 508 191 494 c 256,21,22
 191 480 191 480 200.5 470 c 128,-1,23
 210 460 210 460 224 460 c 0,12,13
321 47 m 1,24,25
 301 20 301 20 270 5.5 c 128,-1,26
 239 -9 239 -9 204 -9 c 0,27,28
 148 -9 148 -9 109.5 18 c 128,-1,29
 71 45 71 45 51.5 90 c 128,-1,30
 32 135 32 135 32 189 c 0,31,32
 32 245 32 245 53 289.5 c 128,-1,33
 74 334 74 334 113.5 360 c 128,-1,34
 153 386 153 386 206 386 c 0,35,36
 250 386 250 386 280.5 370 c 128,-1,37
 311 354 311 354 329 332 c 1,38,39
 337 355 337 355 355.5 365.5 c 128,-1,40
 374 376 374 376 400 376 c 2,41,-1
 405 376 l 2,42,43
 416 376 416 376 416 364 c 2,44,-1
 416 11 l 2,45,46
 416 0 416 0 405 0 c 2,47,-1
 331 0 l 2,48,49
 321 0 321 0 321 11 c 2,50,-1
 321 47 l 1,24,25
225 81 m 0,51,52
 244 81 244 81 266.5 89.5 c 128,-1,53
 289 98 289 98 305 121 c 128,-1,54
 321 144 321 144 321 189 c 256,55,56
 321 234 321 234 305 256.5 c 128,-1,57
 289 279 289 279 267 286.5 c 128,-1,58
 245 294 245 294 226 294 c 0,59,60
 206 294 206 294 183.5 285 c 128,-1,61
 161 276 161 276 145.5 253 c 128,-1,62
 130 230 130 230 130 189 c 0,63,64
 130 146 130 146 146.5 122.5 c 128,-1,65
 163 99 163 99 185 90 c 128,-1,66
 207 81 207 81 225 81 c 0,51,52
EndSplineSet
EndChar

StartChar: ae
Encoding: 230 230 163
Width: 739
GlyphClass: 1
Flags: W
LayerCount: 2
Fore
SplineSet
415 47 m 1,0,-1
 415 11 l 2,1,2
 415 0 415 0 405 0 c 2,3,-1
 335 0 l 2,4,5
 324 0 324 0 324 11 c 2,6,-1
 324 47 l 1,7,8
 282 -9 282 -9 205 -9 c 0,9,10
 149 -9 149 -9 110.5 18 c 128,-1,11
 72 45 72 45 52.5 90 c 128,-1,12
 33 135 33 135 33 189 c 0,13,14
 33 245 33 245 54.5 289.5 c 128,-1,15
 76 334 76 334 115.5 360 c 128,-1,16
 155 386 155 386 208 386 c 0,17,18
 253 386 253 386 283 369 c 128,-1,19
 313 352 313 352 331 329 c 1,20,21
 345 376 345 376 403 376 c 2,22,-1
 405 376 l 2,23,24
 415 376 415 376 415 364 c 2,25,-1
 415 329 l 1,26,27
 439 355 439 355 468.5 370.5 c 128,-1,28
 498 386 498 386 540 386 c 0,29,30
 600 386 600 386 637 361.5 c 128,-1,31
 674 337 674 337 691.5 298 c 128,-1,32
 709 259 709 259 709 215 c 0,33,34
 709 199 709 199 708 187.5 c 128,-1,35
 707 176 707 176 706 168 c 0,36,37
 705 154 705 154 690 154 c 2,38,-1
 454 154 l 1,39,40
 459 112 459 112 488 92.5 c 128,-1,41
 517 73 517 73 562 73 c 0,42,43
 601 73 601 73 625.5 81 c 128,-1,44
 650 89 650 89 675 102 c 0,45,46
 679 104 679 104 683 106.5 c 128,-1,47
 687 109 687 109 690 109 c 0,48,49
 701 109 701 109 701 94 c 0,50,51
 701 74 701 74 686 50 c 128,-1,52
 671 26 671 26 638.5 8.5 c 128,-1,53
 606 -9 606 -9 551 -9 c 0,54,55
 507 -9 507 -9 474 5 c 128,-1,56
 441 19 441 19 415 47 c 1,0,-1
455 223 m 1,57,-1
 614 223 l 1,58,59
 615 241 615 241 609 259.5 c 128,-1,60
 603 278 603 278 587 290.5 c 128,-1,61
 571 303 571 303 540 303 c 0,62,63
 502 303 502 303 480 282 c 128,-1,64
 458 261 458 261 455 223 c 1,57,-1
227 81 m 0,65,66
 246 81 246 81 268 89.5 c 128,-1,67
 290 98 290 98 306 121 c 128,-1,68
 322 144 322 144 322 189 c 256,69,70
 322 234 322 234 306 256.5 c 128,-1,71
 290 279 290 279 268 286.5 c 128,-1,72
 246 294 246 294 228 294 c 0,73,74
 208 294 208 294 185 285 c 128,-1,75
 162 276 162 276 146.5 253.5 c 128,-1,76
 131 231 131 231 131 189 c 0,77,78
 131 146 131 146 147.5 122.5 c 128,-1,79
 164 99 164 99 186.5 90 c 128,-1,80
 209 81 209 81 227 81 c 0,65,66
EndSplineSet
EndChar

StartChar: ccedilla
Encoding: 231 231 164
Width: 363
GlyphClass: 1
Flags: W
LayerCount: 2
Fore
SplineSet
252 -7 m 1,0,-1
 209 -94 l 2,1,2
 205 -103 205 -103 198 -106 c 128,-1,3
 191 -109 191 -109 181 -109 c 2,4,-1
 119 -109 l 2,5,6
 113 -109 113 -109 112.5 -105 c 128,-1,7
 112 -101 112 -101 114 -97 c 2,8,-1
 172 -6 l 1,9,10
 108 8 108 8 70.5 58.5 c 128,-1,11
 33 109 33 109 33 188 c 0,12,13
 33 279 33 279 85.5 331.5 c 128,-1,14
 138 384 138 384 223 384 c 0,15,16
 245 384 245 384 264.5 381.5 c 128,-1,17
 284 379 284 379 301 372 c 0,18,19
 327 362 327 362 335 345.5 c 128,-1,20
 343 329 343 329 335 301 c 2,21,-1
 329 279 l 2,22,23
 326 271 326 271 321 271 c 0,24,25
 317 271 317 271 312 274 c 0,26,27
 289 285 289 285 271 289.5 c 128,-1,28
 253 294 253 294 227 294 c 0,29,30
 187 294 187 294 159 267.5 c 128,-1,31
 131 241 131 241 131 186 c 0,32,33
 131 134 131 134 158 104 c 128,-1,34
 185 74 185 74 238 74 c 0,35,36
 270 74 270 74 291 84.5 c 128,-1,37
 312 95 312 95 325 104 c 0,38,39
 332 111 332 111 337 111 c 0,40,41
 348 111 348 111 348 95 c 0,42,43
 348 77 348 77 339 55.5 c 128,-1,44
 330 34 330 34 309 17 c 128,-1,45
 288 0 288 0 252 -7 c 1,0,-1
EndSplineSet
EndChar

StartChar: egrave
Encoding: 232 232 165
Width: 418
GlyphClass: 1
Flags: W
LayerCount: 2
Fore
SplineSet
97 516 m 2,0,1
 93 520 93 520 94.5 524 c 128,-1,2
 96 528 96 528 101 528 c 2,3,-1
 181 528 l 2,4,5
 197 528 197 528 207 518 c 2,6,-1
 291 442 l 2,7,8
 294 439 294 439 292.5 434.5 c 128,-1,9
 291 430 291 430 285 430 c 2,10,-1
 219 430 l 2,11,12
 200 430 200 430 186 441 c 2,13,-1
 97 516 l 2,0,1
129 154 m 1,14,15
 134 114 134 114 164 93 c 128,-1,16
 194 72 194 72 240 72 c 0,17,18
 278 72 278 72 303 80 c 128,-1,19
 328 88 328 88 353 102 c 0,20,21
 362 108 362 108 369 108 c 0,22,23
 380 108 380 108 380 94 c 0,24,25
 380 73 380 73 364.5 49 c 128,-1,26
 349 25 349 25 316 7.5 c 128,-1,27
 283 -10 283 -10 228 -10 c 0,28,29
 174 -10 174 -10 129.5 12.5 c 128,-1,30
 85 35 85 35 59 79.5 c 128,-1,31
 33 124 33 124 33 189 c 0,32,33
 33 246 33 246 55.5 290 c 128,-1,34
 78 334 78 334 119.5 359 c 128,-1,35
 161 384 161 384 217 384 c 0,36,37
 277 384 277 384 314.5 359.5 c 128,-1,38
 352 335 352 335 369.5 296 c 128,-1,39
 387 257 387 257 387 213 c 0,40,41
 387 198 387 198 386.5 186.5 c 128,-1,42
 386 175 386 175 385 167 c 0,43,44
 384 154 384 154 368 154 c 2,45,-1
 129 154 l 1,14,15
129 223 m 1,46,-1
 291 223 l 1,47,48
 293 240 293 240 287.5 258.5 c 128,-1,49
 282 277 282 277 265 290 c 128,-1,50
 248 303 248 303 217 303 c 0,51,52
 179 303 179 303 156.5 281.5 c 128,-1,53
 134 260 134 260 129 223 c 1,46,-1
EndSplineSet
EndChar

StartChar: eacute
Encoding: 233 233 166
Width: 418
GlyphClass: 1
Flags: W
LayerCount: 2
Fore
SplineSet
125 430 m 2,0,1
 120 430 120 430 118.5 434.5 c 128,-1,2
 117 439 117 439 120 442 c 2,3,-1
 204 518 l 2,4,5
 214 528 214 528 230 528 c 2,6,-1
 310 528 l 2,7,8
 315 528 315 528 317 524 c 128,-1,9
 319 520 319 520 314 516 c 2,10,-1
 224 441 l 2,11,12
 210 430 210 430 191 430 c 2,13,-1
 125 430 l 2,0,1
129 154 m 1,14,15
 134 114 134 114 164 93 c 128,-1,16
 194 72 194 72 240 72 c 0,17,18
 278 72 278 72 303 80 c 128,-1,19
 328 88 328 88 353 102 c 0,20,21
 362 108 362 108 369 108 c 0,22,23
 380 108 380 108 380 94 c 0,24,25
 380 73 380 73 364.5 49 c 128,-1,26
 349 25 349 25 316 7.5 c 128,-1,27
 283 -10 283 -10 228 -10 c 0,28,29
 174 -10 174 -10 129.5 12.5 c 128,-1,30
 85 35 85 35 59 79.5 c 128,-1,31
 33 124 33 124 33 189 c 0,32,33
 33 246 33 246 55.5 290 c 128,-1,34
 78 334 78 334 119.5 359 c 128,-1,35
 161 384 161 384 217 384 c 0,36,37
 277 384 277 384 314.5 359.5 c 128,-1,38
 352 335 352 335 369.5 296 c 128,-1,39
 387 257 387 257 387 213 c 0,40,41
 387 198 387 198 386.5 186.5 c 128,-1,42
 386 175 386 175 385 167 c 0,43,44
 384 154 384 154 368 154 c 2,45,-1
 129 154 l 1,14,15
129 223 m 1,46,-1
 291 223 l 1,47,48
 293 240 293 240 287.5 258.5 c 128,-1,49
 282 277 282 277 265 290 c 128,-1,50
 248 303 248 303 217 303 c 0,51,52
 179 303 179 303 156.5 281.5 c 128,-1,53
 134 260 134 260 129 223 c 1,46,-1
EndSplineSet
EndChar

StartChar: ecircumflex
Encoding: 234 234 167
Width: 418
GlyphClass: 1
Flags: W
LayerCount: 2
Fore
SplineSet
217 493 m 1,0,-1
 172 443 l 2,1,2
 162 430 162 430 141 430 c 2,3,-1
 82 430 l 2,4,5
 77 430 77 430 75.5 434.5 c 128,-1,6
 74 439 74 439 77 442 c 2,7,-1
 152 518 l 2,8,9
 159 525 159 525 164.5 526.5 c 128,-1,10
 170 528 170 528 180 528 c 2,11,-1
 254 528 l 2,12,13
 264 528 264 528 269.5 527 c 128,-1,14
 275 526 275 526 282 518 c 2,15,-1
 356 442 l 2,16,17
 359 439 359 439 358 434.5 c 128,-1,18
 357 430 357 430 350 430 c 2,19,-1
 292 430 l 2,20,21
 271 430 271 430 261 443 c 2,22,-1
 217 493 l 1,0,-1
129 154 m 1,23,24
 134 114 134 114 164 93 c 128,-1,25
 194 72 194 72 240 72 c 0,26,27
 278 72 278 72 303 80 c 128,-1,28
 328 88 328 88 353 102 c 0,29,30
 362 108 362 108 369 108 c 0,31,32
 380 108 380 108 380 94 c 0,33,34
 380 73 380 73 364.5 49 c 128,-1,35
 349 25 349 25 316 7.5 c 128,-1,36
 283 -10 283 -10 228 -10 c 0,37,38
 174 -10 174 -10 129.5 12.5 c 128,-1,39
 85 35 85 35 59 79.5 c 128,-1,40
 33 124 33 124 33 189 c 0,41,42
 33 246 33 246 55.5 290 c 128,-1,43
 78 334 78 334 119.5 359 c 128,-1,44
 161 384 161 384 217 384 c 0,45,46
 277 384 277 384 314.5 359.5 c 128,-1,47
 352 335 352 335 369.5 296 c 128,-1,48
 387 257 387 257 387 213 c 0,49,50
 387 198 387 198 386.5 186.5 c 128,-1,51
 386 175 386 175 385 167 c 0,52,53
 384 154 384 154 368 154 c 2,54,-1
 129 154 l 1,23,24
129 223 m 1,55,-1
 291 223 l 1,56,57
 293 240 293 240 287.5 258.5 c 128,-1,58
 282 277 282 277 265 290 c 128,-1,59
 248 303 248 303 217 303 c 0,60,61
 179 303 179 303 156.5 281.5 c 128,-1,62
 134 260 134 260 129 223 c 1,55,-1
EndSplineSet
EndChar

StartChar: edieresis
Encoding: 235 235 168
Width: 418
GlyphClass: 1
Flags: W
LayerCount: 2
Fore
SplineSet
84 474 m 0,0,1
 84 498 84 498 100 513.5 c 128,-1,2
 116 529 116 529 139 529 c 256,3,4
 162 529 162 529 177 513.5 c 128,-1,5
 192 498 192 498 192 474 c 0,6,7
 192 451 192 451 177 435 c 128,-1,8
 162 419 162 419 139 419 c 256,9,10
 116 419 116 419 100 435 c 128,-1,11
 84 451 84 451 84 474 c 0,0,1
241 474 m 0,12,13
 241 498 241 498 257 513.5 c 128,-1,14
 273 529 273 529 296 529 c 256,15,16
 319 529 319 529 334 513.5 c 128,-1,17
 349 498 349 498 349 474 c 0,18,19
 349 451 349 451 334 435 c 128,-1,20
 319 419 319 419 296 419 c 256,21,22
 273 419 273 419 257 435 c 128,-1,23
 241 451 241 451 241 474 c 0,12,13
129 154 m 1,24,25
 134 114 134 114 164 93 c 128,-1,26
 194 72 194 72 240 72 c 0,27,28
 278 72 278 72 303 80 c 128,-1,29
 328 88 328 88 353 102 c 0,30,31
 362 108 362 108 369 108 c 0,32,33
 380 108 380 108 380 94 c 0,34,35
 380 73 380 73 364.5 49 c 128,-1,36
 349 25 349 25 316 7.5 c 128,-1,37
 283 -10 283 -10 228 -10 c 0,38,39
 174 -10 174 -10 129.5 12.5 c 128,-1,40
 85 35 85 35 59 79.5 c 128,-1,41
 33 124 33 124 33 189 c 0,42,43
 33 246 33 246 55.5 290 c 128,-1,44
 78 334 78 334 119.5 359 c 128,-1,45
 161 384 161 384 217 384 c 0,46,47
 277 384 277 384 314.5 359.5 c 128,-1,48
 352 335 352 335 369.5 296 c 128,-1,49
 387 257 387 257 387 213 c 0,50,51
 387 198 387 198 386.5 186.5 c 128,-1,52
 386 175 386 175 385 167 c 0,53,54
 384 154 384 154 368 154 c 2,55,-1
 129 154 l 1,24,25
129 223 m 1,56,-1
 291 223 l 1,57,58
 293 240 293 240 287.5 258.5 c 128,-1,59
 282 277 282 277 265 290 c 128,-1,60
 248 303 248 303 217 303 c 0,61,62
 179 303 179 303 156.5 281.5 c 128,-1,63
 134 260 134 260 129 223 c 1,56,-1
EndSplineSet
EndChar

StartChar: igrave
Encoding: 236 236 169
Width: 188
GlyphClass: 1
Flags: W
LayerCount: 2
Fore
SplineSet
-2 516 m 2,0,1
 -6 520 -6 520 -4.5 524 c 128,-1,2
 -3 528 -3 528 1 528 c 2,3,-1
 81 528 l 2,4,5
 97 528 97 528 108 518 c 2,6,-1
 191 442 l 2,7,8
 194 439 194 439 193 434.5 c 128,-1,9
 192 430 192 430 185 430 c 2,10,-1
 120 430 l 2,11,12
 101 430 101 430 87 441 c 2,13,-1
 -2 516 l 2,0,1
58 0 m 2,14,15
 47 0 47 0 47 11 c 2,16,-1
 47 364 l 2,17,18
 47 376 47 376 58 376 c 2,19,-1
 63 376 l 2,20,21
 101 376 101 376 121.5 356 c 128,-1,22
 142 336 142 336 142 291 c 2,23,-1
 142 11 l 2,24,25
 142 0 142 0 132 0 c 2,26,-1
 58 0 l 2,14,15
EndSplineSet
EndChar

StartChar: iacute
Encoding: 237 237 170
Width: 188
GlyphClass: 1
Flags: W
LayerCount: 2
Fore
SplineSet
1 430 m 2,0,1
 -4 430 -4 430 -5.5 434.5 c 128,-1,2
 -7 439 -7 439 -4 442 c 2,3,-1
 80 518 l 2,4,5
 91 528 91 528 106 528 c 2,6,-1
 186 528 l 2,7,8
 191 528 191 528 193 524 c 128,-1,9
 195 520 195 520 190 516 c 2,10,-1
 100 441 l 2,11,12
 86 430 86 430 68 430 c 2,13,-1
 1 430 l 2,0,1
58 0 m 2,14,15
 47 0 47 0 47 11 c 2,16,-1
 47 364 l 2,17,18
 47 376 47 376 58 376 c 2,19,-1
 63 376 l 2,20,21
 101 376 101 376 121.5 356 c 128,-1,22
 142 336 142 336 142 291 c 2,23,-1
 142 11 l 2,24,25
 142 0 142 0 132 0 c 2,26,-1
 58 0 l 2,14,15
EndSplineSet
EndChar

StartChar: icircumflex
Encoding: 238 238 171
Width: 188
GlyphClass: 1
Flags: W
LayerCount: 2
Fore
SplineSet
94 493 m 1,0,-1
 49 443 l 2,1,2
 39 430 39 430 18 430 c 2,3,-1
 -41 430 l 2,4,5
 -46 430 -46 430 -47.5 434.5 c 128,-1,6
 -49 439 -49 439 -46 442 c 2,7,-1
 29 518 l 2,8,9
 36 525 36 525 41.5 526.5 c 128,-1,10
 47 528 47 528 57 528 c 2,11,-1
 131 528 l 2,12,13
 141 528 141 528 146.5 527 c 128,-1,14
 152 526 152 526 159 518 c 2,15,-1
 233 442 l 2,16,17
 236 439 236 439 235 434.5 c 128,-1,18
 234 430 234 430 227 430 c 2,19,-1
 169 430 l 2,20,21
 148 430 148 430 138 443 c 2,22,-1
 94 493 l 1,0,-1
57 0 m 2,23,24
 46 0 46 0 46 11 c 2,25,-1
 46 364 l 2,26,27
 46 376 46 376 57 376 c 2,28,-1
 62 376 l 2,29,30
 100 376 100 376 120.5 356 c 128,-1,31
 141 336 141 336 141 291 c 2,32,-1
 141 11 l 2,33,34
 141 0 141 0 131 0 c 2,35,-1
 57 0 l 2,23,24
EndSplineSet
EndChar

StartChar: idieresis
Encoding: 239 239 172
Width: 188
GlyphClass: 1
Flags: W
LayerCount: 2
Fore
SplineSet
-39 474 m 0,0,1
 -39 498 -39 498 -23 513.5 c 128,-1,2
 -7 529 -7 529 15 529 c 0,3,4
 38 529 38 529 53.5 513.5 c 128,-1,5
 69 498 69 498 69 474 c 0,6,7
 69 451 69 451 53.5 435 c 128,-1,8
 38 419 38 419 15 419 c 0,9,10
 -7 419 -7 419 -23 435 c 128,-1,11
 -39 451 -39 451 -39 474 c 0,0,1
118 474 m 0,12,13
 118 498 118 498 134 513.5 c 128,-1,14
 150 529 150 529 173 529 c 256,15,16
 196 529 196 529 211 513.5 c 128,-1,17
 226 498 226 498 226 474 c 0,18,19
 226 451 226 451 211 435 c 128,-1,20
 196 419 196 419 173 419 c 256,21,22
 150 419 150 419 134 435 c 128,-1,23
 118 451 118 451 118 474 c 0,12,13
57 0 m 2,24,25
 46 0 46 0 46 11 c 2,26,-1
 46 364 l 2,27,28
 46 376 46 376 57 376 c 2,29,-1
 62 376 l 2,30,31
 100 376 100 376 120.5 356 c 128,-1,32
 141 336 141 336 141 291 c 2,33,-1
 141 11 l 2,34,35
 141 0 141 0 131 0 c 2,36,-1
 57 0 l 2,24,25
EndSplineSet
EndChar

StartChar: eth
Encoding: 240 240 173
Width: 446
GlyphClass: 1
Flags: W
LayerCount: 2
Fore
SplineSet
232 374 m 1,0,-1
 190 434 l 1,1,-1
 131 404 l 2,2,3
 121 401 121 401 117 408 c 2,4,-1
 101 433 l 2,5,6
 96 442 96 442 104 446 c 2,7,-1
 161 474 l 1,8,-1
 113 544 l 2,9,10
 111 548 111 548 113 552 c 128,-1,11
 115 556 115 556 119 556 c 2,12,-1
 140 556 l 2,13,14
 172 556 172 556 195.5 548 c 128,-1,15
 219 540 219 540 238 514 c 1,16,-1
 288 541 l 2,17,18
 297 545 297 545 303 537 c 2,19,-1
 319 512 l 2,20,21
 326 503 326 503 317 499 c 2,22,-1
 268 473 l 1,23,-1
 368 329 l 2,24,25
 390 299 390 299 401.5 265.5 c 128,-1,26
 413 232 413 232 413 195 c 0,27,28
 413 106 413 106 364 48 c 128,-1,29
 315 -10 315 -10 221 -10 c 0,30,31
 135 -10 135 -10 84 45 c 128,-1,32
 33 100 33 100 33 188 c 0,33,34
 33 241 33 241 56 283 c 128,-1,35
 79 325 79 325 123.5 349.5 c 128,-1,36
 168 374 168 374 232 374 c 1,0,-1
221 79 m 0,37,38
 260 79 260 79 287.5 103 c 128,-1,39
 315 127 315 127 315 182 c 0,40,41
 315 236 315 236 288 261.5 c 128,-1,42
 261 287 261 287 222 287 c 256,43,44
 183 287 183 287 156.5 261.5 c 128,-1,45
 130 236 130 236 130 182 c 0,46,47
 130 135 130 135 154 107 c 128,-1,48
 178 79 178 79 221 79 c 0,37,38
EndSplineSet
EndChar

StartChar: ntilde
Encoding: 241 241 174
Width: 444
GlyphClass: 1
Flags: W
LayerCount: 2
Fore
SplineSet
99 429 m 2,0,1
 89 429 89 429 89 440 c 0,2,3
 92 482 92 482 110 505 c 128,-1,4
 128 528 128 528 160 528 c 0,5,6
 182 528 182 528 202.5 520.5 c 128,-1,7
 223 513 223 513 241 505 c 128,-1,8
 259 497 259 497 274 497 c 0,9,10
 292 497 292 497 296 518 c 0,11,12
 297 528 297 528 308 528 c 2,13,-1
 349 528 l 2,14,15
 359 528 359 528 359 518 c 0,16,17
 355 475 355 475 337.5 453.5 c 128,-1,18
 320 432 320 432 281 432 c 0,19,20
 262 432 262 432 242 439.5 c 128,-1,21
 222 447 222 447 204.5 454 c 128,-1,22
 187 461 187 461 174 461 c 0,23,24
 163 461 163 461 158.5 454.5 c 128,-1,25
 154 448 154 448 152 439 c 0,26,27
 151 429 151 429 140 429 c 2,28,-1
 99 429 l 2,0,1
136 327 m 1,29,30
 155 353 155 353 184.5 368 c 128,-1,31
 214 383 214 383 249 383 c 0,32,33
 320 383 320 383 360.5 341 c 128,-1,34
 401 299 401 299 401 216 c 2,35,-1
 401 11 l 2,36,37
 401 0 401 0 390 0 c 2,38,-1
 316 0 l 2,39,40
 305 0 305 0 305 11 c 2,41,-1
 305 204 l 2,42,43
 305 253 305 253 282 274 c 128,-1,44
 259 295 259 295 224 295 c 256,45,46
 189 295 189 295 166 273.5 c 128,-1,47
 143 252 143 252 143 202 c 2,48,-1
 143 11 l 2,49,50
 143 0 143 0 131 0 c 2,51,-1
 58 0 l 2,52,53
 47 0 47 0 47 11 c 2,54,-1
 47 364 l 2,55,56
 47 376 47 376 58 376 c 2,57,-1
 63 376 l 2,58,59
 92 376 92 376 111 363.5 c 128,-1,60
 130 351 130 351 136 327 c 1,29,30
EndSplineSet
EndChar

StartChar: ograve
Encoding: 242 242 175
Width: 451
GlyphClass: 1
Flags: W
LayerCount: 2
Fore
SplineSet
121 516 m 2,0,1
 117 520 117 520 118.5 524 c 128,-1,2
 120 528 120 528 125 528 c 2,3,-1
 205 528 l 2,4,5
 220 528 220 528 231 518 c 2,6,-1
 315 442 l 2,7,8
 318 439 318 439 316.5 434.5 c 128,-1,9
 315 430 315 430 309 430 c 2,10,-1
 243 430 l 2,11,12
 224 430 224 430 210 441 c 2,13,-1
 121 516 l 2,0,1
226 -10 m 0,14,15
 138 -10 138 -10 85.5 44 c 128,-1,16
 33 98 33 98 33 188 c 0,17,18
 33 277 33 277 85 330.5 c 128,-1,19
 137 384 137 384 225 384 c 256,20,21
 313 384 313 384 365 330.5 c 128,-1,22
 417 277 417 277 417 188 c 256,23,24
 417 99 417 99 366 44.5 c 128,-1,25
 315 -10 315 -10 226 -10 c 0,14,15
225 81 m 0,26,27
 263 81 263 81 291 105.5 c 128,-1,28
 319 130 319 130 319 186 c 256,29,30
 319 242 319 242 291 268 c 128,-1,31
 263 294 263 294 225 294 c 0,32,33
 186 294 186 294 158.5 268.5 c 128,-1,34
 131 243 131 243 131 187 c 256,35,36
 131 131 131 131 158.5 106 c 128,-1,37
 186 81 186 81 225 81 c 0,26,27
EndSplineSet
EndChar

StartChar: oacute
Encoding: 243 243 176
Width: 451
GlyphClass: 1
Flags: W
LayerCount: 2
Fore
SplineSet
139 430 m 2,0,1
 134 430 134 430 132.5 434.5 c 128,-1,2
 131 439 131 439 134 442 c 2,3,-1
 218 518 l 2,4,5
 229 528 229 528 245 528 c 2,6,-1
 324 528 l 2,7,8
 329 528 329 528 331 524 c 128,-1,9
 333 520 333 520 328 516 c 2,10,-1
 239 441 l 2,11,12
 225 430 225 430 206 430 c 2,13,-1
 139 430 l 2,0,1
226 -10 m 0,14,15
 138 -10 138 -10 85.5 44 c 128,-1,16
 33 98 33 98 33 188 c 0,17,18
 33 277 33 277 85 330.5 c 128,-1,19
 137 384 137 384 225 384 c 256,20,21
 313 384 313 384 365 330.5 c 128,-1,22
 417 277 417 277 417 188 c 256,23,24
 417 99 417 99 366 44.5 c 128,-1,25
 315 -10 315 -10 226 -10 c 0,14,15
225 81 m 0,26,27
 263 81 263 81 291 105.5 c 128,-1,28
 319 130 319 130 319 186 c 256,29,30
 319 242 319 242 291 268 c 128,-1,31
 263 294 263 294 225 294 c 0,32,33
 186 294 186 294 158.5 268.5 c 128,-1,34
 131 243 131 243 131 187 c 256,35,36
 131 131 131 131 158.5 106 c 128,-1,37
 186 81 186 81 225 81 c 0,26,27
EndSplineSet
EndChar

StartChar: ocircumflex
Encoding: 244 244 177
Width: 451
GlyphClass: 1
Flags: W
LayerCount: 2
Fore
SplineSet
227 493 m 1,0,-1
 182 443 l 2,1,2
 172 430 172 430 151 430 c 2,3,-1
 92 430 l 2,4,5
 87 430 87 430 85.5 434.5 c 128,-1,6
 84 439 84 439 87 442 c 2,7,-1
 162 518 l 2,8,9
 169 525 169 525 174.5 526.5 c 128,-1,10
 180 528 180 528 190 528 c 2,11,-1
 264 528 l 2,12,13
 274 528 274 528 279.5 527 c 128,-1,14
 285 526 285 526 292 518 c 2,15,-1
 366 442 l 2,16,17
 369 439 369 439 368 434.5 c 128,-1,18
 367 430 367 430 360 430 c 2,19,-1
 302 430 l 2,20,21
 281 430 281 430 271 443 c 2,22,-1
 227 493 l 1,0,-1
226 -10 m 0,23,24
 138 -10 138 -10 85.5 44 c 128,-1,25
 33 98 33 98 33 188 c 0,26,27
 33 277 33 277 85 330.5 c 128,-1,28
 137 384 137 384 225 384 c 256,29,30
 313 384 313 384 365 330.5 c 128,-1,31
 417 277 417 277 417 188 c 256,32,33
 417 99 417 99 366 44.5 c 128,-1,34
 315 -10 315 -10 226 -10 c 0,23,24
225 81 m 0,35,36
 263 81 263 81 291 105.5 c 128,-1,37
 319 130 319 130 319 186 c 256,38,39
 319 242 319 242 291 268 c 128,-1,40
 263 294 263 294 225 294 c 0,41,42
 186 294 186 294 158.5 268.5 c 128,-1,43
 131 243 131 243 131 187 c 256,44,45
 131 131 131 131 158.5 106 c 128,-1,46
 186 81 186 81 225 81 c 0,35,36
EndSplineSet
EndChar

StartChar: otilde
Encoding: 245 245 178
Width: 451
GlyphClass: 1
Flags: W
LayerCount: 2
Fore
SplineSet
97 429 m 2,0,1
 87 429 87 429 87 440 c 0,2,3
 90 482 90 482 108 505 c 128,-1,4
 126 528 126 528 157 528 c 0,5,6
 180 528 180 528 200.5 520.5 c 128,-1,7
 221 513 221 513 239 505 c 128,-1,8
 257 497 257 497 272 497 c 0,9,10
 290 497 290 497 294 518 c 0,11,12
 295 528 295 528 305 528 c 2,13,-1
 346 528 l 2,14,15
 358 528 358 528 356 518 c 0,16,17
 352 475 352 475 334.5 453.5 c 128,-1,18
 317 432 317 432 279 432 c 0,19,20
 260 432 260 432 240 439.5 c 128,-1,21
 220 447 220 447 202 454 c 128,-1,22
 184 461 184 461 171 461 c 0,23,24
 160 461 160 461 155.5 454.5 c 128,-1,25
 151 448 151 448 150 439 c 0,26,27
 149 429 149 429 137 429 c 2,28,-1
 97 429 l 2,0,1
226 -10 m 0,29,30
 138 -10 138 -10 85.5 44 c 128,-1,31
 33 98 33 98 33 188 c 0,32,33
 33 277 33 277 85 330.5 c 128,-1,34
 137 384 137 384 225 384 c 256,35,36
 313 384 313 384 365 330.5 c 128,-1,37
 417 277 417 277 417 188 c 256,38,39
 417 99 417 99 366 44.5 c 128,-1,40
 315 -10 315 -10 226 -10 c 0,29,30
225 81 m 0,41,42
 263 81 263 81 291 105.5 c 128,-1,43
 319 130 319 130 319 186 c 256,44,45
 319 242 319 242 291 268 c 128,-1,46
 263 294 263 294 225 294 c 0,47,48
 186 294 186 294 158.5 268.5 c 128,-1,49
 131 243 131 243 131 187 c 256,50,51
 131 131 131 131 158.5 106 c 128,-1,52
 186 81 186 81 225 81 c 0,41,42
EndSplineSet
EndChar

StartChar: odieresis
Encoding: 246 246 179
Width: 451
GlyphClass: 1
Flags: W
LayerCount: 2
Fore
SplineSet
93 474 m 0,0,1
 93 498 93 498 109 513.5 c 128,-1,2
 125 529 125 529 147 529 c 0,3,4
 170 529 170 529 185.5 513.5 c 128,-1,5
 201 498 201 498 201 474 c 0,6,7
 201 451 201 451 185.5 435 c 128,-1,8
 170 419 170 419 147 419 c 0,9,10
 125 419 125 419 109 435 c 128,-1,11
 93 451 93 451 93 474 c 0,0,1
250 474 m 0,12,13
 250 498 250 498 266 513.5 c 128,-1,14
 282 529 282 529 305 529 c 256,15,16
 328 529 328 529 343 513.5 c 128,-1,17
 358 498 358 498 358 474 c 0,18,19
 358 451 358 451 343 435 c 128,-1,20
 328 419 328 419 305 419 c 256,21,22
 282 419 282 419 266 435 c 128,-1,23
 250 451 250 451 250 474 c 0,12,13
226 -10 m 0,24,25
 138 -10 138 -10 85.5 44 c 128,-1,26
 33 98 33 98 33 188 c 0,27,28
 33 277 33 277 85 330.5 c 128,-1,29
 137 384 137 384 225 384 c 256,30,31
 313 384 313 384 365 330.5 c 128,-1,32
 417 277 417 277 417 188 c 256,33,34
 417 99 417 99 366 44.5 c 128,-1,35
 315 -10 315 -10 226 -10 c 0,24,25
225 81 m 0,36,37
 263 81 263 81 291 105.5 c 128,-1,38
 319 130 319 130 319 186 c 256,39,40
 319 242 319 242 291 268 c 128,-1,41
 263 294 263 294 225 294 c 0,42,43
 186 294 186 294 158.5 268.5 c 128,-1,44
 131 243 131 243 131 187 c 256,45,46
 131 131 131 131 158.5 106 c 128,-1,47
 186 81 186 81 225 81 c 0,36,37
EndSplineSet
EndChar

StartChar: divide
Encoding: 247 247 180
Width: 418
GlyphClass: 1
Flags: W
LayerCount: 2
Fore
SplineSet
155 413 m 0,0,1
 155 436 155 436 171 451.5 c 128,-1,2
 187 467 187 467 209 467 c 0,3,4
 232 467 232 467 247 451.5 c 128,-1,5
 262 436 262 436 262 413 c 0,6,7
 262 391 262 391 247 375 c 128,-1,8
 232 359 232 359 209 359 c 0,9,10
 187 359 187 359 171 375 c 128,-1,11
 155 391 155 391 155 413 c 0,0,1
44 231 m 2,12,13
 33 231 33 231 33 242 c 2,14,-1
 33 299 l 2,15,16
 33 311 33 311 44 311 c 2,17,-1
 324 311 l 2,18,19
 354 311 354 311 369.5 295.5 c 128,-1,20
 385 280 385 280 385 254 c 2,21,-1
 385 242 l 2,22,23
 385 231 385 231 374 231 c 2,24,-1
 44 231 l 2,12,13
155 127 m 256,25,26
 155 150 155 150 171 166 c 128,-1,27
 187 182 187 182 209 182 c 0,28,29
 232 182 232 182 247 166 c 128,-1,30
 262 150 262 150 262 127 c 256,31,32
 262 104 262 104 247 89 c 128,-1,33
 232 74 232 74 209 74 c 0,34,35
 187 74 187 74 171 89 c 128,-1,36
 155 104 155 104 155 127 c 256,25,26
EndSplineSet
EndChar

StartChar: oslash
Encoding: 248 248 181
Width: 451
GlyphClass: 1
Flags: W
LayerCount: 2
Fore
SplineSet
226 -10 m 0,0,1
 138 -10 138 -10 85.5 44.5 c 128,-1,2
 33 99 33 99 33 188 c 256,3,4
 33 277 33 277 85 330.5 c 128,-1,5
 137 384 137 384 225 384 c 256,6,7
 313 384 313 384 365.5 330.5 c 128,-1,8
 418 277 418 277 418 188 c 0,9,10
 418 100 418 100 366.5 45 c 128,-1,11
 315 -10 315 -10 226 -10 c 0,0,1
149 119 m 1,12,-1
 258 287 l 1,13,14
 251 290 251 290 242.5 292 c 128,-1,15
 234 294 234 294 225 294 c 0,16,17
 186 294 186 294 158.5 268.5 c 128,-1,18
 131 243 131 243 131 187 c 0,19,20
 131 166 131 166 136 149 c 128,-1,21
 141 132 141 132 149 119 c 1,12,-1
305 248 m 1,22,-1
 201 84 l 1,23,24
 212 81 212 81 225 81 c 0,25,26
 263 81 263 81 291 105.5 c 128,-1,27
 319 130 319 130 319 186 c 0,28,29
 319 222 319 222 305 248 c 1,22,-1
EndSplineSet
EndChar

StartChar: ugrave
Encoding: 249 249 182
Width: 441
GlyphClass: 1
Flags: W
LayerCount: 2
Fore
SplineSet
103 516 m 2,0,1
 99 520 99 520 100.5 524 c 128,-1,2
 102 528 102 528 107 528 c 2,3,-1
 187 528 l 2,4,5
 203 528 203 528 214 518 c 2,6,-1
 297 442 l 2,7,8
 300 439 300 439 298.5 434.5 c 128,-1,9
 297 430 297 430 291 430 c 2,10,-1
 225 430 l 2,11,12
 207 430 207 430 193 441 c 2,13,-1
 103 516 l 2,0,1
219 -10 m 0,14,15
 128 -10 128 -10 87 43 c 128,-1,16
 46 96 46 96 46 182 c 2,17,-1
 46 364 l 2,18,19
 46 376 46 376 56 376 c 2,20,-1
 61 376 l 2,21,22
 100 376 100 376 121 356 c 128,-1,23
 142 336 142 336 142 291 c 2,24,-1
 142 170 l 2,25,26
 142 122 142 122 164 100 c 128,-1,27
 186 78 186 78 219 78 c 0,28,29
 253 78 253 78 276 98.5 c 128,-1,30
 299 119 299 119 299 169 c 2,31,-1
 299 364 l 2,32,33
 299 376 299 376 310 376 c 2,34,-1
 315 376 l 2,35,36
 354 376 354 376 374.5 356 c 128,-1,37
 395 336 395 336 395 291 c 2,38,-1
 395 176 l 2,39,40
 395 91 395 91 353 40.5 c 128,-1,41
 311 -10 311 -10 219 -10 c 0,14,15
EndSplineSet
EndChar

StartChar: uacute
Encoding: 250 250 183
Width: 441
GlyphClass: 1
Flags: W
LayerCount: 2
Fore
SplineSet
126 430 m 2,0,1
 121 430 121 430 119.5 434.5 c 128,-1,2
 118 439 118 439 121 442 c 2,3,-1
 205 518 l 2,4,5
 216 528 216 528 232 528 c 2,6,-1
 311 528 l 2,7,8
 316 528 316 528 318 524 c 128,-1,9
 320 520 320 520 315 516 c 2,10,-1
 225 441 l 2,11,12
 211 430 211 430 193 430 c 2,13,-1
 126 430 l 2,0,1
219 -10 m 0,14,15
 128 -10 128 -10 87 43 c 128,-1,16
 46 96 46 96 46 182 c 2,17,-1
 46 364 l 2,18,19
 46 376 46 376 56 376 c 2,20,-1
 61 376 l 2,21,22
 100 376 100 376 121 356 c 128,-1,23
 142 336 142 336 142 291 c 2,24,-1
 142 170 l 2,25,26
 142 122 142 122 164 100 c 128,-1,27
 186 78 186 78 219 78 c 0,28,29
 253 78 253 78 276 98.5 c 128,-1,30
 299 119 299 119 299 169 c 2,31,-1
 299 364 l 2,32,33
 299 376 299 376 310 376 c 2,34,-1
 315 376 l 2,35,36
 354 376 354 376 374.5 356 c 128,-1,37
 395 336 395 336 395 291 c 2,38,-1
 395 176 l 2,39,40
 395 91 395 91 353 40.5 c 128,-1,41
 311 -10 311 -10 219 -10 c 0,14,15
EndSplineSet
EndChar

StartChar: ucircumflex
Encoding: 251 251 184
Width: 441
GlyphClass: 1
Flags: W
LayerCount: 2
Fore
SplineSet
217 493 m 1,0,-1
 172 443 l 2,1,2
 160 430 160 430 140 430 c 2,3,-1
 81 430 l 2,4,5
 76 430 76 430 74.5 434.5 c 128,-1,6
 73 439 73 439 76 442 c 2,7,-1
 151 518 l 2,8,9
 158 525 158 525 163.5 526.5 c 128,-1,10
 169 528 169 528 179 528 c 2,11,-1
 253 528 l 2,12,13
 263 528 263 528 268.5 527 c 128,-1,14
 274 526 274 526 281 518 c 2,15,-1
 355 442 l 2,16,17
 358 439 358 439 357 434.5 c 128,-1,18
 356 430 356 430 349 430 c 2,19,-1
 291 430 l 2,20,21
 270 430 270 430 260 443 c 2,22,-1
 217 493 l 1,0,-1
219 -10 m 0,23,24
 128 -10 128 -10 87 43 c 128,-1,25
 46 96 46 96 46 182 c 2,26,-1
 46 364 l 2,27,28
 46 376 46 376 56 376 c 2,29,-1
 61 376 l 2,30,31
 100 376 100 376 121 356 c 128,-1,32
 142 336 142 336 142 291 c 2,33,-1
 142 170 l 2,34,35
 142 122 142 122 164 100 c 128,-1,36
 186 78 186 78 219 78 c 0,37,38
 253 78 253 78 276 98.5 c 128,-1,39
 299 119 299 119 299 169 c 2,40,-1
 299 364 l 2,41,42
 299 376 299 376 310 376 c 2,43,-1
 315 376 l 2,44,45
 354 376 354 376 374.5 356 c 128,-1,46
 395 336 395 336 395 291 c 2,47,-1
 395 176 l 2,48,49
 395 91 395 91 353 40.5 c 128,-1,50
 311 -10 311 -10 219 -10 c 0,23,24
EndSplineSet
EndChar

StartChar: udieresis
Encoding: 252 252 185
Width: 441
GlyphClass: 1
Flags: W
LayerCount: 2
Fore
SplineSet
87 474 m 0,0,1
 87 498 87 498 103 513.5 c 128,-1,2
 119 529 119 529 142 529 c 256,3,4
 165 529 165 529 180 513.5 c 128,-1,5
 195 498 195 498 195 474 c 0,6,7
 195 451 195 451 180 435 c 128,-1,8
 165 419 165 419 142 419 c 256,9,10
 119 419 119 419 103 435 c 128,-1,11
 87 451 87 451 87 474 c 0,0,1
244 474 m 0,12,13
 244 498 244 498 260 513.5 c 128,-1,14
 276 529 276 529 299 529 c 256,15,16
 322 529 322 529 337 513.5 c 128,-1,17
 352 498 352 498 352 474 c 0,18,19
 352 451 352 451 337 435 c 128,-1,20
 322 419 322 419 299 419 c 256,21,22
 276 419 276 419 260 435 c 128,-1,23
 244 451 244 451 244 474 c 0,12,13
219 -10 m 0,24,25
 128 -10 128 -10 87 43 c 128,-1,26
 46 96 46 96 46 182 c 2,27,-1
 46 364 l 2,28,29
 46 376 46 376 56 376 c 2,30,-1
 61 376 l 2,31,32
 100 376 100 376 121 356 c 128,-1,33
 142 336 142 336 142 291 c 2,34,-1
 142 170 l 2,35,36
 142 122 142 122 164 100 c 128,-1,37
 186 78 186 78 219 78 c 0,38,39
 253 78 253 78 276 98.5 c 128,-1,40
 299 119 299 119 299 169 c 2,41,-1
 299 364 l 2,42,43
 299 376 299 376 310 376 c 2,44,-1
 315 376 l 2,45,46
 354 376 354 376 374.5 356 c 128,-1,47
 395 336 395 336 395 291 c 2,48,-1
 395 176 l 2,49,50
 395 91 395 91 353 40.5 c 128,-1,51
 311 -10 311 -10 219 -10 c 0,24,25
EndSplineSet
EndChar

StartChar: yacute
Encoding: 253 253 186
Width: 388
GlyphClass: 1
Flags: W
LayerCount: 2
Fore
SplineSet
111 430 m 2,0,1
 106 430 106 430 104.5 434.5 c 128,-1,2
 103 439 103 439 106 442 c 2,3,-1
 190 518 l 2,4,5
 200 528 200 528 216 528 c 2,6,-1
 296 528 l 2,7,8
 301 528 301 528 303 524 c 128,-1,9
 305 520 305 520 300 516 c 2,10,-1
 210 441 l 2,11,12
 196 430 196 430 177 430 c 2,13,-1
 111 430 l 2,0,1
145 -9 m 1,14,-1
 11 364 l 2,15,16
 10 368 10 368 11.5 372 c 128,-1,17
 13 376 13 376 17 376 c 2,18,-1
 38 376 l 2,19,20
 79 376 79 376 98.5 359 c 128,-1,21
 118 342 118 342 135 295 c 2,22,-1
 197 109 l 1,23,-1
 281 363 l 2,24,25
 287 376 287 376 297 376 c 2,26,-1
 371 376 l 2,27,28
 376 376 376 376 377 372 c 128,-1,29
 378 368 378 368 377 364 c 2,30,-1
 247 -1 l 2,31,32
 230 -50 230 -50 210.5 -88.5 c 128,-1,33
 191 -127 191 -127 163 -149 c 128,-1,34
 135 -171 135 -171 92 -171 c 0,35,36
 60 -171 60 -171 38 -157.5 c 128,-1,37
 16 -144 16 -144 5 -123 c 128,-1,38
 -6 -102 -6 -102 -6 -82 c 0,39,40
 -6 -75 -6 -75 -3 -69 c 128,-1,41
 0 -63 0 -63 6 -63 c 0,42,43
 8 -63 8 -63 10.5 -64.5 c 128,-1,44
 13 -66 13 -66 15 -68 c 0,45,46
 42 -88 42 -88 69 -88 c 0,47,48
 97 -88 97 -88 113 -70.5 c 128,-1,49
 129 -53 129 -53 145 -9 c 1,14,-1
EndSplineSet
EndChar

StartChar: thorn
Encoding: 254 254 187
Width: 462
GlyphClass: 1
Flags: W
LayerCount: 2
Fore
SplineSet
141 44 m 1,0,-1
 141 -149 l 2,1,2
 141 -160 141 -160 131 -160 c 2,3,-1
 56 -160 l 2,4,5
 47 -160 47 -160 47 -149 c 2,6,-1
 47 544 l 2,7,8
 47 556 47 556 56 556 c 2,9,-1
 61 556 l 2,10,11
 100 556 100 556 120.5 536.5 c 128,-1,12
 141 517 141 517 141 472 c 2,13,-1
 141 334 l 1,14,15
 158 355 158 355 187 369.5 c 128,-1,16
 216 384 216 384 253 384 c 0,17,18
 311 384 311 384 350 358.5 c 128,-1,19
 389 333 389 333 409.5 289 c 128,-1,20
 430 245 430 245 430 189 c 0,21,22
 430 135 430 135 410.5 90 c 128,-1,23
 391 45 391 45 353 18 c 128,-1,24
 315 -9 315 -9 259 -9 c 0,25,26
 222 -9 222 -9 191.5 4.5 c 128,-1,27
 161 18 161 18 141 44 c 1,0,-1
238 81 m 256,28,29
 278 81 278 81 304.5 109.5 c 128,-1,30
 331 138 331 138 331 190 c 0,31,32
 331 238 331 238 305.5 266 c 128,-1,33
 280 294 280 294 236 294 c 0,34,35
 197 294 197 294 169 269.5 c 128,-1,36
 141 245 141 245 141 190 c 256,37,38
 141 135 141 135 169.5 108 c 128,-1,39
 198 81 198 81 238 81 c 256,28,29
EndSplineSet
EndChar

StartChar: ydieresis
Encoding: 255 255 188
Width: 388
GlyphClass: 1
Flags: W
LayerCount: 2
Fore
SplineSet
59 474 m 0,0,1
 59 498 59 498 75 513.5 c 128,-1,2
 91 529 91 529 113 529 c 0,3,4
 136 529 136 529 151.5 513.5 c 128,-1,5
 167 498 167 498 167 474 c 0,6,7
 167 451 167 451 151.5 435 c 128,-1,8
 136 419 136 419 113 419 c 0,9,10
 91 419 91 419 75 435 c 128,-1,11
 59 451 59 451 59 474 c 0,0,1
216 474 m 0,12,13
 216 498 216 498 232 513.5 c 128,-1,14
 248 529 248 529 271 529 c 256,15,16
 294 529 294 529 309 513.5 c 128,-1,17
 324 498 324 498 324 474 c 0,18,19
 324 451 324 451 309 435 c 128,-1,20
 294 419 294 419 271 419 c 256,21,22
 248 419 248 419 232 435 c 128,-1,23
 216 451 216 451 216 474 c 0,12,13
145 -9 m 1,24,-1
 11 364 l 2,25,26
 10 368 10 368 11.5 372 c 128,-1,27
 13 376 13 376 17 376 c 2,28,-1
 38 376 l 2,29,30
 79 376 79 376 98.5 359 c 128,-1,31
 118 342 118 342 135 295 c 2,32,-1
 197 109 l 1,33,-1
 281 363 l 2,34,35
 287 376 287 376 297 376 c 2,36,-1
 371 376 l 2,37,38
 376 376 376 376 377 372 c 128,-1,39
 378 368 378 368 377 364 c 2,40,-1
 247 -1 l 2,41,42
 230 -50 230 -50 210.5 -88.5 c 128,-1,43
 191 -127 191 -127 163 -149 c 128,-1,44
 135 -171 135 -171 92 -171 c 0,45,46
 60 -171 60 -171 38 -157.5 c 128,-1,47
 16 -144 16 -144 5 -123 c 128,-1,48
 -6 -102 -6 -102 -6 -82 c 0,49,50
 -6 -75 -6 -75 -3 -69 c 128,-1,51
 0 -63 0 -63 6 -63 c 0,52,53
 8 -63 8 -63 10.5 -64.5 c 128,-1,54
 13 -66 13 -66 15 -68 c 0,55,56
 42 -88 42 -88 69 -88 c 0,57,58
 97 -88 97 -88 113 -70.5 c 128,-1,59
 129 -53 129 -53 145 -9 c 1,24,-1
EndSplineSet
EndChar

StartChar: dotlessi
Encoding: 305 305 189
Width: 188
GlyphClass: 1
Flags: W
LayerCount: 2
Fore
SplineSet
57 0 m 2,0,1
 46 0 46 0 46 11 c 2,2,-1
 46 364 l 2,3,4
 46 376 46 376 57 376 c 2,5,-1
 62 376 l 2,6,7
 100 376 100 376 120.5 356 c 128,-1,8
 141 336 141 336 141 291 c 2,9,-1
 141 11 l 2,10,11
 141 0 141 0 131 0 c 2,12,-1
 57 0 l 2,0,1
EndSplineSet
EndChar

StartChar: Lslash
Encoding: 321 321 190
Width: 389
GlyphClass: 1
Flags: W
LayerCount: 2
Fore
SplineSet
167 91 m 1,0,-1
 314 91 l 2,1,2
 373 91 373 91 373 35 c 2,3,-1
 373 14 l 2,4,5
 373 0 373 0 358 0 c 2,6,-1
 79 0 l 2,7,8
 69 0 69 0 69 11 c 2,9,-1
 69 196 l 1,10,-1
 29 174 l 2,11,12
 25 172 25 172 20.5 174 c 128,-1,13
 16 176 16 176 16 180 c 2,14,-1
 16 241 l 2,15,16
 16 254 16 254 28 259 c 2,17,-1
 69 281 l 1,18,-1
 69 544 l 2,19,20
 69 556 69 556 79 556 c 2,21,-1
 89 556 l 2,22,23
 127 556 127 556 147 535.5 c 128,-1,24
 167 515 167 515 167 468 c 2,25,-1
 167 334 l 1,26,-1
 285 398 l 2,27,28
 290 401 290 401 294 399 c 128,-1,29
 298 397 298 397 298 393 c 2,30,-1
 298 332 l 2,31,32
 298 319 298 319 287 313 c 2,33,-1
 167 249 l 1,34,-1
 167 91 l 1,0,-1
EndSplineSet
EndChar

